<svg xmlns="http://www.w3.org/2000/svg" xmlns:xlink="http://www.w3.org/1999/xlink" viewBox="0 0 4855.36 3234.9"><defs><style>.cls-1{fill:none;}.cls-2{clip-path:url(#clip-path);}</style><clipPath id="clip-path"><rect class="cls-1" x="229.84" y="146.76" width="1560.62" height="1266.83"/></clipPath></defs><g id="Layer_2" data-name="Layer 2"><g id="Layer_1-2" data-name="Layer 1"><rect class="cls-1" width="4855.36" height="3234.9"/><g class="cls-2"><path d="M516,335.07H303.2v35.77H516Zm-154.09-166H518.74c72.45,0,131.15,59.62,131.15,132.07v38.52c0,72.46-58.7,132.07-131.15,132.07H372v34.86h1.84a71.63,71.63,0,0,1,71.53,71.54v90.8A105.49,105.49,0,0,1,339.89,774.39h-3.67A104.9,104.9,0,0,1,230.75,668.92V301.13c0-72.45,58.7-132.07,131.15-132.07"/><path d="M668.22,498c0-58.7,46.78-106.39,105.47-106.39A105.88,105.88,0,0,1,880.08,498V669.54A105.88,105.88,0,0,1,773.69,775.93c-58.69,0-105.47-47.69-105.47-106.39Zm-4.59-241.21A109.79,109.79,0,0,1,773.69,146.76c62.37,0,111,49.52,111,110.06,0,62.36-48.61,111.89-111,111.89-61.45,0-110.06-49.53-110.06-111.89"/><path d="M906.34,613.59V432.91a61.46,61.46,0,0,1,61.45-61.45h10.09V302.67A131.52,131.52,0,0,1,1110,170.6h92.64c72.45,0,131.15,58.7,131.15,132.07v21.1c0,72.45-58.7,132.07-131.15,132.07H977.88v34.85h224.71c72.45,0,131.15,59.62,131.15,132.07v21.1c0,72.45-58.7,132.07-131.15,132.07H1078.77c-55.95,0-100.89-45.86-100.89-100.89H967.79a61.45,61.45,0,0,1-61.45-61.45"/><path d="M1362.15,677.8v-410c0-54.11,44-97.22,98.13-97.22s98.14,43.11,98.14,97.22V371.46h35.77V267.82c0-54.11,44-97.22,98.13-97.22s98.14,43.11,98.14,97.22V341.2c0,72.45-59.61,132.07-132.07,132.07h-81.63v34.85h81.63c72.46,0,132.07,59.62,132.07,132.07V677.8a98.14,98.14,0,0,1-196.27,0V585.16h-35.77V677.8a98.14,98.14,0,0,1-196.27,0"/><path d="M229.84,1309.91V1092.63c0-51.08,41.78-92.86,92.85-92.86h44.57V930.13A133.16,133.16,0,0,1,501,796.41H673.69c73.36,0,133.72,59.43,133.72,133.72v379.78a99.36,99.36,0,0,1-198.72,0V999.77H572.48v347.28c0,30.65-24.14,54.79-53.86,54.79s-53.86-24.14-53.86-54.79V999.77H428.55v310.14a99.36,99.36,0,1,1-198.71,0"/><path d="M1658,1413.59l-685.93-1.45c-73.37,0-132.07-60.54-132.07-133V937.05A131.53,131.53,0,0,1,972.11,805l734.54,1.45a83.19,83.19,0,0,1,83.46,83.47c0,45.85-37.61,83.46-83.46,83.46L911.57,971.9v35.77l757.47,1.45c28.43,0,49.53,22,49.53,49.52a49.32,49.32,0,0,1-49.53,49.53l-757.47-1.45v35.77l746.47,1.45c72.45,0,132.07,59.62,132.07,132.07v4.59c0,72.45-59.62,133-132.07,133"/></g><path d="M3696.13,2821.24c-97.76,90.22-217.48,157.8-349,181.84-202.77,39.15-410.73-42.52-544.4-203.7l-6.74,5c218.11,344.8,672.28,342.17,957.46,80.77,37.58-34.46,74.37-71,107.3-110.33,43.65,14.21,93.77,18.24,148.91,8.19,220.91-41.47,377.8-245.9,417.29-458,22.84-135.75,3-275.28-48.7-402.55,633.34-329,353.84-1152.73-345.83-1081.05l.64,8.37c133.38,5.42,266.27,39.87,375.9,107.95,110.32,66.57,189.15,173.58,226.23,296,86.25,252.4-73.52,513.81-292.41,640.49l-18.68,10.92,9.69,17.65c138.15,245.48,88.71,568.85-149.17,732.64-76.66,58.69-191.35,85.11-281.08,63.09,42.53-62.8,73-133,80.8-213.73,4.41-63.41-19.1-143.33-82.36-177.58-69.08-41.79-157.77,6.3-184.55,75-55.54,131.92-22.69,258.93,63.74,329.51C3754,2763.88,3724.68,2793.94,3696.13,2821.24Zm72.34-297.68c2.42-46.67,21.1-120.49,68.08-128.44,46.27-2.69,64.25,60.84,59.36,104-6.42,63.24-35,123.46-73.34,178.68C3785.4,2645.06,3763.37,2594.75,3768.47,2523.56Z"/><path d="M3310.5,457.8c72.47,32,137.78,81.41,182.08,147.55,69.47,101.5,74.15,234.49,17.77,345.74l4.32,2.51c136.68-200.92,27.57-448.45-182.87-542.3-27.73-12.36-56.4-23.81-85.71-32.47-2.59-27.22-12.27-55.56-30.83-83.31-75-110.87-223.93-148.12-349.21-119.4-79.59,19.71-151.13,63.61-208.4,122-329.93-268-713.73,80-508.69,445.26l4.42-2.34c-28.65-74.16-41.34-154.94-30.13-231,10.21-76.06,50-144.5,108.09-193.79,117.47-107,298.18-81.64,419.29,7.93l10.39,7.62,7.35-9.48C2769.74,188.7,2958.15,139,3104,230.19c50.24,28,91.87,84.37,101.11,138.62-44.4-8.35-90-8.38-135.94,6.52-35.69,12.63-73.78,44.42-77.5,87.1-6.45,47.66,40.85,84.71,84.71,83.07,85.25-.93,146.86-49,164.93-112.95A686.47,686.47,0,0,1,3310.5,457.8Zm-179.8,31c-26.07,9.75-70.84,17-86.32-6.75-12.44-24.64,18-49.52,42.76-57.09,36.08-11.48,75.76-10.13,115-2.29C3193.07,450.79,3170.81,474.75,3130.7,488.84Z"/><path d="M568.6,2448c-75.45-62-136.65-142.32-167.35-235.52-48.87-143.55-10.38-303,93.41-416.46l-4.29-4.4C261.51,1985,309.09,2315.05,527.91,2496.19c28.84,23.87,59.09,47,91,66.95-6,33.18-3.84,70,9,109.14,52.38,156.51,216.84,250.06,375.12,257.45,101,3,200.54-25.48,287.9-75.9,303,427.57,874,141.44,751.52-360.25l-6,1.3c9.46,97.56-2.23,197.68-40.72,284.27-37.33,86.94-107.24,155-192.55,194.32-174.91,88.11-381.11-1.81-495.27-148.29l-9.81-12.48-11.87,8.82c-164.65,125.17-404.83,121.73-547.88-34.82-50.4-49.86-81.15-130.62-74.16-198.1,50,24.61,104.09,39.75,163.58,37.28,46.57-3.17,102.33-28.31,120.88-77.77,23.45-54.44-20.45-114.11-73.08-126.69-101.54-27.13-190.62,9.53-233.26,79.5A849.51,849.51,0,0,1,568.6,2448Zm223.8,22.68c34.18-2.93,89.76,3.23,100.26,36.6,6.61,33.38-37.79,52.85-69.68,53.64-46.65,1.69-93.32-13.06-137.34-35.38C705.73,2495.25,740.1,2474.17,792.4,2470.72Z"/></g></g></svg>