<svg xmlns="http://www.w3.org/2000/svg" viewBox="0 0 4855.36 3234.9"><defs><style>.cls-1{fill:none;}</style></defs><g id="Layer_2" data-name="Layer 2"><g id="Layer_1-2" data-name="Layer 1"><rect class="cls-1" width="4855.36" height="3234.9"/><polygon points="197.44 1198.8 856.38 1198.8 856.38 2149.58 526.91 2010.04 197.44 2149.58 197.44 1198.8"/><path d="M1421.52,2626.13h0c-48.42-44.25-136.57-44.25-185,0l-19.39,17.21c-19.77,18.07-46.17,18.07-65.94,0l-19.4-17.21c-48.42-44.25-136.57-44.25-185,0h0c-82.12,75.06-82.12,197.87,0,272.92h0l-.13.11,188.76,172.31c26.81,24.47,70.67,24.47,97.48,0l188.75-172.31-.13-.11h0C1503.65,2824,1503.65,2701.19,1421.52,2626.13Z"/><ellipse cx="4251.63" cy="1371.29" rx="428.67" ry="133.59" transform="translate(-211.95 1189.02) rotate(-15.54)"/><circle cx="2778.82" cy="292.19" r="160.78"/><path d="M4661.6,2802.84a38.71,38.71,0,0,0-35.21-38.54,38.7,38.7,0,1,0-40.63-49.47,38.7,38.7,0,0,0-74.25,0,38.7,38.7,0,0,0-74.25,0,38.7,38.7,0,0,0-74.25,0,38.7,38.7,0,0,0-74.25,0,38.7,38.7,0,0,0-74.25,0,38.7,38.7,0,0,0-74.25,0,38.7,38.7,0,0,0-74.25,0,38.7,38.7,0,0,0-74.25,0,38.7,38.7,0,0,0-74.25,0,38.71,38.71,0,1,0-40.63,49.47,38.7,38.7,0,0,0,0,77.08,38.7,38.7,0,0,0,0,77.08,38.71,38.71,0,1,0,40.63,49.47,38.69,38.69,0,0,0,74.25,0,38.69,38.69,0,0,0,74.25,0,38.69,38.69,0,0,0,74.25,0,38.69,38.69,0,0,0,74.25,0,38.69,38.69,0,0,0,74.25,0,38.69,38.69,0,0,0,74.25,0,38.69,38.69,0,0,0,74.25,0,38.69,38.69,0,0,0,74.25,0,38.69,38.69,0,0,0,74.25,0,38.71,38.71,0,1,0,40.63-49.47,38.7,38.7,0,0,0,0-77.08A38.7,38.7,0,0,0,4661.6,2802.84Z"/><path d="M2546.7,1742.21l-214.51-336.62-184.27,354.08,109.51-4.79c.79,100-19.3,255-143,318.31,0,0,306.68,73.67,318.23-326Z"/><path d="M3892.44,1993.68c46.81-84.79,13.41-161.77-74.75-186.14-23.71-92.42-104.68-129.81-194.39-83-87.25-46.81-166.24-11.45-190.32,78.83-90.27,24.07-125.64,103.06-78.83,190.31-46.81,87.25-11.44,166.23,78.83,190.31,24.08,90.27,103.07,125.64,190.32,78.83,92.69,46.81,176.06,6.89,199.21-88.17C3908.16,2150,3939.25,2075.48,3892.44,1993.68Z"/><circle cx="1270.93" cy="717.75" r="326.09"/><path d="M4248.53,612.31c-37.12-259.16-396.83-422-803.44-363.8s-706.15,315.52-669,574.68,396.83,422,803.43,363.81S4285.64,871.47,4248.53,612.31Z"/></g></g></svg>