<svg xmlns="http://www.w3.org/2000/svg" viewBox="0 0 3899 8443"><defs><style>.cls-1{fill:none;stroke:#ffda00;stroke-miterlimit:10;stroke-width:3px;}</style></defs><g id="Layer_2" data-name="Layer 2"><g id="Layer_1-2" data-name="Layer 1"><rect class="cls-1" x="3507.9" y="8057.86" width="389.6" height="383.64"/><rect class="cls-1" x="3118.3" y="8057.86" width="389.6" height="383.64"/><rect class="cls-1" x="2728.7" y="8057.86" width="389.6" height="383.64"/><rect class="cls-1" x="2339.1" y="8057.86" width="389.6" height="383.64"/><rect class="cls-1" x="1949.5" y="8057.86" width="389.6" height="383.64"/><rect class="cls-1" x="1559.9" y="8057.86" width="389.6" height="383.64"/><rect class="cls-1" x="1170.3" y="8057.86" width="389.6" height="383.64"/><rect class="cls-1" x="780.7" y="8057.86" width="389.6" height="383.64"/><rect class="cls-1" x="391.1" y="8057.86" width="389.6" height="383.64"/><rect class="cls-1" x="1.5" y="8057.86" width="389.6" height="383.64"/><rect class="cls-1" x="3507.9" y="7674.23" width="389.6" height="383.64"/><rect class="cls-1" x="3118.3" y="7674.23" width="389.6" height="383.64"/><rect class="cls-1" x="2728.7" y="7674.23" width="389.6" height="383.64"/><rect class="cls-1" x="2339.1" y="7674.23" width="389.6" height="383.64"/><rect class="cls-1" x="1949.5" y="7674.23" width="389.6" height="383.64"/><rect class="cls-1" x="1559.9" y="7674.23" width="389.6" height="383.64"/><rect class="cls-1" x="1170.3" y="7674.23" width="389.6" height="383.64"/><rect class="cls-1" x="780.7" y="7674.23" width="389.6" height="383.64"/><rect class="cls-1" x="391.1" y="7674.23" width="389.6" height="383.64"/><rect class="cls-1" x="1.5" y="7674.23" width="389.6" height="383.64"/><rect class="cls-1" x="3507.9" y="7290.59" width="389.6" height="383.64"/><rect class="cls-1" x="3118.3" y="7290.59" width="389.6" height="383.64"/><rect class="cls-1" x="2728.7" y="7290.59" width="389.6" height="383.64"/><rect class="cls-1" x="2339.1" y="7290.59" width="389.6" height="383.64"/><rect class="cls-1" x="1949.5" y="7290.59" width="389.6" height="383.64"/><rect class="cls-1" x="1559.9" y="7290.59" width="389.6" height="383.64"/><rect class="cls-1" x="1170.3" y="7290.59" width="389.6" height="383.64"/><rect class="cls-1" x="780.7" y="7290.59" width="389.6" height="383.64"/><rect class="cls-1" x="391.1" y="7290.59" width="389.6" height="383.64"/><rect class="cls-1" x="1.5" y="7290.59" width="389.6" height="383.64"/><rect class="cls-1" x="3507.9" y="6906.95" width="389.6" height="383.64"/><rect class="cls-1" x="3118.3" y="6906.95" width="389.6" height="383.64"/><rect class="cls-1" x="2728.7" y="6906.95" width="389.6" height="383.64"/><rect class="cls-1" x="2339.1" y="6906.95" width="389.6" height="383.64"/><rect class="cls-1" x="1949.5" y="6906.95" width="389.6" height="383.64"/><rect class="cls-1" x="1559.9" y="6906.95" width="389.6" height="383.64"/><rect class="cls-1" x="1170.3" y="6906.95" width="389.6" height="383.64"/><rect class="cls-1" x="780.7" y="6906.95" width="389.6" height="383.64"/><rect class="cls-1" x="391.1" y="6906.95" width="389.6" height="383.64"/><rect class="cls-1" x="1.5" y="6906.95" width="389.6" height="383.64"/><rect class="cls-1" x="3507.9" y="6523.32" width="389.6" height="383.64"/><rect class="cls-1" x="3118.3" y="6523.32" width="389.6" height="383.64"/><rect class="cls-1" x="2728.7" y="6523.32" width="389.6" height="383.64"/><rect class="cls-1" x="2339.1" y="6523.32" width="389.6" height="383.64"/><rect class="cls-1" x="1949.5" y="6523.32" width="389.6" height="383.64"/><rect class="cls-1" x="1559.9" y="6523.32" width="389.6" height="383.64"/><rect class="cls-1" x="1170.3" y="6523.32" width="389.6" height="383.64"/><rect class="cls-1" x="780.7" y="6523.32" width="389.6" height="383.64"/><rect class="cls-1" x="391.1" y="6523.32" width="389.6" height="383.64"/><rect class="cls-1" x="1.5" y="6523.32" width="389.6" height="383.64"/><rect class="cls-1" x="3507.9" y="6139.68" width="389.6" height="383.64"/><rect class="cls-1" x="3118.3" y="6139.68" width="389.6" height="383.64"/><rect class="cls-1" x="2728.7" y="6139.68" width="389.6" height="383.64"/><rect class="cls-1" x="2339.1" y="6139.68" width="389.6" height="383.64"/><rect class="cls-1" x="1949.5" y="6139.68" width="389.6" height="383.64"/><rect class="cls-1" x="1559.9" y="6139.68" width="389.6" height="383.64"/><rect class="cls-1" x="1170.3" y="6139.68" width="389.6" height="383.64"/><rect class="cls-1" x="780.7" y="6139.68" width="389.6" height="383.64"/><rect class="cls-1" x="391.1" y="6139.68" width="389.6" height="383.64"/><rect class="cls-1" x="1.5" y="6139.68" width="389.6" height="383.64"/><rect class="cls-1" x="3507.9" y="5756.05" width="389.6" height="383.64"/><rect class="cls-1" x="3118.3" y="5756.05" width="389.6" height="383.64"/><rect class="cls-1" x="2728.7" y="5756.05" width="389.6" height="383.64"/><rect class="cls-1" x="2339.1" y="5756.05" width="389.6" height="383.64"/><rect class="cls-1" x="1949.5" y="5756.05" width="389.6" height="383.64"/><rect class="cls-1" x="1559.9" y="5756.05" width="389.6" height="383.64"/><rect class="cls-1" x="1170.3" y="5756.05" width="389.6" height="383.64"/><rect class="cls-1" x="780.7" y="5756.05" width="389.6" height="383.64"/><rect class="cls-1" x="391.1" y="5756.05" width="389.6" height="383.64"/><rect class="cls-1" x="1.5" y="5756.05" width="389.6" height="383.64"/><rect class="cls-1" x="3507.9" y="5372.41" width="389.6" height="383.64"/><rect class="cls-1" x="3118.3" y="5372.41" width="389.6" height="383.64"/><rect class="cls-1" x="2728.7" y="5372.41" width="389.6" height="383.64"/><rect class="cls-1" x="2339.1" y="5372.41" width="389.6" height="383.64"/><rect class="cls-1" x="1949.5" y="5372.41" width="389.6" height="383.64"/><rect class="cls-1" x="1559.9" y="5372.41" width="389.6" height="383.64"/><rect class="cls-1" x="1170.3" y="5372.41" width="389.6" height="383.64"/><rect class="cls-1" x="780.7" y="5372.41" width="389.6" height="383.64"/><rect class="cls-1" x="391.1" y="5372.41" width="389.6" height="383.64"/><rect class="cls-1" x="1.5" y="5372.41" width="389.6" height="383.64"/><rect class="cls-1" x="3507.9" y="4988.77" width="389.6" height="383.64"/><rect class="cls-1" x="3118.3" y="4988.77" width="389.6" height="383.64"/><rect class="cls-1" x="2728.7" y="4988.77" width="389.6" height="383.64"/><rect class="cls-1" x="2339.1" y="4988.77" width="389.6" height="383.64"/><rect class="cls-1" x="1949.5" y="4988.77" width="389.6" height="383.64"/><rect class="cls-1" x="1559.9" y="4988.77" width="389.6" height="383.64"/><rect class="cls-1" x="1170.3" y="4988.77" width="389.6" height="383.64"/><rect class="cls-1" x="780.7" y="4988.77" width="389.6" height="383.64"/><rect class="cls-1" x="391.1" y="4988.77" width="389.6" height="383.64"/><rect class="cls-1" x="1.5" y="4988.77" width="389.6" height="383.64"/><rect class="cls-1" x="3507.9" y="4605.14" width="389.6" height="383.64"/><rect class="cls-1" x="3118.3" y="4605.14" width="389.6" height="383.64"/><rect class="cls-1" x="2728.7" y="4605.14" width="389.6" height="383.64"/><rect class="cls-1" x="2339.1" y="4605.14" width="389.6" height="383.64"/><rect class="cls-1" x="1949.5" y="4605.14" width="389.6" height="383.64"/><rect class="cls-1" x="1559.9" y="4605.14" width="389.6" height="383.64"/><rect class="cls-1" x="1170.3" y="4605.14" width="389.6" height="383.64"/><rect class="cls-1" x="780.7" y="4605.14" width="389.6" height="383.64"/><rect class="cls-1" x="391.1" y="4605.14" width="389.6" height="383.64"/><rect class="cls-1" x="1.5" y="4605.14" width="389.6" height="383.64"/><rect class="cls-1" x="3507.9" y="4221.5" width="389.6" height="383.64"/><rect class="cls-1" x="3118.3" y="4221.5" width="389.6" height="383.64"/><rect class="cls-1" x="2728.7" y="4221.5" width="389.6" height="383.64"/><rect class="cls-1" x="2339.1" y="4221.5" width="389.6" height="383.64"/><rect class="cls-1" x="1949.5" y="4221.5" width="389.6" height="383.64"/><rect class="cls-1" x="1559.9" y="4221.5" width="389.6" height="383.64"/><rect class="cls-1" x="1170.3" y="4221.5" width="389.6" height="383.64"/><rect class="cls-1" x="780.7" y="4221.5" width="389.6" height="383.64"/><rect class="cls-1" x="391.1" y="4221.5" width="389.6" height="383.64"/><rect class="cls-1" x="1.5" y="4221.5" width="389.6" height="383.64"/><rect class="cls-1" x="3507.9" y="3837.86" width="389.6" height="383.64"/><rect class="cls-1" x="3118.3" y="3837.86" width="389.6" height="383.64"/><rect class="cls-1" x="2728.7" y="3837.86" width="389.6" height="383.64"/><rect class="cls-1" x="2339.1" y="3837.86" width="389.6" height="383.64"/><rect class="cls-1" x="1949.5" y="3837.86" width="389.6" height="383.64"/><rect class="cls-1" x="1559.9" y="3837.86" width="389.6" height="383.64"/><rect class="cls-1" x="1170.3" y="3837.86" width="389.6" height="383.64"/><rect class="cls-1" x="780.7" y="3837.86" width="389.6" height="383.64"/><rect class="cls-1" x="391.1" y="3837.86" width="389.6" height="383.64"/><rect class="cls-1" x="1.5" y="3837.86" width="389.6" height="383.64"/><rect class="cls-1" x="3507.9" y="3454.23" width="389.6" height="383.64"/><rect class="cls-1" x="3118.3" y="3454.23" width="389.6" height="383.64"/><rect class="cls-1" x="2728.7" y="3454.23" width="389.6" height="383.64"/><rect class="cls-1" x="2339.1" y="3454.23" width="389.6" height="383.64"/><rect class="cls-1" x="1949.5" y="3454.23" width="389.6" height="383.64"/><rect class="cls-1" x="1559.9" y="3454.23" width="389.6" height="383.64"/><rect class="cls-1" x="1170.3" y="3454.23" width="389.6" height="383.64"/><rect class="cls-1" x="780.7" y="3454.23" width="389.6" height="383.64"/><rect class="cls-1" x="391.1" y="3454.23" width="389.6" height="383.64"/><rect class="cls-1" x="1.5" y="3454.23" width="389.6" height="383.64"/><rect class="cls-1" x="3507.9" y="3070.59" width="389.6" height="383.64"/><rect class="cls-1" x="3118.3" y="3070.59" width="389.6" height="383.64"/><rect class="cls-1" x="2728.7" y="3070.59" width="389.6" height="383.64"/><rect class="cls-1" x="2339.1" y="3070.59" width="389.6" height="383.64"/><rect class="cls-1" x="1949.5" y="3070.59" width="389.6" height="383.64"/><rect class="cls-1" x="1559.9" y="3070.59" width="389.6" height="383.64"/><rect class="cls-1" x="1170.3" y="3070.59" width="389.6" height="383.64"/><rect class="cls-1" x="780.7" y="3070.59" width="389.6" height="383.64"/><rect class="cls-1" x="391.1" y="3070.59" width="389.6" height="383.64"/><rect class="cls-1" x="1.5" y="3070.59" width="389.6" height="383.64"/><rect class="cls-1" x="3507.9" y="2686.95" width="389.6" height="383.64"/><rect class="cls-1" x="3118.3" y="2686.95" width="389.6" height="383.64"/><rect class="cls-1" x="2728.7" y="2686.95" width="389.6" height="383.64"/><rect class="cls-1" x="2339.1" y="2686.95" width="389.6" height="383.64"/><rect class="cls-1" x="1949.5" y="2686.95" width="389.6" height="383.64"/><rect class="cls-1" x="1559.9" y="2686.95" width="389.6" height="383.64"/><rect class="cls-1" x="1170.3" y="2686.95" width="389.6" height="383.64"/><rect class="cls-1" x="780.7" y="2686.95" width="389.6" height="383.64"/><rect class="cls-1" x="391.1" y="2686.95" width="389.6" height="383.64"/><rect class="cls-1" x="1.5" y="2686.95" width="389.6" height="383.64"/><rect class="cls-1" x="3507.9" y="2303.32" width="389.6" height="383.64"/><rect class="cls-1" x="3118.3" y="2303.32" width="389.6" height="383.64"/><rect class="cls-1" x="2728.7" y="2303.32" width="389.6" height="383.64"/><rect class="cls-1" x="2339.1" y="2303.32" width="389.6" height="383.64"/><rect class="cls-1" x="1949.5" y="2303.32" width="389.6" height="383.64"/><rect class="cls-1" x="1559.9" y="2303.32" width="389.6" height="383.64"/><rect class="cls-1" x="1170.3" y="2303.32" width="389.6" height="383.64"/><rect class="cls-1" x="780.7" y="2303.32" width="389.6" height="383.64"/><rect class="cls-1" x="391.1" y="2303.32" width="389.6" height="383.64"/><rect class="cls-1" x="1.5" y="2303.32" width="389.6" height="383.64"/><rect class="cls-1" x="3507.9" y="1919.68" width="389.6" height="383.64"/><rect class="cls-1" x="3118.3" y="1919.68" width="389.6" height="383.64"/><rect class="cls-1" x="2728.7" y="1919.68" width="389.6" height="383.64"/><rect class="cls-1" x="2339.1" y="1919.68" width="389.6" height="383.64"/><rect class="cls-1" x="1949.5" y="1919.68" width="389.6" height="383.64"/><rect class="cls-1" x="1559.9" y="1919.68" width="389.6" height="383.64"/><rect class="cls-1" x="1170.3" y="1919.68" width="389.6" height="383.64"/><rect class="cls-1" x="780.7" y="1919.68" width="389.6" height="383.64"/><rect class="cls-1" x="391.1" y="1919.68" width="389.6" height="383.64"/><rect class="cls-1" x="1.5" y="1919.68" width="389.6" height="383.64"/><rect class="cls-1" x="3507.9" y="1536.05" width="389.6" height="383.64"/><rect class="cls-1" x="3118.3" y="1536.05" width="389.6" height="383.64"/><rect class="cls-1" x="2728.7" y="1536.05" width="389.6" height="383.64"/><rect class="cls-1" x="2339.1" y="1536.05" width="389.6" height="383.64"/><rect class="cls-1" x="1949.5" y="1536.05" width="389.6" height="383.64"/><rect class="cls-1" x="1559.9" y="1536.05" width="389.6" height="383.64"/><rect class="cls-1" x="1170.3" y="1536.05" width="389.6" height="383.64"/><rect class="cls-1" x="780.7" y="1536.05" width="389.6" height="383.64"/><rect class="cls-1" x="391.1" y="1536.05" width="389.6" height="383.64"/><rect class="cls-1" x="1.5" y="1536.05" width="389.6" height="383.64"/><rect class="cls-1" x="3507.9" y="1152.41" width="389.6" height="383.64"/><rect class="cls-1" x="3118.3" y="1152.41" width="389.6" height="383.64"/><rect class="cls-1" x="2728.7" y="1152.41" width="389.6" height="383.64"/><rect class="cls-1" x="2339.1" y="1152.41" width="389.6" height="383.64"/><rect class="cls-1" x="1949.5" y="1152.41" width="389.6" height="383.64"/><rect class="cls-1" x="1559.9" y="1152.41" width="389.6" height="383.64"/><rect class="cls-1" x="1170.3" y="1152.41" width="389.6" height="383.64"/><rect class="cls-1" x="780.7" y="1152.41" width="389.6" height="383.64"/><rect class="cls-1" x="391.1" y="1152.41" width="389.6" height="383.64"/><rect class="cls-1" x="1.5" y="1152.41" width="389.6" height="383.64"/><rect class="cls-1" x="3507.9" y="768.77" width="389.6" height="383.64"/><rect class="cls-1" x="3118.3" y="768.77" width="389.6" height="383.64"/><rect class="cls-1" x="2728.7" y="768.77" width="389.6" height="383.64"/><rect class="cls-1" x="2339.1" y="768.77" width="389.6" height="383.64"/><rect class="cls-1" x="1949.5" y="768.77" width="389.6" height="383.64"/><rect class="cls-1" x="1559.9" y="768.77" width="389.6" height="383.64"/><rect class="cls-1" x="1170.3" y="768.77" width="389.6" height="383.64"/><rect class="cls-1" x="780.7" y="768.77" width="389.6" height="383.64"/><rect class="cls-1" x="391.1" y="768.77" width="389.6" height="383.64"/><rect class="cls-1" x="1.5" y="768.77" width="389.6" height="383.64"/><rect class="cls-1" x="3507.9" y="385.14" width="389.6" height="383.64"/><rect class="cls-1" x="3118.3" y="385.14" width="389.6" height="383.64"/><rect class="cls-1" x="2728.7" y="385.14" width="389.6" height="383.64"/><rect class="cls-1" x="2339.1" y="385.14" width="389.6" height="383.64"/><rect class="cls-1" x="1949.5" y="385.14" width="389.6" height="383.64"/><rect class="cls-1" x="1559.9" y="385.14" width="389.6" height="383.64"/><rect class="cls-1" x="1170.3" y="385.14" width="389.6" height="383.64"/><rect class="cls-1" x="780.7" y="385.14" width="389.6" height="383.64"/><rect class="cls-1" x="391.1" y="385.14" width="389.6" height="383.64"/><rect class="cls-1" x="1.5" y="385.14" width="389.6" height="383.64"/><rect class="cls-1" x="3507.9" y="1.5" width="389.6" height="383.64"/><rect class="cls-1" x="3118.3" y="1.5" width="389.6" height="383.64"/><rect class="cls-1" x="2728.7" y="1.5" width="389.6" height="383.64"/><rect class="cls-1" x="2339.1" y="1.5" width="389.6" height="383.64"/><rect class="cls-1" x="1949.5" y="1.5" width="389.6" height="383.64"/><rect class="cls-1" x="1559.9" y="1.5" width="389.6" height="383.64"/><rect class="cls-1" x="1170.3" y="1.5" width="389.6" height="383.64"/><rect class="cls-1" x="780.7" y="1.5" width="389.6" height="383.64"/><rect class="cls-1" x="391.1" y="1.5" width="389.6" height="383.64"/><rect class="cls-1" x="1.5" y="1.5" width="389.6" height="383.64"/><path d="M292.58,7520H751.27v290.9H410.73c-41.7,0-76.45,34.75-76.45,77.44v249.2h-41.7ZM409.73,7773.2H636.1c42.69,0,77.44-34.75,77.44-76.45v-60.56a76.91,76.91,0,0,0-77.44-77.44H409.73c-41.7,0-76.44,33.76-76.44,77.44v60.56C333.29,7738.45,368,7773.2,409.73,7773.2Z"/><path d="M897.21,7821.85v222.39a55.51,55.51,0,0,0,55.6,55.6h1v37.73H800.91v-37.73a55.51,55.51,0,0,0,55.6-55.6V7821.85a55.51,55.51,0,0,0-55.6-55.6v-37.73h152.9v37.73h-1A55.51,55.51,0,0,0,897.21,7821.85Zm-77.43-319.69H934V7660H819.78Zm57.58,120.13c9.93,0,18.86-8.93,18.86-19.85v-43.69c0-9.93-8.93-18.86-18.86-18.86a18.85,18.85,0,0,0-18.87,18.86v43.69C858.49,7613.36,866.44,7622.29,877.36,7622.29Z"/><path d="M1137.47,7636.19v103.26h-20.85c-30.78,0-55.6,24.82-55.6,54.6V7912.2a77.54,77.54,0,0,0,77.44,77.44v31.77a77.54,77.54,0,0,0,77.45,77.44h270v38.72H1099.74V8028.36H1023.3V7700.72h76.44V7520H1486v38.72h-271A77.54,77.54,0,0,0,1137.47,7636.19Z"/><path d="M1862.23,7884.4H1643.81a77.53,77.53,0,0,0-77.44,77.44v175.73h-40.71V7520h40.71v173.75a77.53,77.53,0,0,0,77.44,77.44h37.72a55.51,55.51,0,0,0,55.6-55.6v-16.88h122.12a55.51,55.51,0,0,0,55.6-55.6V7521h38.72v216.44H1775.85v72.48H1581.26c-8.94,0-16.88,7.94-16.88,17.87s7.94,17.87,16.88,17.87h399.11v291.89h-40.7V7961.84A77.54,77.54,0,0,0,1862.23,7884.4Z"/><path d="M2869,8137.57h-42.69V7636.19a77.54,77.54,0,0,0-77.44-77.44h-89.36c-42.69,0-76.45,34.75-76.45,77.44v501.38h-41.7v-512.3a66.52,66.52,0,0,0-66.51-66.52h-3c-35.74,0-65.53,29.79-65.53,66.52v114.18h-38.72a77.53,77.53,0,0,0-77.44,77.44v320.68h-41.7V7700.72h119.14V7520l501.38,1Z"/><path d="M3009.94,7630.23a69.07,69.07,0,0,0,69.5,69.5h276v40.71h-263.1a77.54,77.54,0,0,0-77.44,77.44v198.56a77.54,77.54,0,0,0,77.44,77.45h342.53v43.68H2968.24V7522l3-2h463.65v40.71H3079.44A69.07,69.07,0,0,0,3009.94,7630.23Z"/><path d="M3489.48,7980.7l113.18,1v155.88H3489.48Zm34.75-478.54h43.68v409h-43.68Zm21.84,597.68c9.92,0,18.86-8.93,18.86-18.86v-43.69a18.87,18.87,0,0,0-37.73,0V8081C3527.2,8090.91,3536.14,8099.84,3546.07,8099.84Z"/></g></g></svg>