<svg xmlns="http://www.w3.org/2000/svg" viewBox="0 0 3899 8443"><defs><style>.cls-1{fill:none;stroke:red;stroke-miterlimit:10;stroke-width:3px;}</style></defs><g id="Layer_2" data-name="Layer 2"><g id="Layer_1-2" data-name="Layer 1"><rect class="cls-1" x="3507.9" y="8057.86" width="389.6" height="383.64"/><rect class="cls-1" x="3118.3" y="8057.86" width="389.6" height="383.64"/><rect class="cls-1" x="2728.7" y="8057.86" width="389.6" height="383.64"/><rect class="cls-1" x="2339.1" y="8057.86" width="389.6" height="383.64"/><rect class="cls-1" x="1949.5" y="8057.86" width="389.6" height="383.64"/><rect class="cls-1" x="1559.9" y="8057.86" width="389.6" height="383.64"/><rect class="cls-1" x="1170.3" y="8057.86" width="389.6" height="383.64"/><rect class="cls-1" x="780.7" y="8057.86" width="389.6" height="383.64"/><rect class="cls-1" x="391.1" y="8057.86" width="389.6" height="383.64"/><rect class="cls-1" x="1.5" y="8057.86" width="389.6" height="383.64"/><rect class="cls-1" x="3507.9" y="7674.23" width="389.6" height="383.64"/><rect class="cls-1" x="3118.3" y="7674.23" width="389.6" height="383.64"/><rect class="cls-1" x="2728.7" y="7674.23" width="389.6" height="383.64"/><rect class="cls-1" x="2339.1" y="7674.23" width="389.6" height="383.64"/><rect class="cls-1" x="1949.5" y="7674.23" width="389.6" height="383.64"/><rect class="cls-1" x="1559.9" y="7674.23" width="389.6" height="383.64"/><rect class="cls-1" x="1170.3" y="7674.23" width="389.6" height="383.64"/><rect class="cls-1" x="780.7" y="7674.23" width="389.6" height="383.64"/><rect class="cls-1" x="391.1" y="7674.23" width="389.6" height="383.64"/><rect class="cls-1" x="1.5" y="7674.23" width="389.6" height="383.64"/><rect class="cls-1" x="3507.9" y="7290.59" width="389.6" height="383.64"/><rect class="cls-1" x="3118.3" y="7290.59" width="389.6" height="383.64"/><rect class="cls-1" x="2728.7" y="7290.59" width="389.6" height="383.64"/><rect class="cls-1" x="2339.1" y="7290.59" width="389.6" height="383.64"/><rect class="cls-1" x="1949.5" y="7290.59" width="389.6" height="383.64"/><rect class="cls-1" x="1559.9" y="7290.59" width="389.6" height="383.64"/><rect class="cls-1" x="1170.3" y="7290.59" width="389.6" height="383.64"/><rect class="cls-1" x="780.7" y="7290.59" width="389.6" height="383.64"/><rect class="cls-1" x="391.1" y="7290.59" width="389.6" height="383.64"/><rect class="cls-1" x="1.5" y="7290.59" width="389.6" height="383.64"/><rect class="cls-1" x="3507.9" y="6906.95" width="389.6" height="383.64"/><rect class="cls-1" x="3118.3" y="6906.95" width="389.6" height="383.64"/><rect class="cls-1" x="2728.7" y="6906.95" width="389.6" height="383.64"/><rect class="cls-1" x="2339.1" y="6906.95" width="389.6" height="383.64"/><rect class="cls-1" x="1949.5" y="6906.95" width="389.6" height="383.64"/><rect class="cls-1" x="1559.9" y="6906.95" width="389.6" height="383.64"/><rect class="cls-1" x="1170.3" y="6906.95" width="389.6" height="383.64"/><rect class="cls-1" x="780.7" y="6906.95" width="389.6" height="383.64"/><rect class="cls-1" x="391.1" y="6906.95" width="389.6" height="383.64"/><rect class="cls-1" x="1.5" y="6906.95" width="389.6" height="383.64"/><rect class="cls-1" x="3507.9" y="6523.32" width="389.6" height="383.64"/><rect class="cls-1" x="3118.3" y="6523.32" width="389.6" height="383.64"/><rect class="cls-1" x="2728.7" y="6523.32" width="389.6" height="383.64"/><rect class="cls-1" x="2339.1" y="6523.32" width="389.6" height="383.64"/><rect class="cls-1" x="1949.5" y="6523.32" width="389.6" height="383.64"/><rect class="cls-1" x="1559.9" y="6523.32" width="389.6" height="383.64"/><rect class="cls-1" x="1170.3" y="6523.32" width="389.6" height="383.64"/><rect class="cls-1" x="780.7" y="6523.32" width="389.6" height="383.64"/><rect class="cls-1" x="391.1" y="6523.32" width="389.6" height="383.64"/><rect class="cls-1" x="1.5" y="6523.32" width="389.6" height="383.64"/><rect class="cls-1" x="3507.9" y="6139.68" width="389.6" height="383.64"/><rect class="cls-1" x="3118.3" y="6139.68" width="389.6" height="383.64"/><rect class="cls-1" x="2728.7" y="6139.68" width="389.6" height="383.64"/><rect class="cls-1" x="2339.1" y="6139.68" width="389.6" height="383.64"/><rect class="cls-1" x="1949.5" y="6139.68" width="389.6" height="383.64"/><rect class="cls-1" x="1559.9" y="6139.68" width="389.6" height="383.64"/><rect class="cls-1" x="1170.3" y="6139.68" width="389.6" height="383.64"/><rect class="cls-1" x="780.7" y="6139.68" width="389.6" height="383.64"/><rect class="cls-1" x="391.1" y="6139.68" width="389.6" height="383.64"/><rect class="cls-1" x="1.5" y="6139.68" width="389.6" height="383.64"/><rect class="cls-1" x="3507.9" y="5756.05" width="389.6" height="383.64"/><rect class="cls-1" x="3118.3" y="5756.05" width="389.6" height="383.64"/><rect class="cls-1" x="2728.7" y="5756.05" width="389.6" height="383.64"/><rect class="cls-1" x="2339.1" y="5756.05" width="389.6" height="383.64"/><rect class="cls-1" x="1949.5" y="5756.05" width="389.6" height="383.64"/><rect class="cls-1" x="1559.9" y="5756.05" width="389.6" height="383.64"/><rect class="cls-1" x="1170.3" y="5756.05" width="389.6" height="383.64"/><rect class="cls-1" x="780.7" y="5756.05" width="389.6" height="383.64"/><rect class="cls-1" x="391.1" y="5756.05" width="389.6" height="383.64"/><rect class="cls-1" x="1.5" y="5756.05" width="389.6" height="383.64"/><rect class="cls-1" x="3507.9" y="5372.41" width="389.6" height="383.64"/><rect class="cls-1" x="3118.3" y="5372.41" width="389.6" height="383.64"/><rect class="cls-1" x="2728.7" y="5372.41" width="389.6" height="383.64"/><rect class="cls-1" x="2339.1" y="5372.41" width="389.6" height="383.64"/><rect class="cls-1" x="1949.5" y="5372.41" width="389.6" height="383.64"/><rect class="cls-1" x="1559.9" y="5372.41" width="389.6" height="383.64"/><rect class="cls-1" x="1170.3" y="5372.41" width="389.6" height="383.64"/><rect class="cls-1" x="780.7" y="5372.41" width="389.6" height="383.64"/><rect class="cls-1" x="391.1" y="5372.41" width="389.6" height="383.64"/><rect class="cls-1" x="1.5" y="5372.41" width="389.6" height="383.64"/><rect class="cls-1" x="3507.9" y="4988.77" width="389.6" height="383.64"/><rect class="cls-1" x="3118.3" y="4988.77" width="389.6" height="383.64"/><rect class="cls-1" x="2728.7" y="4988.77" width="389.6" height="383.64"/><rect class="cls-1" x="2339.1" y="4988.77" width="389.6" height="383.64"/><rect class="cls-1" x="1949.5" y="4988.77" width="389.6" height="383.64"/><rect class="cls-1" x="1559.9" y="4988.77" width="389.6" height="383.64"/><rect class="cls-1" x="1170.3" y="4988.77" width="389.6" height="383.64"/><rect class="cls-1" x="780.7" y="4988.77" width="389.6" height="383.64"/><rect class="cls-1" x="391.1" y="4988.77" width="389.6" height="383.64"/><rect class="cls-1" x="1.5" y="4988.77" width="389.6" height="383.64"/><rect class="cls-1" x="3507.9" y="4605.14" width="389.6" height="383.64"/><rect class="cls-1" x="3118.3" y="4605.14" width="389.6" height="383.64"/><rect class="cls-1" x="2728.7" y="4605.14" width="389.6" height="383.64"/><rect class="cls-1" x="2339.1" y="4605.14" width="389.6" height="383.64"/><rect class="cls-1" x="1949.5" y="4605.14" width="389.6" height="383.64"/><rect class="cls-1" x="1559.9" y="4605.14" width="389.6" height="383.64"/><rect class="cls-1" x="1170.3" y="4605.14" width="389.6" height="383.64"/><rect class="cls-1" x="780.7" y="4605.14" width="389.6" height="383.64"/><rect class="cls-1" x="391.1" y="4605.14" width="389.6" height="383.64"/><rect class="cls-1" x="1.5" y="4605.14" width="389.6" height="383.64"/><rect class="cls-1" x="3507.9" y="4221.5" width="389.6" height="383.64"/><rect class="cls-1" x="3118.3" y="4221.5" width="389.6" height="383.64"/><rect class="cls-1" x="2728.7" y="4221.5" width="389.6" height="383.64"/><rect class="cls-1" x="2339.1" y="4221.5" width="389.6" height="383.64"/><rect class="cls-1" x="1949.5" y="4221.5" width="389.6" height="383.64"/><rect class="cls-1" x="1559.9" y="4221.5" width="389.6" height="383.64"/><rect class="cls-1" x="1170.3" y="4221.5" width="389.6" height="383.64"/><rect class="cls-1" x="780.7" y="4221.5" width="389.6" height="383.64"/><rect class="cls-1" x="391.1" y="4221.5" width="389.6" height="383.64"/><rect class="cls-1" x="1.5" y="4221.5" width="389.6" height="383.64"/><rect class="cls-1" x="3507.9" y="3837.86" width="389.6" height="383.64"/><rect class="cls-1" x="3118.3" y="3837.86" width="389.6" height="383.64"/><rect class="cls-1" x="2728.7" y="3837.86" width="389.6" height="383.64"/><rect class="cls-1" x="2339.1" y="3837.86" width="389.6" height="383.64"/><rect class="cls-1" x="1949.5" y="3837.86" width="389.6" height="383.64"/><rect class="cls-1" x="1559.9" y="3837.86" width="389.6" height="383.64"/><rect class="cls-1" x="1170.3" y="3837.86" width="389.6" height="383.64"/><rect class="cls-1" x="780.7" y="3837.86" width="389.6" height="383.64"/><rect class="cls-1" x="391.1" y="3837.86" width="389.6" height="383.64"/><rect class="cls-1" x="1.5" y="3837.86" width="389.6" height="383.64"/><rect class="cls-1" x="3507.9" y="3454.23" width="389.6" height="383.64"/><rect class="cls-1" x="3118.3" y="3454.23" width="389.6" height="383.64"/><rect class="cls-1" x="2728.7" y="3454.23" width="389.6" height="383.64"/><rect class="cls-1" x="2339.1" y="3454.23" width="389.6" height="383.64"/><rect class="cls-1" x="1949.5" y="3454.23" width="389.6" height="383.64"/><rect class="cls-1" x="1559.9" y="3454.23" width="389.6" height="383.64"/><rect class="cls-1" x="1170.3" y="3454.23" width="389.6" height="383.64"/><rect class="cls-1" x="780.7" y="3454.23" width="389.6" height="383.64"/><rect class="cls-1" x="391.1" y="3454.23" width="389.6" height="383.64"/><rect class="cls-1" x="1.5" y="3454.23" width="389.6" height="383.64"/><rect class="cls-1" x="3507.9" y="3070.59" width="389.6" height="383.64"/><rect class="cls-1" x="3118.3" y="3070.59" width="389.6" height="383.64"/><rect class="cls-1" x="2728.7" y="3070.59" width="389.6" height="383.64"/><rect class="cls-1" x="2339.1" y="3070.59" width="389.6" height="383.64"/><rect class="cls-1" x="1949.5" y="3070.59" width="389.6" height="383.64"/><rect class="cls-1" x="1559.9" y="3070.59" width="389.6" height="383.64"/><rect class="cls-1" x="1170.3" y="3070.59" width="389.6" height="383.64"/><rect class="cls-1" x="780.7" y="3070.59" width="389.6" height="383.64"/><rect class="cls-1" x="391.1" y="3070.59" width="389.6" height="383.64"/><rect class="cls-1" x="1.5" y="3070.59" width="389.6" height="383.64"/><rect class="cls-1" x="3507.9" y="2686.95" width="389.6" height="383.64"/><rect class="cls-1" x="3118.3" y="2686.95" width="389.6" height="383.64"/><rect class="cls-1" x="2728.7" y="2686.95" width="389.6" height="383.64"/><rect class="cls-1" x="2339.1" y="2686.95" width="389.6" height="383.64"/><rect class="cls-1" x="1949.5" y="2686.95" width="389.6" height="383.64"/><rect class="cls-1" x="1559.9" y="2686.95" width="389.6" height="383.64"/><rect class="cls-1" x="1170.3" y="2686.95" width="389.6" height="383.64"/><rect class="cls-1" x="780.7" y="2686.95" width="389.6" height="383.64"/><rect class="cls-1" x="391.1" y="2686.95" width="389.6" height="383.64"/><rect class="cls-1" x="1.5" y="2686.95" width="389.6" height="383.64"/><rect class="cls-1" x="3507.9" y="2303.32" width="389.6" height="383.64"/><rect class="cls-1" x="3118.3" y="2303.32" width="389.6" height="383.64"/><rect class="cls-1" x="2728.7" y="2303.32" width="389.6" height="383.64"/><rect class="cls-1" x="2339.1" y="2303.32" width="389.6" height="383.64"/><rect class="cls-1" x="1949.5" y="2303.32" width="389.6" height="383.64"/><rect class="cls-1" x="1559.9" y="2303.32" width="389.6" height="383.64"/><rect class="cls-1" x="1170.3" y="2303.32" width="389.6" height="383.64"/><rect class="cls-1" x="780.7" y="2303.32" width="389.6" height="383.64"/><rect class="cls-1" x="391.1" y="2303.32" width="389.6" height="383.64"/><rect class="cls-1" x="1.5" y="2303.32" width="389.6" height="383.64"/><rect class="cls-1" x="3507.9" y="1919.68" width="389.6" height="383.64"/><rect class="cls-1" x="3118.3" y="1919.68" width="389.6" height="383.64"/><rect class="cls-1" x="2728.7" y="1919.68" width="389.6" height="383.64"/><rect class="cls-1" x="2339.1" y="1919.68" width="389.6" height="383.64"/><rect class="cls-1" x="1949.5" y="1919.68" width="389.6" height="383.64"/><rect class="cls-1" x="1559.9" y="1919.68" width="389.6" height="383.64"/><rect class="cls-1" x="1170.3" y="1919.68" width="389.6" height="383.64"/><rect class="cls-1" x="780.7" y="1919.68" width="389.6" height="383.64"/><rect class="cls-1" x="391.1" y="1919.68" width="389.6" height="383.64"/><rect class="cls-1" x="1.5" y="1919.68" width="389.6" height="383.64"/><rect class="cls-1" x="3507.9" y="1536.05" width="389.6" height="383.64"/><rect class="cls-1" x="3118.3" y="1536.05" width="389.6" height="383.64"/><rect class="cls-1" x="2728.7" y="1536.05" width="389.6" height="383.64"/><rect class="cls-1" x="2339.1" y="1536.05" width="389.6" height="383.64"/><rect class="cls-1" x="1949.5" y="1536.05" width="389.6" height="383.64"/><rect class="cls-1" x="1559.9" y="1536.05" width="389.6" height="383.64"/><rect class="cls-1" x="1170.3" y="1536.05" width="389.6" height="383.64"/><rect class="cls-1" x="780.7" y="1536.05" width="389.6" height="383.64"/><rect class="cls-1" x="391.1" y="1536.05" width="389.6" height="383.64"/><rect class="cls-1" x="1.5" y="1536.05" width="389.6" height="383.64"/><rect class="cls-1" x="3507.9" y="1152.41" width="389.6" height="383.64"/><rect class="cls-1" x="3118.3" y="1152.41" width="389.6" height="383.64"/><rect class="cls-1" x="2728.7" y="1152.41" width="389.6" height="383.64"/><rect class="cls-1" x="2339.1" y="1152.41" width="389.6" height="383.64"/><rect class="cls-1" x="1949.5" y="1152.41" width="389.6" height="383.64"/><rect class="cls-1" x="1559.9" y="1152.41" width="389.6" height="383.64"/><rect class="cls-1" x="1170.3" y="1152.41" width="389.6" height="383.64"/><rect class="cls-1" x="780.7" y="1152.41" width="389.6" height="383.64"/><rect class="cls-1" x="391.1" y="1152.41" width="389.6" height="383.64"/><rect class="cls-1" x="1.5" y="1152.41" width="389.6" height="383.64"/><rect class="cls-1" x="3507.9" y="768.77" width="389.6" height="383.64"/><rect class="cls-1" x="3118.3" y="768.77" width="389.6" height="383.64"/><rect class="cls-1" x="2728.7" y="768.77" width="389.6" height="383.64"/><rect class="cls-1" x="2339.1" y="768.77" width="389.6" height="383.64"/><rect class="cls-1" x="1949.5" y="768.77" width="389.6" height="383.64"/><rect class="cls-1" x="1559.9" y="768.77" width="389.6" height="383.64"/><rect class="cls-1" x="1170.3" y="768.77" width="389.6" height="383.64"/><rect class="cls-1" x="780.7" y="768.77" width="389.6" height="383.64"/><rect class="cls-1" x="391.1" y="768.77" width="389.6" height="383.64"/><rect class="cls-1" x="1.5" y="768.77" width="389.6" height="383.64"/><rect class="cls-1" x="3507.9" y="385.14" width="389.6" height="383.64"/><rect class="cls-1" x="3118.3" y="385.14" width="389.6" height="383.64"/><rect class="cls-1" x="2728.7" y="385.14" width="389.6" height="383.64"/><rect class="cls-1" x="2339.1" y="385.14" width="389.6" height="383.64"/><rect class="cls-1" x="1949.5" y="385.14" width="389.6" height="383.64"/><rect class="cls-1" x="1559.9" y="385.14" width="389.6" height="383.64"/><rect class="cls-1" x="1170.3" y="385.14" width="389.6" height="383.64"/><rect class="cls-1" x="780.7" y="385.14" width="389.6" height="383.64"/><rect class="cls-1" x="391.1" y="385.14" width="389.6" height="383.64"/><rect class="cls-1" x="1.5" y="385.14" width="389.6" height="383.64"/><rect class="cls-1" x="3507.9" y="1.5" width="389.6" height="383.64"/><rect class="cls-1" x="3118.3" y="1.5" width="389.6" height="383.64"/><rect class="cls-1" x="2728.7" y="1.5" width="389.6" height="383.64"/><rect class="cls-1" x="2339.1" y="1.5" width="389.6" height="383.64"/><rect class="cls-1" x="1949.5" y="1.5" width="389.6" height="383.64"/><rect class="cls-1" x="1559.9" y="1.5" width="389.6" height="383.64"/><rect class="cls-1" x="1170.3" y="1.5" width="389.6" height="383.64"/><rect class="cls-1" x="780.7" y="1.5" width="389.6" height="383.64"/><rect class="cls-1" x="391.1" y="1.5" width="389.6" height="383.64"/><rect class="cls-1" x="1.5" y="1.5" width="389.6" height="383.64"/></g></g></svg>