<svg xmlns="http://www.w3.org/2000/svg" xmlns:xlink="http://www.w3.org/1999/xlink" viewBox="0 0 1778.42 1490.65"><defs><style>.cls-1{fill:none;}.cls-2{clip-path:url(#clip-path);}</style><clipPath id="clip-path"><rect class="cls-1" x="108.9" y="111.91" width="1560.62" height="1266.83"/></clipPath></defs><g id="Layer_2" data-name="Layer 2"><g id="Layer_1-2" data-name="Layer 1"><g class="cls-2"><path d="M395.05,300.22H182.27V336H395.05ZM241,134.21H397.8c72.45,0,131.15,59.62,131.15,132.07v38.53c0,72.45-58.7,132.07-131.15,132.07H251.05v34.85h1.84a71.64,71.64,0,0,1,71.54,71.54v90.8A105.49,105.49,0,0,1,219,739.54h-3.67A104.9,104.9,0,0,1,109.81,634.07V266.28c0-72.45,58.7-132.07,131.15-132.07"/><path d="M547.28,463.18c0-58.69,46.78-106.38,105.48-106.38A105.88,105.88,0,0,1,759.15,463.18V634.69a105.89,105.89,0,0,1-106.39,106.4c-58.7,0-105.48-47.7-105.48-106.4ZM542.7,222A109.8,109.8,0,0,1,652.76,111.91c62.36,0,111,49.53,111,110.06,0,62.37-48.61,111.89-111,111.89-61.45,0-110.06-49.52-110.06-111.89"/><path d="M785.4,578.75V398.07a61.45,61.45,0,0,1,61.45-61.45h10.09V267.83A131.52,131.52,0,0,1,989,135.76h92.64c72.45,0,131.15,58.7,131.15,132.07v21.09c0,72.46-58.7,132.08-131.15,132.08H856.94v34.85h224.71c72.45,0,131.15,59.61,131.15,132.07V609c0,72.46-58.7,132.08-131.15,132.08H957.83c-56,0-100.89-45.86-100.89-100.89H846.85a61.46,61.46,0,0,1-61.45-61.45"/><path d="M1241.21,643V233c0-54.12,44-97.22,98.13-97.22s98.14,43.1,98.14,97.22V336.61h35.77V233c0-54.12,44-97.22,98.14-97.22s98.13,43.1,98.13,97.22v73.37c0,72.46-59.61,132.07-132.07,132.07h-81.63v34.85h81.63c72.46,0,132.07,59.62,132.07,132.07V643a98.14,98.14,0,0,1-196.27,0V550.32h-35.77V643a98.14,98.14,0,0,1-196.27,0"/><path d="M108.9,1275.07V1057.78c0-51.07,41.78-92.86,92.85-92.86h44.57V895.28A133.15,133.15,0,0,1,380,761.57H552.75c73.36,0,133.72,59.42,133.72,133.71v379.79a99.36,99.36,0,0,1-198.72,0V964.92H451.54v347.29c0,30.64-24.14,54.78-53.86,54.78s-53.86-24.14-53.86-54.78V964.92H307.61v310.15a99.36,99.36,0,0,1-198.71,0"/><path d="M1537.1,1378.74l-685.93-1.45c-73.37,0-132.07-60.53-132.07-133V902.2A131.52,131.52,0,0,1,851.17,770.13l734.54,1.45A83.18,83.18,0,0,1,1669.17,855c0,45.86-37.61,83.46-83.46,83.46l-795.07-1.45v35.77l757.46,1.45c28.44,0,49.53,22,49.53,49.53a49.32,49.32,0,0,1-49.53,49.52l-757.46-1.45v35.77l746.46,1.45c72.45,0,132.07,59.62,132.07,132.07v4.59c0,72.46-59.62,133-132.07,133"/></g><rect class="cls-1" width="1778.42" height="1490.65"/></g></g></svg>