<svg xmlns="http://www.w3.org/2000/svg" viewBox="0 0 2731.81 1697.79"><defs><style>.cls-1{fill:#fff;}.cls-2,.cls-3{fill:none;stroke:#1d1d1b;stroke-miterlimit:10;}.cls-2{stroke-width:2.41px;}.cls-3{stroke-width:1.96px;}</style></defs><g id="Layer_2" data-name="Layer 2"><g id="Layer_1-2" data-name="Layer 1"><rect class="cls-1" width="2730.48" height="1697.79"/><line class="cls-2" y1="848.9" x2="2731.81" y2="848.9"/><line class="cls-2" x1="477.83" x2="477.83" y2="848.9"/><line class="cls-2" x1="944.94" x2="944.94" y2="848.9"/><line class="cls-2" x1="1396.85" x2="1396.85" y2="848.9"/><line class="cls-2" x1="547.12" y1="848.9" x2="547.12" y2="1697.79"/><line class="cls-2" x1="1093.46" y1="848.9" x2="1093.46" y2="1697.79"/><line class="cls-2" x1="1645.77" y1="848.9" x2="1645.77" y2="1697.79"/><line class="cls-2" x1="2241.88" y1="848.9" x2="2241.88" y2="1697.79"/><line class="cls-3" x1="1854.37" y1="287.54" x2="1854.37" y2="848.9"/><line class="cls-3" x1="2291.88" y1="287.54" x2="2291.88" y2="848.9"/><line class="cls-2" x1="2241.88" y1="1252.69" x2="1645.77" y2="1252.69"/><path d="M1732.39,120.86h92.39v58.6h-68.59a15.58,15.58,0,0,0-15.4,15.6v50.2h-8.4Zm23.6,51h45.6a15.58,15.58,0,0,0,15.6-15.4v-12.2a15.49,15.49,0,0,0-15.6-15.6H1756a15.45,15.45,0,0,0-15.4,15.6v12.2A15.54,15.54,0,0,0,1756,171.86Z"/><path d="M1854.19,181.66v44.8a11.18,11.18,0,0,0,11.2,11.2h.2v7.6h-30.8v-7.6a11.17,11.17,0,0,0,11.19-11.2v-44.8a11.17,11.17,0,0,0-11.19-11.2v-7.6h30.8v7.6h-.2A11.18,11.18,0,0,0,1854.19,181.66Zm-15.6-64.4h23v31.8h-23Zm11.6,24.2a4,4,0,0,0,3.79-4v-8.8a3.92,3.92,0,0,0-3.79-3.8,3.79,3.79,0,0,0-3.8,3.8v8.8A3.84,3.84,0,0,0,1850.19,141.46Z"/><path d="M1902.58,144.26v20.8h-4.2a11.14,11.14,0,0,0-11.2,11v23.8a15.62,15.62,0,0,0,15.6,15.6v6.4a15.62,15.62,0,0,0,15.6,15.6h54.4v7.8H1895v-22h-15.4v-66H1895v-36.4h77.8v7.8h-54.6A15.62,15.62,0,0,0,1902.58,144.26Z"/><path d="M2048.58,194.26h-44a15.62,15.62,0,0,0-15.6,15.6v35.4h-8.2V120.86h8.2v35a15.62,15.62,0,0,0,15.6,15.6h7.6a11.18,11.18,0,0,0,11.2-11.2v-3.4H2048a11.18,11.18,0,0,0,11.2-11.2v-24.6h7.8v43.6h-35.8v14.6H1992a3.61,3.61,0,0,0,0,7.2h80.4v58.8h-8.2v-35.4A15.62,15.62,0,0,0,2048.58,194.26Z"/><path d="M2251.38,245.26h-8.6v-101a15.62,15.62,0,0,0-15.6-15.6h-18a15.45,15.45,0,0,0-15.4,15.6v101h-8.4V142.06a13.4,13.4,0,0,0-13.4-13.4h-.6a13.36,13.36,0,0,0-13.2,13.4v23h-7.8a15.62,15.62,0,0,0-15.6,15.6v64.6h-8.4v-88h24v-36.4l101,.2Z"/><path d="M2279.78,143.06a13.91,13.91,0,0,0,14,14h55.6v8.2h-53a15.62,15.62,0,0,0-15.6,15.6v40a15.62,15.62,0,0,0,15.6,15.6h69v8.8h-94v-124l.6-.4h93.4v8.2h-71.6A13.91,13.91,0,0,0,2279.78,143.06Z"/><path d="M2376.38,213.66l22.8.2v31.4h-22.8Zm7-96.4h8.8v82.4h-8.8Zm4.4,120.4a3.93,3.93,0,0,0,3.8-3.8v-8.8a3.8,3.8,0,1,0-7.6,0v8.8A3.93,3.93,0,0,0,2387.78,237.66Z"/><line class="cls-2" x1="1396.85" y1="287.54" x2="2730.48" y2="287.54"/></g></g></svg>