<svg xmlns="http://www.w3.org/2000/svg" viewBox="0 0 4855.36 3234.9"><defs><style>.cls-1{fill:none;}</style></defs><g id="Layer_2" data-name="Layer 2"><g id="Layer_1-2" data-name="Layer 1"><rect class="cls-1" width="4855.36" height="3234.9"/><path d="M4328.43,867.28,4340,810.9c3.19-15.54,25.31-15.75,28.79-.27l12.61,56.15A14.72,14.72,0,0,0,4392.79,878l56.38,11.55c15.54,3.19,15.75,25.31.27,28.79l-56.14,12.62a14.69,14.69,0,0,0-11.2,11.41l-11.55,56.37c-3.18,15.54-25.31,15.75-28.79.27l-12.61-56.14a14.72,14.72,0,0,0-11.41-11.2l-56.38-11.55c-15.54-3.18-15.75-25.31-.27-28.79l56.15-12.61A14.72,14.72,0,0,0,4328.43,867.28Z"/><path d="M4620.76,1037l8.19-40c2.26-11,17.95-11.17,20.41-.19l9,39.81a10.45,10.45,0,0,0,8.09,7.94l40,8.18c11,2.26,11.17,18,.19,20.42l-39.81,8.94a10.44,10.44,0,0,0-7.93,8.09l-8.19,40c-2.26,11-17.95,11.17-20.42.2l-8.94-39.81a10.44,10.44,0,0,0-8.09-7.94l-40-8.19c-11-2.26-11.17-18-.2-20.41l39.81-9A10.42,10.42,0,0,0,4620.76,1037Z"/><path d="M4423.82,623.27l8.19-40c2.26-11,17.95-11.17,20.41-.2l8.94,39.81a10.44,10.44,0,0,0,8.09,7.94l40,8.19c11,2.26,11.16,18,.19,20.41l-39.81,8.95a10.44,10.44,0,0,0-7.94,8.09l-8.19,40c-2.25,11-17.94,11.17-20.41.19l-8.94-39.81a10.45,10.45,0,0,0-8.09-7.94l-40-8.19c-11-2.25-11.16-17.94-.19-20.41l39.81-8.94A10.44,10.44,0,0,0,4423.82,623.27Z"/><path d="M3810.45,281.82l9.52-46.46c2.62-12.81,20.86-13,23.73-.23l10.39,46.28a12.14,12.14,0,0,0,9.41,9.23l46.46,9.52c12.81,2.62,13,20.86.23,23.72l-46.28,10.4a12.15,12.15,0,0,0-9.23,9.4l-9.52,46.47c-2.62,12.81-20.86,13-23.72.22L3811,344.1a12.15,12.15,0,0,0-9.4-9.23l-46.47-9.52c-12.81-2.62-13-20.86-.22-23.73l46.27-10.39A12.14,12.14,0,0,0,3810.45,281.82Z"/><path d="M308.44,727.45,318,681c2.62-12.81,20.86-13,23.73-.22L352.08,727a12.14,12.14,0,0,0,9.41,9.23L408,745.79c12.81,2.62,13,20.86.23,23.73L361.9,779.91a12.14,12.14,0,0,0-9.23,9.41l-9.52,46.46c-2.62,12.81-20.86,13-23.72.23L309,789.73a12.15,12.15,0,0,0-9.4-9.23L253.16,771c-12.81-2.62-13-20.86-.22-23.72l46.27-10.4A12.14,12.14,0,0,0,308.44,727.45Z"/><path d="M905.43,805.2l11.1-54.2c3.07-14.94,24.34-15.14,27.68-.26l12.13,54a14.15,14.15,0,0,0,11,10.76l54.21,11.11c14.94,3.06,15.14,24.33.26,27.68l-54,12.13a14.15,14.15,0,0,0-10.76,11l-11.11,54.2c-3.06,14.94-24.33,15.14-27.67.26l-12.13-54a14.16,14.16,0,0,0-11-10.77L840.94,856c-14.94-3.06-15.14-24.34-.26-27.68l54-12.13A14.15,14.15,0,0,0,905.43,805.2Z"/><path d="M4416.06,317.38l7-34.21c1.93-9.43,15.36-9.55,17.47-.16l7.65,34.07a8.92,8.92,0,0,0,6.93,6.79l34.21,7c9.43,1.93,9.55,15.36.16,17.47L4455.42,356a8.92,8.92,0,0,0-6.79,6.93l-7,34.21c-1.93,9.43-15.36,9.55-17.47.16l-7.65-34.07a8.92,8.92,0,0,0-6.93-6.79l-34.21-7c-9.43-1.93-9.55-15.36-.16-17.47l34.07-7.65A8.92,8.92,0,0,0,4416.06,317.38Z"/><path d="M4485.71,1663.14l10.06-49.09c2.77-13.52,22-13.71,25.06-.23l11,48.88a12.83,12.83,0,0,0,9.94,9.75l49.08,10c13.53,2.77,13.71,22,.24,25.07l-48.89,11a12.8,12.8,0,0,0-9.74,9.93l-10.06,49.08c-2.77,13.53-22,13.72-25.06.24l-11-48.88a12.83,12.83,0,0,0-9.94-9.75l-49.08-10.05c-13.53-2.78-13.71-22-.24-25.07l48.89-11A12.81,12.81,0,0,0,4485.71,1663.14Z"/><path d="M4273.06,1917.47l10-49.08c2.77-13.53,22-13.71,25.07-.24l11,48.88a12.81,12.81,0,0,0,9.93,9.75l49.08,10.06c13.53,2.77,13.71,22,.24,25.06l-48.88,11a12.82,12.82,0,0,0-9.75,9.93l-10.06,49.09c-2.77,13.53-22,13.71-25.06.23l-11-48.88a12.83,12.83,0,0,0-9.93-9.75l-49.09-10c-13.53-2.77-13.71-22-.23-25.06l48.88-11A12.82,12.82,0,0,0,4273.06,1917.47Z"/><path d="M4273.06,2897.48l10-49.08c2.77-13.53,22-13.71,25.07-.24l11,48.88a12.81,12.81,0,0,0,9.93,9.75l49.08,10.05c13.53,2.78,13.71,22,.24,25.07l-48.88,11a12.82,12.82,0,0,0-9.75,9.93l-10.06,49.09c-2.77,13.53-22,13.71-25.06.23l-11-48.88a12.82,12.82,0,0,0-9.93-9.75l-49.09-10.05c-13.53-2.77-13.71-22-.23-25.07l48.88-11A12.82,12.82,0,0,0,4273.06,2897.48Z"/><path d="M4505.14,1956.7l9-44c2.48-12.13,19.75-12.29,22.46-.21l9.85,43.81a11.49,11.49,0,0,0,8.9,8.74l44,9c12.13,2.48,12.29,19.75.21,22.46l-43.81,9.84a11.5,11.5,0,0,0-8.74,8.91l-9,44c-2.48,12.12-19.75,12.28-22.46.21l-9.84-43.81a11.5,11.5,0,0,0-8.91-8.74l-44-9c-12.12-2.48-12.28-19.75-.21-22.46l43.81-9.85A11.49,11.49,0,0,0,4505.14,1956.7Z"/><path d="M4421.63,2049.67l5.78-28.2c1.59-7.77,12.66-7.87,14.4-.13l6.3,28.08a7.37,7.37,0,0,0,5.71,5.6l28.2,5.77c7.77,1.6,7.87,12.66.13,14.4l-28.08,6.31a7.38,7.38,0,0,0-5.6,5.71l-5.77,28.19c-1.6,7.78-12.66,7.88-14.4.14l-6.31-28.08a7.37,7.37,0,0,0-5.71-5.6l-28.19-5.78c-7.78-1.59-7.88-12.66-.14-14.4l28.08-6.3A7.37,7.37,0,0,0,4421.63,2049.67Z"/><path d="M4361.2,1723.93l3.51-17.15a4.48,4.48,0,0,1,8.76-.08l3.83,17.08a4.48,4.48,0,0,0,3.47,3.4l17.15,3.51a4.48,4.48,0,0,1,.08,8.76l-17.07,3.84a4.46,4.46,0,0,0-3.41,3.47l-3.51,17.15a4.48,4.48,0,0,1-8.76.08l-3.83-17.08a4.48,4.48,0,0,0-3.48-3.4L4340.8,1740a4.47,4.47,0,0,1-.09-8.75l17.08-3.84A4.5,4.5,0,0,0,4361.2,1723.93Z"/><path d="M2473.69,444.72l3.52-17.15a4.47,4.47,0,0,1,8.75-.08l3.84,17.08a4.49,4.49,0,0,0,3.47,3.41l17.15,3.51a4.47,4.47,0,0,1,.08,8.75l-17.08,3.84a4.48,4.48,0,0,0-3.4,3.47l-3.52,17.15a4.47,4.47,0,0,1-8.75.08l-3.84-17.08a4.46,4.46,0,0,0-3.47-3.4l-17.15-3.51a4.48,4.48,0,0,1-.08-8.76l17.08-3.84A4.45,4.45,0,0,0,2473.69,444.72Z"/><path d="M2486.53,612.12l4.69-22.87a6,6,0,0,1,11.68-.11l5.11,22.78a6,6,0,0,0,4.63,4.54l22.87,4.68a6,6,0,0,1,.11,11.68l-22.77,5.12a6,6,0,0,0-4.55,4.63l-4.68,22.87a6,6,0,0,1-11.68.11l-5.12-22.78a6,6,0,0,0-4.63-4.54l-22.87-4.68a6,6,0,0,1-.11-11.68l22.78-5.12A6,6,0,0,0,2486.53,612.12Z"/><path d="M4537,1465.32l3.51-17.15a4.48,4.48,0,0,1,8.76-.09l3.83,17.08a4.5,4.5,0,0,0,3.47,3.41l17.15,3.51a4.48,4.48,0,0,1,.08,8.76l-17.07,3.83a4.49,4.49,0,0,0-3.41,3.47l-3.51,17.15a4.48,4.48,0,0,1-8.76.09l-3.84-17.08a4.48,4.48,0,0,0-3.47-3.41l-17.14-3.51a4.48,4.48,0,0,1-.09-8.76l17.08-3.83A4.5,4.5,0,0,0,4537,1465.32Z"/><path d="M4586.08,1382.57l5-24.42a6.38,6.38,0,0,1,12.47-.12l5.46,24.32a6.38,6.38,0,0,0,4.94,4.85l24.42,5a6.38,6.38,0,0,1,.12,12.47l-24.32,5.46a6.39,6.39,0,0,0-4.85,4.94l-5,24.42a6.38,6.38,0,0,1-12.47.12l-5.46-24.32a6.38,6.38,0,0,0-4.94-4.85l-24.42-5a6.38,6.38,0,0,1-.12-12.47l24.32-5.46A6.36,6.36,0,0,0,4586.08,1382.57Z"/><path d="M4484.47,448.41l5-24.42a6.38,6.38,0,0,1,12.47-.12l5.46,24.32a6.39,6.39,0,0,0,4.94,4.85l24.42,5a6.38,6.38,0,0,1,.12,12.47L4512.56,476a6.38,6.38,0,0,0-4.85,4.94l-5,24.42a6.38,6.38,0,0,1-12.47.12l-5.46-24.32a6.38,6.38,0,0,0-4.94-4.85l-24.42-5a6.38,6.38,0,0,1-.12-12.47l24.32-5.46A6.38,6.38,0,0,0,4484.47,448.41Z"/><path d="M1141.22,540.6l3.93-19.21a5,5,0,0,1,9.82-.09l4.3,19.13a5,5,0,0,0,3.88,3.82l19.22,3.94a5,5,0,0,1,.09,9.81l-19.13,4.3a5,5,0,0,0-3.82,3.89l-3.94,19.22a5,5,0,0,1-9.81.09l-4.3-19.14a5,5,0,0,0-3.89-3.82l-19.22-3.93a5,5,0,0,1-.09-9.82l19.14-4.3A5,5,0,0,0,1141.22,540.6Z"/><path d="M162.46,991.85l3.94-19.22a5,5,0,0,1,9.81-.09l4.3,19.14a5,5,0,0,0,3.89,3.82l19.22,3.93a5,5,0,0,1,.09,9.81l-19.14,4.3a5,5,0,0,0-3.81,3.89l-3.94,19.22a5,5,0,0,1-9.81.09l-4.3-19.14a5,5,0,0,0-3.89-3.81l-19.22-3.94a5,5,0,0,1-.09-9.81l19.14-4.3A5,5,0,0,0,162.46,991.85Z"/><path d="M209.35,1597.61l3.94-19.22a5,5,0,0,1,9.81-.09l4.3,19.14a5,5,0,0,0,3.89,3.81l19.21,3.94a5,5,0,0,1,.1,9.81l-19.14,4.3a5,5,0,0,0-3.82,3.89l-3.93,19.22a5,5,0,0,1-9.82.09l-4.3-19.14a5,5,0,0,0-3.89-3.81l-19.21-3.94a5,5,0,0,1-.1-9.81l19.14-4.3A5,5,0,0,0,209.35,1597.61Z"/><path d="M1021.81,752.15l3.1-15.13a4,4,0,0,1,7.72-.07L1036,752a3.94,3.94,0,0,0,3.06,3l15.12,3.1a4,4,0,0,1,.07,7.72l-15.06,3.38a4,4,0,0,0-3,3.06l-3.1,15.13a4,4,0,0,1-7.72.07L1022,772.42a3.94,3.94,0,0,0-3.06-3l-15.12-3.1a4,4,0,0,1-.08-7.73l15.07-3.38A4,4,0,0,0,1021.81,752.15Z"/><path d="M1741.81,535.66l3.1-15.13a4,4,0,0,1,7.72-.07l3.39,15.06a4,4,0,0,0,3.06,3l15.12,3.1a4,4,0,0,1,.08,7.72l-15.07,3.38a4,4,0,0,0-3,3.06l-3.1,15.13a4,4,0,0,1-7.72.07L1742,555.93a4,4,0,0,0-3.06-3l-15.12-3.09a4,4,0,0,1-.07-7.73l15.06-3.38A3.94,3.94,0,0,0,1741.81,535.66Z"/><path d="M3680.36,394.21l3.1-15.12a4,4,0,0,1,7.73-.08l3.38,15.07a4,4,0,0,0,3.06,3l15.12,3.1a4,4,0,0,1,.08,7.72l-15.07,3.38a4,4,0,0,0-3,3.07l-3.1,15.12a4,4,0,0,1-7.72.07l-3.38-15.06a3.94,3.94,0,0,0-3.07-3l-15.12-3.1a4,4,0,0,1-.07-7.73l15.06-3.38A3.94,3.94,0,0,0,3680.36,394.21Z"/><path d="M4199.69,245.89l3.1-15.13a4,4,0,0,1,7.72-.07l3.39,15.06a4,4,0,0,0,3.06,3l15.12,3.1a4,4,0,0,1,.08,7.72L4217.09,263a4,4,0,0,0-3,3.06l-3.1,15.13a4,4,0,0,1-7.72.07l-3.39-15.06a4,4,0,0,0-3.06-3l-15.12-3.09a4,4,0,0,1-.07-7.73l15.06-3.38A3.94,3.94,0,0,0,4199.69,245.89Z"/><path d="M4021.91,488.86l3.1-15.12a4,4,0,0,1,7.72-.08l3.38,15.07a4,4,0,0,0,3.07,3l15.12,3.1a4,4,0,0,1,.07,7.72l-15.06,3.39a3.93,3.93,0,0,0-3,3.06l-3.1,15.12a4,4,0,0,1-7.73.07l-3.38-15.06a4,4,0,0,0-3.06-3l-15.12-3.1a4,4,0,0,1-.08-7.72l15.07-3.39A4,4,0,0,0,4021.91,488.86Z"/><path d="M4096.11,225.72l2.43-11.9a3.11,3.11,0,0,1,6.08-.06l2.67,11.85a3.1,3.1,0,0,0,2.4,2.37l11.91,2.44a3.11,3.11,0,0,1,.06,6.08l-11.86,2.66a3.1,3.1,0,0,0-2.36,2.41l-2.44,11.9a3.11,3.11,0,0,1-6.08.06l-2.66-11.86a3.12,3.12,0,0,0-2.41-2.36l-11.91-2.44a3.11,3.11,0,0,1-.05-6.08l11.85-2.66A3.13,3.13,0,0,0,4096.11,225.72Z"/><path d="M4332.1,219l3.27-16a4.16,4.16,0,0,1,8.14-.08l3.57,15.89a4.18,4.18,0,0,0,3.23,3.17l15.95,3.27a4.16,4.16,0,0,1,.08,8.14L4350.45,237a4.17,4.17,0,0,0-3.17,3.23L4344,256.21a4.17,4.17,0,0,1-8.15.08l-3.57-15.89a4.17,4.17,0,0,0-3.23-3.17L4313.12,234a4.17,4.17,0,0,1-.08-8.15l15.89-3.57A4.17,4.17,0,0,0,4332.1,219Z"/><path d="M4261.74,329.54l3.26-16a4.17,4.17,0,0,1,8.15-.07l3.57,15.88a4.17,4.17,0,0,0,3.23,3.17l15.95,3.27A4.17,4.17,0,0,1,4296,344l-15.89,3.57a4.15,4.15,0,0,0-3.17,3.22l-3.27,16a4.16,4.16,0,0,1-8.14.07l-3.57-15.88a4.17,4.17,0,0,0-3.23-3.17l-15.95-3.27a4.17,4.17,0,0,1-.08-8.15l15.89-3.56A4.18,4.18,0,0,0,4261.74,329.54Z"/><path d="M3976.56,298.69l2.44-11.9a3.11,3.11,0,0,1,6.08-.06l2.66,11.86a3.12,3.12,0,0,0,2.41,2.36l11.91,2.44a3.11,3.11,0,0,1,.05,6.08l-11.85,2.66a3.1,3.1,0,0,0-2.36,2.41l-2.44,11.9a3.11,3.11,0,0,1-6.08.06l-2.66-11.85a3.13,3.13,0,0,0-2.41-2.37l-11.91-2.44a3.1,3.1,0,0,1-.05-6.07l11.85-2.67A3.1,3.1,0,0,0,3976.56,298.69Z"/><path d="M4257.26,809.61l2.92-14.25a3.72,3.72,0,0,1,7.28-.07l3.19,14.19a3.71,3.71,0,0,0,2.88,2.83l14.25,2.92a3.72,3.72,0,0,1,.07,7.28l-14.19,3.19a3.71,3.71,0,0,0-2.83,2.88l-2.92,14.25a3.72,3.72,0,0,1-7.28.07l-3.19-14.19a3.71,3.71,0,0,0-2.88-2.83L4240.31,823a3.72,3.72,0,0,1-.07-7.28l14.19-3.19A3.71,3.71,0,0,0,4257.26,809.61Z"/><path d="M4254.32,809.61l2.92-14.25a3.72,3.72,0,0,1,7.27-.07l3.19,14.19a3.71,3.71,0,0,0,2.88,2.83l14.25,2.92a3.72,3.72,0,0,1,.07,7.28l-14.19,3.19a3.73,3.73,0,0,0-2.83,2.88L4265,842.83a3.72,3.72,0,0,1-7.27.07l-3.19-14.19a3.71,3.71,0,0,0-2.89-2.83L4237.37,823a3.72,3.72,0,0,1-.07-7.28l14.19-3.19A3.73,3.73,0,0,0,4254.32,809.61Z"/><path d="M4546,694.57l4.45-21.71a5.67,5.67,0,0,1,11.09-.11l4.86,21.63a5.66,5.66,0,0,0,4.39,4.31l21.71,4.45a5.67,5.67,0,0,1,.11,11.08L4571,719.08a5.68,5.68,0,0,0-4.31,4.39l-4.45,21.72a5.67,5.67,0,0,1-11.08.1l-4.86-21.62a5.66,5.66,0,0,0-4.39-4.31l-21.72-4.45a5.67,5.67,0,0,1-.1-11.09l21.62-4.86A5.63,5.63,0,0,0,4546,694.57Z"/><path d="M4515.35,809.61l2.92-14.25a3.72,3.72,0,0,1,7.28-.07l3.18,14.19a3.71,3.71,0,0,0,2.89,2.83l14.25,2.92a3.72,3.72,0,0,1,.06,7.28l-14.19,3.19a3.74,3.74,0,0,0-2.83,2.88L4526,842.83a3.72,3.72,0,0,1-7.28.07l-3.19-14.19a3.71,3.71,0,0,0-2.88-2.83L4498.4,823a3.72,3.72,0,0,1-.07-7.28l14.19-3.19A3.71,3.71,0,0,0,4515.35,809.61Z"/><path d="M456.85,663.68l4.69-22.85a6,6,0,0,1,11.66-.11l5.12,22.75a6,6,0,0,0,4.62,4.54l22.85,4.68a6,6,0,0,1,.11,11.67l-22.76,5.11a6,6,0,0,0-4.53,4.63L473.93,717a6,6,0,0,1-11.67.11l-5.12-22.76a6,6,0,0,0-4.62-4.54l-22.85-4.68a6,6,0,0,1-.11-11.67l22.76-5.11A6,6,0,0,0,456.85,663.68Z"/><path d="M202.46,895.28l6.9-33.69c1.9-9.29,15.13-9.41,17.21-.16L234.11,895a8.8,8.8,0,0,0,6.82,6.7l33.69,6.9c9.29,1.9,9.41,15.13.16,17.21l-33.55,7.53a8.82,8.82,0,0,0-6.7,6.82l-6.9,33.7c-1.9,9.29-15.13,9.41-17.21.16l-7.53-33.56a8.82,8.82,0,0,0-6.82-6.69l-33.7-6.9c-9.29-1.9-9.41-15.13-.16-17.21l33.56-7.54A8.79,8.79,0,0,0,202.46,895.28Z"/><path d="M2685.77,181.55l9.25-45.18c2.55-12.45,20.28-12.62,23.07-.22l10.11,45a11.8,11.8,0,0,0,9.14,9l45.18,9.25c12.45,2.55,12.62,20.28.22,23.07l-45,10.11a11.79,11.79,0,0,0-9,9.14l-9.25,45.18c-2.55,12.45-20.29,12.62-23.07.22l-10.11-45a11.8,11.8,0,0,0-9.14-9L2632,223.87c-12.45-2.55-12.62-20.29-.22-23.07l45-10.11A11.83,11.83,0,0,0,2685.77,181.55Z"/><path d="M2111.83,520.32l8-39.24c2.22-10.82,17.62-11,20-.19l8.78,39.08a10.24,10.24,0,0,0,7.94,7.79l39.24,8c10.82,2.21,11,17.62.19,20L2157,564.62a10.24,10.24,0,0,0-7.79,7.94l-8,39.24c-2.22,10.81-17.62,11-20,.19l-8.78-39.08a10.24,10.24,0,0,0-7.94-7.8l-39.24-8c-10.82-2.21-11-17.61-.19-20l39.08-8.78A10.26,10.26,0,0,0,2111.83,520.32Z"/><path d="M420.93,2081l10.12-49.36c2.78-13.61,22.16-13.79,25.2-.24l11.05,49.16a12.88,12.88,0,0,0,10,9.8l49.35,10.11c13.61,2.79,13.79,22.16.24,25.21l-49.16,11a12.9,12.9,0,0,0-9.8,10l-10.11,49.36c-2.79,13.61-22.16,13.79-25.21.24l-11-49.16a12.87,12.87,0,0,0-10-9.8l-49.36-10.11c-13.6-2.79-13.79-22.17-.24-25.21l49.16-11A12.87,12.87,0,0,0,420.93,2081Z"/><path d="M551.53,2171.13l8-39.24c2.22-10.82,17.62-11,20-.19l8.78,39.08a10.24,10.24,0,0,0,7.94,7.79l39.24,8c10.82,2.21,11,17.62.19,20l-39.08,8.78a10.24,10.24,0,0,0-7.79,7.94l-8,39.24c-2.22,10.81-17.62,11-20,.19L552,2223.72a10.24,10.24,0,0,0-7.94-7.8l-39.24-8c-10.82-2.21-11-17.61-.19-20l39.08-8.78A10.26,10.26,0,0,0,551.53,2171.13Z"/><path d="M612.3,2594.17l9.72-47.46c2.68-13.08,21.31-13.26,24.24-.23l10.62,47.27a12.4,12.4,0,0,0,9.6,9.43L714,2612.9c13.08,2.68,13.25,21.31.23,24.24l-47.27,10.62a12.38,12.38,0,0,0-9.43,9.6l-9.72,47.46c-2.68,13.09-21.31,13.26-24.24.23l-10.62-47.27a12.41,12.41,0,0,0-9.6-9.42l-47.46-9.73c-13.09-2.68-13.26-21.3-.23-24.23l47.27-10.62A12.4,12.4,0,0,0,612.3,2594.17Z"/><path d="M702.81,2709.48l4.6-22.45a5.86,5.86,0,0,1,11.46-.11l5,22.36a5.85,5.85,0,0,0,4.54,4.46l22.45,4.6a5.86,5.86,0,0,1,.11,11.46l-22.36,5a5.85,5.85,0,0,0-4.46,4.54l-4.6,22.45a5.86,5.86,0,0,1-11.46.11l-5-22.36a5.87,5.87,0,0,0-4.55-4.46l-22.45-4.6a5.86,5.86,0,0,1-.1-11.46l22.35-5A5.87,5.87,0,0,0,702.81,2709.48Z"/><path d="M1391.59,3037.77l4.6-22.45a5.86,5.86,0,0,1,11.46-.11l5,22.36a5.89,5.89,0,0,0,4.55,4.46l22.44,4.6a5.86,5.86,0,0,1,.11,11.46l-22.35,5a5.86,5.86,0,0,0-4.46,4.55l-4.6,22.45a5.87,5.87,0,0,1-11.47.1l-5-22.35a5.85,5.85,0,0,0-4.54-4.46l-22.45-4.6a5.87,5.87,0,0,1-.11-11.47l22.36-5A5.86,5.86,0,0,0,1391.59,3037.77Z"/><path d="M2033,638.64l8-39.24c2.21-10.82,17.62-11,20-.19l8.78,39.08a10.22,10.22,0,0,0,7.94,7.79l39.24,8c10.81,2.22,11,17.62.19,20l-39.08,8.78a10.24,10.24,0,0,0-7.8,7.94l-8,39.24c-2.22,10.82-17.62,11-20,.19l-8.78-39.08a10.26,10.26,0,0,0-7.94-7.79l-39.24-8c-10.82-2.22-11-17.62-.19-20l39.08-8.78A10.24,10.24,0,0,0,2033,638.64Z"/><path d="M991,495.24,997.82,462c1.88-9.16,14.93-9.29,17-.16l7.44,33.12a8.69,8.69,0,0,0,6.73,6.6l33.25,6.81c9.17,1.88,9.29,14.93.16,17l-33.11,7.44a8.69,8.69,0,0,0-6.61,6.73l-6.81,33.25c-1.88,9.17-14.93,9.29-17,.16l-7.44-33.11a8.69,8.69,0,0,0-6.73-6.61l-33.25-6.81c-9.16-1.88-9.29-14.93-.16-17L984.41,502A8.69,8.69,0,0,0,991,495.24Z"/><path d="M349.73,1252.72l8-38.92c2.2-10.73,17.47-10.87,19.87-.19l8.71,38.76a10.17,10.17,0,0,0,7.88,7.73l38.92,8c10.72,2.2,10.87,17.47.18,19.87l-38.76,8.71a10.18,10.18,0,0,0-7.73,7.88l-8,38.92c-2.2,10.72-17.47,10.87-19.87.18l-8.71-38.75a10.15,10.15,0,0,0-7.88-7.73l-38.91-8c-10.73-2.19-10.87-17.47-.19-19.87l38.76-8.71A10.16,10.16,0,0,0,349.73,1252.72Z"/><path d="M4024.22,242.05l4.28-20.9a5.46,5.46,0,0,1,10.67-.1l4.68,20.81a5.45,5.45,0,0,0,4.23,4.15l20.89,4.28a5.46,5.46,0,0,1,.1,10.67l-20.81,4.68a5.47,5.47,0,0,0-4.15,4.23l-4.28,20.89a5.46,5.46,0,0,1-10.67.1l-4.67-20.81a5.47,5.47,0,0,0-4.23-4.15l-20.9-4.28a5.46,5.46,0,0,1-.1-10.67l20.81-4.67A5.47,5.47,0,0,0,4024.22,242.05Z"/><path d="M4056.06,2036.48l5.77-28.2c1.6-7.77,12.66-7.87,14.4-.13l6.31,28.08a7.35,7.35,0,0,0,5.71,5.6l28.19,5.77c7.77,1.6,7.88,12.66.14,14.4l-28.08,6.31a7.37,7.37,0,0,0-5.6,5.71l-5.78,28.19c-1.59,7.78-12.66,7.88-14.4.14l-6.31-28.08a7.34,7.34,0,0,0-5.7-5.6l-28.2-5.78c-7.77-1.59-7.87-12.66-.13-14.4l28.08-6.3A7.38,7.38,0,0,0,4056.06,2036.48Z"/><path d="M4153.18,1856.74l5.78-28.19c1.59-7.77,12.66-7.88,14.39-.14l6.31,28.08a7.37,7.37,0,0,0,5.71,5.6l28.2,5.78c7.77,1.59,7.87,12.66.13,14.4l-28.08,6.31a7.34,7.34,0,0,0-5.6,5.7l-5.78,28.2c-1.59,7.77-12.65,7.88-14.39.14l-6.31-28.09a7.39,7.39,0,0,0-5.71-5.6l-28.19-5.77c-7.78-1.59-7.88-12.66-.14-14.4l28.08-6.31A7.35,7.35,0,0,0,4153.18,1856.74Z"/><path d="M4153.18,3003.38l5.78-28.19c1.59-7.78,12.66-7.88,14.39-.14l6.31,28.08a7.37,7.37,0,0,0,5.71,5.6l28.2,5.78c7.77,1.59,7.87,12.66.13,14.4l-28.08,6.3a7.37,7.37,0,0,0-5.6,5.71l-5.78,28.2c-1.59,7.77-12.65,7.87-14.39.13l-6.31-28.08a7.37,7.37,0,0,0-5.71-5.6l-28.19-5.77c-7.78-1.6-7.88-12.66-.14-14.4l28.08-6.31A7.37,7.37,0,0,0,4153.18,3003.38Z"/></g></g></svg>