<svg xmlns="http://www.w3.org/2000/svg" viewBox="0 0 2551.18 3607.04"><defs><style>.cls-1{fill:none;}.cls-2{fill:#fff;}.cls-3{fill:#1d1d1b;}</style></defs><g id="Layer_2" data-name="Layer 2"><g id="Layer_1-2" data-name="Layer 1"><rect class="cls-1" width="2551.18" height="3607.04"/><circle class="cls-2" cx="839.66" cy="699.95" r="66.35"/><circle class="cls-2" cx="1152.62" cy="704.77" r="66.35"/><circle class="cls-3" cx="994.47" cy="1053.14" r="195.99"/><ellipse class="cls-3" cx="994.47" cy="787.64" rx="56.91" ry="51"/><circle class="cls-3" cx="1141.61" cy="721.11" r="44.24"/><circle class="cls-3" cx="851.85" cy="715.5" r="44.24"/><ellipse class="cls-3" cx="311.51" cy="962.02" rx="27.66" ry="38.12" transform="translate(-579.78 484.41) rotate(-43.87)"/><ellipse class="cls-2" cx="194.76" cy="1034.83" rx="49.34" ry="59.8" transform="translate(-492.53 237.06) rotate(-30.09)"/><ellipse class="cls-3" cx="214.14" cy="1040.99" rx="28.24" ry="34.23" transform="translate(-556.76 309.4) rotate(-34.87)"/><path class="cls-3" d="M359.29,1041.48h-.17a5.36,5.36,0,0,1,.07-10.71h.06c.6,0,20.66-.15,31.19-13.65,7.31-9.37,8.63-23.29,3.93-41.39a5.35,5.35,0,1,1,10.36-2.68c5.59,21.53,3.6,38.6-5.91,50.73C385.32,1041,361.75,1041.48,359.29,1041.48Z"/><path class="cls-3" d="M165.36,851.61a5.35,5.35,0,0,1-3.19-9.65c.64-.47,65.27-48.29,160.49-96.25,55.95-28.18,111.39-50.93,164.79-67.6,66.88-20.89,130.74-32.27,189.81-33.83a5.35,5.35,0,0,1,.28,10.7c-58,1.53-120.89,12.74-186.78,33.3-52.82,16.49-107.69,39-163.1,66.89-94.44,47.55-158.47,94.91-159.11,95.38A5.36,5.36,0,0,1,165.36,851.61Z"/><circle class="cls-3" cx="478.1" cy="789.55" r="100.92"/><circle class="cls-3" cx="199.66" cy="429.45" r="62.09"/><circle class="cls-2" cx="219.73" cy="414.14" r="20.41"/><circle class="cls-2" cx="219.73" cy="456.66" r="10.21"/><circle class="cls-3" cx="518.25" cy="305.27" r="62.09"/><circle class="cls-2" cx="538.32" cy="289.97" r="20.41"/><circle class="cls-2" cx="538.32" cy="332.49" r="10.21"/><ellipse class="cls-3" cx="1122.96" cy="456.66" rx="62.94" ry="62.09"/><ellipse class="cls-2" cx="1143.3" cy="441.35" rx="20.69" ry="20.41"/><path class="cls-3" d="M327,520c-53.69,0-69.42-31.8-70.32-33.72a5.56,5.56,0,0,1,10.06-4.75c1.16,2.37,29.38,57.1,149.76,4.94,91.22-39.53,80.65-89.29,80.16-91.39a5.56,5.56,0,0,1,10.8-2.67c.62,2.46,13.93,60.73-86.54,104.27C381.14,513.9,350.46,520,327,520Z"/><path class="cls-3" d="M862.71,372.92a5.56,5.56,0,0,1-5.37-4.09,55.37,55.37,0,0,0-25.75-30.45c-17.61-9.46-40.9-9.66-69.25-.59a5.56,5.56,0,0,1-3.39-10.6c31.43-10.06,57.72-9.55,78.12,1.51a65.39,65.39,0,0,1,22.55,20.24c1.26-39.76-29.85-53.21-31.35-53.83a5.57,5.57,0,0,1,4.22-10.3c.5.21,50.15,21.23,35.64,83.81a5.57,5.57,0,0,1-5.31,4.3Z"/><path class="cls-3" d="M1246.28,329.12c-20,0-48.63-3.27-64.43-20-.33-.35-.67-.71-1-1.07-21.6,9-63.12,7.1-142.83-33.51q-43.29-22-59.83-40.13c-42.2-4.61-101.93-34.89-122.5-71-9.59-16.81-9.8-33.42-.6-48C880,75.89,941.6,76.65,989.67,97.8c34.06,15,52,36.09,46.8,55.07-4.11,15-17.51,24.63-37.73,27.08-26.4,3.21-59.25-6.22-66.37-19a11.25,11.25,0,0,1,1.06-13c13.79-17.22,38-7.48,48.87.09a5.56,5.56,0,0,1-6.34,9.14c-.23-.16-23.11-15.71-33.83-2.28.24,3.65,16.24,12.77,39.77,14.35,8.87.62,38.29,1,43.84-19.3,3.52-12.87-12.77-29.73-40.56-41.95-42.63-18.76-99.4-20.47-120.66,13.31-7,11.07-6.69,23.38.84,36.59,17.21,30.19,66.49,56.67,104.43,64q-3.45-8.49.25-15.82c7.36-14.52,34.51-16.23,47.66-9.61,9,4.55,12,12.7,7.75,21.25-3.54,7.07-11.72,15.54-30.61,17.06,9.41,7.83,24.42,17.71,48.24,29.85,75.27,38.34,112.41,40.2,130.61,34.24-9.74-14.65-13-30.82-7.72-42.09,3.69-7.93,11.16-12.17,20.24-11.66,6.54.36,12.56,6.3,15.71,15.49,3.89,11.39,3.6,28.89-10,40.72-.38.32-.76.64-1.16,1,21.92,21.73,75.35,14.59,75.89,14.52a5.56,5.56,0,1,1,1.54,11A170.38,170.38,0,0,1,1246.28,329.12Zm-61.58-72.95c-4.16,0-7,1.73-8.64,5.27-3.17,6.81-1.25,19.54,7.56,32.24.34-.26.66-.52,1-.79,9.45-8.2,9.57-20.59,6.8-28.71-1.89-5.52-4.71-7.93-5.8-8ZM983.91,223.71c2.31.14,4.53.18,6.7.13,8.94-.25,20.51-2.38,24.89-11.13.88-1.75,2-3.94-2.8-6.33-9.33-4.7-28.85-3-32.73,4.7C979.56,211.9,978.07,215.94,983.91,223.71Z"/><path class="cls-3" d="M208.86,285.75c-23.63,0-44.37-3.65-57.89-11.36a40.87,40.87,0,0,1-12.14-10.14c-12.28,5-27.51,8.52-38.25,1.87A22,22,0,0,1,90.2,250.83c-3.55-20.44,17.68-47.87,20.11-50.93a5.56,5.56,0,1,1,8.71,6.92c-5.74,7.24-20.16,28.93-17.85,42.11a10.73,10.73,0,0,0,5.27,7.73c5.39,3.34,15.42,2.35,27.35-2.36-1.56-5.76-1.23-12.1,1.09-18.82,8.05-23.38,39.43-46.14,54.54-43.91,6,.88,9.77,5.2,10,11.56.76,18.16-22.63,40.32-44.69,53.21-1.52.9-3.37,1.93-5.46,3a32.65,32.65,0,0,0,7.18,5.35c29.36,16.77,111.41,12.77,169.24-17.33,19.71-10.25,43.32-27.32,49.61-52.13-18.83-1.48-33.25-8.58-42-21.06-6.64-9.43-6.56-20.17.21-28.73a29.92,29.92,0,0,1,33.88-9.14c8.75,3.51,22.73,14.38,20.71,48a145.28,145.28,0,0,0,26.76-4.18c49.75-12.31,96.18-44.73,97.87-57.81.75-5.82-1.33-11-6.36-15.76-14.1-13.43-45.49-18.52-66-14.88a5.56,5.56,0,1,1-2-11c23.08-4.13,58.55,1.51,75.63,17.77,7.55,7.2,10.91,15.93,9.72,25.24-2.94,22.76-60.87,56-106.24,67.19a149.9,149.9,0,0,1-30.83,4.58c-5.08,24.08-24.23,45.32-55.84,61.77C295.61,275.61,248.23,285.75,208.86,285.75Zm-22.1-83.46c-6.73,0-28.18,12.38-38.4,30.36-3.59,6.32-5,11.93-4.24,16.88,1.67-.87,3.34-1.8,5-2.79,22.44-13.12,39.65-32.07,39.18-43.15a2.62,2.62,0,0,0-.18-1A2.92,2.92,0,0,0,186.76,202.29ZM357,145.49a19.51,19.51,0,0,0-14.79,6.88c-2.58,3.26-4.65,8.59.16,15.42C350.3,179,363.35,183.34,377,184.24c1.28-19.93-3.64-33.55-13.7-37.58A16.78,16.78,0,0,0,357,145.49Z"/><path class="cls-3" d="M984,462c-15,0-27.62-3.71-37.59-11.12-18.62-13.84-20.75-35.34-20.83-36.25a5.57,5.57,0,0,1,11.09-1h0c0,.18,1.87,17.64,16.5,28.43,12.09,8.91,29.54,11.1,51.89,6.5a5.56,5.56,0,1,1,2.24,10.9A116,116,0,0,1,984,462Z"/><ellipse class="cls-2" cx="1374.69" cy="2730.34" rx="46.92" ry="68.56"/><ellipse class="cls-2" cx="1508.63" cy="2744.49" rx="46.92" ry="68.56"/><path class="cls-3" d="M1361.43,2675.93c-7.5,0-14.39,4-20,10.7h.08a8.74,8.74,0,1,1-7.73,12.71,79,79,0,0,0-6,31c0,30,15.07,54.41,33.66,54.41s33.66-24.36,33.66-54.41S1380,2675.93,1361.43,2675.93Z"/><path class="cls-3" d="M1495.37,2690.08c-7.62,0-14.61,4.13-20.25,11a8.72,8.72,0,1,1-8.12,14.18,80,80,0,0,0-5.3,29.21c0,30.05,15.07,54.41,33.67,54.41s33.66-24.36,33.66-54.41S1514,2690.08,1495.37,2690.08Z"/><ellipse class="cls-3" cx="1424.78" cy="2822.65" rx="23.82" ry="19.36"/><path class="cls-3" d="M1415.1,2634.84a4.26,4.26,0,0,1-3.52-1.86c-16.75-24.47-46.57-5.6-47.83-4.78a4.26,4.26,0,0,1-4.65-7.15c13.08-8.52,42.34-18,59.52,7.12a4.26,4.26,0,0,1-3.52,6.67Z"/><path class="cls-3" d="M1549.05,2657.88a4.28,4.28,0,0,1-3.53-1.85c-16.74-24.48-46.57-5.61-47.84-4.79a4.26,4.26,0,0,1-4.64-7.15c13.08-8.51,42.34-18,59.52,7.12a4.26,4.26,0,0,1-3.51,6.67Z"/><path class="cls-3" d="M1374.69,2857.31s45.83,15.36,103.85,11.09c0,0-8,63.28-56.93,57.3S1374.69,2857.31,1374.69,2857.31Z"/><path class="cls-3" d="M1421.61,2297.88l73.76,71.5,80.32-81.2,30.3,105.44,111.49-14.54-118.76,138.15s-33-35.15-76.52-43.63-87.09-3.63-87.09-3.63Z"/><path class="cls-3" d="M1845.3,2418.65l10.6,34.39a6.4,6.4,0,0,0,4.23,4.22l34.39,10.61a6.39,6.39,0,0,1,0,12.22l-34.39,10.6a6.44,6.44,0,0,0-4.23,4.23l-10.6,34.39a6.39,6.39,0,0,1-12.22,0l-10.6-34.39a6.44,6.44,0,0,0-4.23-4.23l-34.39-10.6a6.39,6.39,0,0,1,0-12.22l34.39-10.61a6.4,6.4,0,0,0,4.23-4.22l10.6-34.39A6.39,6.39,0,0,1,1845.3,2418.65Z"/><path class="cls-3" d="M1757.33,2478l9.53,30.93a5.76,5.76,0,0,0,3.8,3.8l30.93,9.54a5.75,5.75,0,0,1,0,11l-30.93,9.53a5.78,5.78,0,0,0-3.8,3.8l-9.53,30.93a5.75,5.75,0,0,1-11,0l-9.54-30.93a5.76,5.76,0,0,0-3.8-3.8l-30.93-9.53a5.75,5.75,0,0,1,0-11l30.93-9.54a5.74,5.74,0,0,0,3.8-3.8l9.54-30.93A5.75,5.75,0,0,1,1757.33,2478Z"/><path class="cls-3" d="M1723,2650.51l9.54,30.93a5.74,5.74,0,0,0,3.8,3.8l30.93,9.54a5.74,5.74,0,0,1,0,11l-30.93,9.54a5.74,5.74,0,0,0-3.8,3.8L1723,2750a5.75,5.75,0,0,1-11,0l-9.54-30.93a5.74,5.74,0,0,0-3.8-3.8l-30.93-9.54a5.74,5.74,0,0,1,0-11l30.93-9.54a5.74,5.74,0,0,0,3.8-3.8l9.54-30.93A5.74,5.74,0,0,1,1723,2650.51Z"/><path class="cls-3" d="M1243.8,2375.89l8.38,27.16a5,5,0,0,0,3.33,3.33l27.16,8.38a5,5,0,0,1,0,9.64l-27.16,8.38a5,5,0,0,0-3.33,3.33l-8.38,27.16a5,5,0,0,1-9.64,0l-8.38-27.16a5,5,0,0,0-3.33-3.33l-27.16-8.38a5,5,0,0,1,0-9.64l27.16-8.38a5,5,0,0,0,3.33-3.33l8.38-27.16A5,5,0,0,1,1243.8,2375.89Z"/><path class="cls-3" d="M1167.22,2733.24l6.84,22.16a4.11,4.11,0,0,0,2.72,2.72l22.16,6.84a4.12,4.12,0,0,1,0,7.87l-22.16,6.83a4.13,4.13,0,0,0-2.72,2.73l-6.84,22.16a4.12,4.12,0,0,1-7.87,0l-6.83-22.16a4.13,4.13,0,0,0-2.72-2.73l-22.16-6.83a4.12,4.12,0,0,1,0-7.87l22.16-6.84a4.11,4.11,0,0,0,2.72-2.72l6.83-22.16A4.12,4.12,0,0,1,1167.22,2733.24Z"/><path class="cls-3" d="M1071.12,2844.91l6.83,22.16a4.15,4.15,0,0,0,2.72,2.73l22.16,6.83a4.12,4.12,0,0,1,0,7.87l-22.16,6.84a4.11,4.11,0,0,0-2.72,2.72l-6.83,22.16a4.12,4.12,0,0,1-7.87,0l-6.84-22.16a4.11,4.11,0,0,0-2.72-2.72l-22.16-6.84a4.12,4.12,0,0,1,0-7.87l22.16-6.83a4.15,4.15,0,0,0,2.72-2.73l6.84-22.16A4.12,4.12,0,0,1,1071.12,2844.91Z"/><path class="cls-3" d="M1666.47,2739.65l4.88,15.81a3,3,0,0,0,1.94,1.95l15.81,4.87a2.94,2.94,0,0,1,0,5.62l-15.81,4.88a2.92,2.92,0,0,0-1.94,1.94l-4.88,15.81a2.94,2.94,0,0,1-5.61,0l-4.88-15.81a2.9,2.9,0,0,0-1.94-1.94l-15.81-4.88a2.94,2.94,0,0,1,0-5.62l15.81-4.87a2.94,2.94,0,0,0,1.94-1.95l4.88-15.81A2.94,2.94,0,0,1,1666.47,2739.65Z"/><path class="cls-3" d="M1193.25,3033.18l5.64,18.28a3.39,3.39,0,0,0,2.25,2.24l18.28,5.64a3.4,3.4,0,0,1,0,6.5l-18.28,5.63a3.4,3.4,0,0,0-2.25,2.25l-5.64,18.28a3.39,3.39,0,0,1-6.49,0l-5.64-18.28a3.4,3.4,0,0,0-2.25-2.25l-18.28-5.63a3.4,3.4,0,0,1,0-6.5l18.28-5.64a3.39,3.39,0,0,0,2.25-2.24l5.64-18.28A3.39,3.39,0,0,1,1193.25,3033.18Z"/><circle class="cls-2" cx="1778.26" cy="1955.28" r="119.55"/><circle class="cls-2" cx="1539.16" cy="1955.28" r="119.55"/><circle class="cls-3" cx="1732.21" cy="1967.69" r="73.5"/><circle class="cls-3" cx="1585.22" cy="1967.69" r="73.5"/><ellipse class="cls-2" cx="2102.1" cy="2400.62" rx="103.22" ry="144.51"/><ellipse class="cls-2" cx="2355.45" cy="2426.89" rx="103.22" ry="144.51"/><ellipse class="cls-3" cx="2112.81" cy="2374.34" rx="48.79" ry="73.19"/><ellipse class="cls-3" cx="2364.37" cy="2400.62" rx="48.79" ry="73.19"/><ellipse class="cls-2" cx="2205.32" cy="2644.84" rx="37.53" ry="55.22"/><path class="cls-3" d="M1444.84,1001.4c-1.69,0-3.42,0-5.21-.16-13.28-.78-23.88-5.89-31.55-15.2-16.18-19.69-12.11-51.17-11.94-52.51a9.36,9.36,0,0,1,18.55,2.51h0c-.91,6.86-1.25,27.1,7.88,38.16,4.26,5.16,10.2,7.9,18.16,8.37,31.41,1.87,34.59-17.83,34.83-20.08a9.51,9.51,0,0,1,10.17-8.38,9.3,9.3,0,0,1,8.47,10C1493.14,977.38,1481.36,1001.4,1444.84,1001.4Z"/><path class="cls-3" d="M1684.6,1071.93c-1.68,0-3.41-.06-5.19-.16-13.28-.78-23.89-5.9-31.55-15.21-16.19-19.68-12.11-51.17-11.94-52.5a9.35,9.35,0,0,1,18.54,2.5h0c-.9,6.87-1.25,27.1,7.89,38.16,4.26,5.17,10.2,7.91,18.15,8.38,31.4,1.84,34.59-17.84,34.83-20.09a9.45,9.45,0,0,1,10.18-8.38,9.29,9.29,0,0,1,8.46,10C1732.91,1047.9,1721.14,1071.92,1684.6,1071.93Z"/><path class="cls-3" d="M1276.86,1263.52a9.36,9.36,0,0,1,0-18.71c1.71,0,42.92-.8,57.36-41.47,14.9-42-9.8-74.37-10.85-75.73a9.35,9.35,0,0,1,14.68-11.58c1.33,1.67,32.24,41.58,13.79,93.56C1336.71,1252.25,1296.18,1263.52,1276.86,1263.52Z"/><path class="cls-3" d="M1609.18,1360.46a9.21,9.21,0,0,1-5-1.51c-1.45-.94-35.44-23.9-28.83-94.88,6.68-71.94,54.26-84.64,56.29-85.14a9.35,9.35,0,0,1,4.6,18.13c-1.68.45-36.88,10.77-42.26,68.74-5.47,58.81,19.45,76.81,20.51,77.54a9.38,9.38,0,0,1-5.27,17.12Z"/><path class="cls-3" d="M1496.27,1283.37c-131,0-160.53-69.9-161.94-73.46a9.35,9.35,0,0,1,17.37-7c.5,1.16,39.68,89.08,231.18,52.79a9.35,9.35,0,0,1,3.49,18.38C1552,1280.64,1522.16,1283.37,1496.27,1283.37Z"/><ellipse class="cls-2" cx="1952.75" cy="1428.65" rx="265.53" ry="147.72" transform="translate(89.37 2972.04) rotate(-75.82)"/><path class="cls-3" d="M1908.14,1693.93a88.2,88.2,0,0,1-21.72-2.69c-81.82-20.67-118.63-155.28-82.05-300.07s132.79-245.81,214.7-225.12,118.63,155.28,82,300.08h0C2067.74,1598.27,1984.59,1693.93,1908.14,1693.93Zm88.73-520c-71.46,0-150,92.49-182.2,219.83-35.14,139.11-1.79,267.94,74.34,287.17s166.65-78.32,201.81-217.42h0c35.14-139.1,1.79-267.93-74.34-287.16A79.85,79.85,0,0,0,1996.87,1173.94Z"/><ellipse class="cls-3" cx="2016.2" cy="1490.97" rx="111.39" ry="59.07" transform="translate(76.85 3080.63) rotate(-75.82)"/><ellipse class="cls-2" cx="2018.12" cy="1491.46" rx="55.7" ry="14.77" transform="translate(77.83 3082.85) rotate(-75.82)"/><ellipse class="cls-2" cx="2263.51" cy="1447.35" rx="265.53" ry="147.72" transform="translate(305.9 3287.47) rotate(-75.82)"/><path class="cls-3" d="M2219.38,1712.69a90.16,90.16,0,0,1-22.19-2.75c-81.82-20.66-118.62-155.28-82.05-300.08,17.59-69.62,49.26-131.34,89.21-173.78,40.7-43.25,85.3-61.49,125.49-51.33,81.82,20.67,118.62,155.28,82,300.08-17.59,69.62-49.26,131.34-89.21,173.78C2289.33,1694.05,2253.38,1712.69,2219.38,1712.69Zm88.3-520c-31.06,0-64.32,17.49-95.59,50.72-38.72,41.14-69.49,101.19-86.65,169.1-35.13,139.11-1.79,267.94,74.35,287.17,36.29,9.16,77.19-8,115.15-48.31,38.72-41.15,69.49-101.2,86.65-169.11,35.13-139.11,1.78-267.93-74.35-287.16A79.87,79.87,0,0,0,2307.68,1192.65Z"/><path class="cls-3" d="M2227.55,1588.89a5.18,5.18,0,0,1-2-.39,5.31,5.31,0,0,1-2.93-6.92c.45-1.11,44.81-111.67,22.83-158.66-4.26-9.14-10.65-15-19.54-17.83a25.35,25.35,0,0,0-22.79,3.11c-41.51,27.09-55.57,158.13-55.71,159.45a5.31,5.31,0,1,1-10.56-1.1c.58-5.59,14.74-137.41,60.46-167.24a35.82,35.82,0,0,1,31.86-4.33c11.68,3.75,20.41,11.64,25.92,23.44,23.92,51.19-20.71,162.44-22.63,167.15A5.29,5.29,0,0,1,2227.55,1588.89Z"/><ellipse class="cls-2" cx="2050.14" cy="1662.95" rx="97.39" ry="35.06"/><path class="cls-3" d="M2050.14,1703.33c-49.79,0-102.7-14.16-102.7-40.38s52.91-40.37,102.7-40.37,102.7,14.15,102.7,40.37S2099.93,1703.33,2050.14,1703.33Zm0-70.13c-52.7,0-92.08,15.71-92.08,29.75s39.38,29.75,92.08,29.75,92.07-15.71,92.07-29.75S2102.83,1633.2,2050.14,1633.2Z"/><path class="cls-3" d="M2090.81,1152.05a5.32,5.32,0,0,1-5.31-5.09c-.08-2.06-2.75-50.37-54.3-58-51.92-7.67-71.85,40.35-72,40.85a5.31,5.31,0,1,1-9.86-4c.23-.56,23.36-56.27,83.46-47.41,60.4,9,63.35,67.51,63.38,68.1a5.31,5.31,0,0,1-5.1,5.5Z"/><path class="cls-3" d="M2416.53,1175.39a5.31,5.31,0,0,1-5.3-5c-.11-2-3.48-50.3-68-58-65.28-7.83-89.61,39.22-90.61,41.22a5.31,5.31,0,0,1-9.52-4.71c.28-.56,28.34-55.88,101.39-47.06,73.68,8.84,77.31,67.47,77.33,68.06a5.31,5.31,0,0,1-5,5.56Z"/><circle class="cls-3" cx="393.79" cy="2619.41" r="52.26"/><circle class="cls-3" cx="653.9" cy="2610.44" r="52.26"/><path class="cls-3" d="M384.12,2611.78a8.69,8.69,0,0,1-4.32-1.15c-1.29-.74-31.49-18.49-30.05-60.45,1.23-35.42,38.36-48.66,57.83-50.71a8.77,8.77,0,1,1,1.83,17.44c-1.66.19-41.12,4.85-42.13,33.87-1.07,31.09,20.35,44.11,21.27,44.65a8.78,8.78,0,0,1-4.43,16.35Z"/><path class="cls-3" d="M666.32,2605.38a9,9,0,0,1-2.22-.28c-1.43-.38-35.21-9.63-44.78-50.52-8.06-34.51,24.34-57,42.59-64a8.77,8.77,0,0,1,6.32,16.36c-1.55.61-38.44,15.41-31.82,43.69,7.17,30.7,31.87,37.47,32.12,37.53a8.77,8.77,0,0,1-2.21,17.26Z"/><path class="cls-3" d="M170.3,2730.47a8.89,8.89,0,0,1-3-.53,8.78,8.78,0,0,1-5.25-11.25c.92-2.53,23.43-62,99.51-64.75a8.77,8.77,0,0,1,.64,17.52c-64.41,2.36-83.48,52.73-83.67,53.23A8.78,8.78,0,0,1,170.3,2730.47Z"/><path class="cls-3" d="M99.29,2619.18a8.76,8.76,0,0,1-4.37-16.37c1.82-1,45.8-25.15,147.86-8.45a8.77,8.77,0,0,1-2.83,17.31c-95-15.56-136,6.2-136.43,6.42A8.71,8.71,0,0,1,99.29,2619.18Z"/><path class="cls-3" d="M261.9,2544.13a8.86,8.86,0,0,1-1.77-.18c-2.73-.56-67-14.61-91.89-96a8.77,8.77,0,1,1,16.77-5.13c21.76,71.09,76.36,83.49,78.67,84a8.77,8.77,0,0,1-1.78,17.35Z"/><path class="cls-3" d="M915.63,2833.1a8.72,8.72,0,0,1-5.21-1.72l-115.27-85.27a8.77,8.77,0,0,1,10.42-14.1l115.28,85.27a8.77,8.77,0,0,1-5.22,15.82Z"/><path class="cls-3" d="M928.36,2701.81c-53.83,0-127.86-29.59-131.28-31a8.77,8.77,0,1,1,6.56-16.26c.88.36,88.5,35.4,137.7,28.93a8.77,8.77,0,0,1,2.28,17.39A116.74,116.74,0,0,1,928.36,2701.81Z"/><path class="cls-3" d="M813,2605.38a8.77,8.77,0,0,1-2-17.32c.91-.21,92-21.62,124.38-65.78a8.77,8.77,0,1,1,14.14,10.37c-36.25,49.43-130.6,71.59-134.6,72.51A8.81,8.81,0,0,1,813,2605.38Z"/><ellipse class="cls-2" cx="939.77" cy="1768.44" rx="78.33" ry="121.85"/><ellipse class="cls-2" cx="1135.92" cy="1729.32" rx="87.68" ry="136.39" transform="translate(-138.52 99.4) rotate(-4.72)"/><ellipse class="cls-3" cx="954.04" cy="1822.33" rx="38.99" ry="58.49"/><ellipse class="cls-3" cx="1173.5" cy="1775.31" rx="41.88" ry="65.36"/><ellipse class="cls-2" cx="958.75" cy="1798.25" rx="16.07" ry="20.8"/><ellipse class="cls-2" cx="1168.43" cy="1750.12" rx="16.07" ry="20.8"/><path class="cls-3" d="M884.08,1621.27a5.26,5.26,0,0,1-.89-.07,5.7,5.7,0,0,1-4.75-6.5c.37-2.34,9.51-57.59,61.72-83.46a5.69,5.69,0,1,1,5.05,10.2c-46.8,23.2-55.43,74.51-55.51,75A5.7,5.7,0,0,1,884.08,1621.27Z"/><path class="cls-3" d="M1246.1,1581.65a5.69,5.69,0,0,1-5.52-4.28c-20.61-80.26-88.62-94.35-89.31-94.49a5.7,5.7,0,1,1,2.18-11.18c.75.14,75.79,15.67,98.17,102.84a5.67,5.67,0,0,1-5.52,7.11Z"/><path class="cls-3" d="M1298.93,1652.29a5.84,5.84,0,0,1-1.58-.22,5.71,5.71,0,0,1-3.89-7.06c21.78-75.56-13.49-103-15-104.09a5.7,5.7,0,0,1,6.73-9.19c1.78,1.3,43.34,32.71,19.22,116.44A5.7,5.7,0,0,1,1298.93,1652.29Z"/><path class="cls-3" d="M767.56,1988.5c-30.28,46.43-18.38,109.1,24.52,164.26s91.93,76,136.06,28.19,78.45-143.41,20.84-204.7S804.34,1932.12,767.56,1988.5Z"/><ellipse class="cls-2" cx="849.69" cy="1983.6" rx="58.84" ry="33.1"/><path class="cls-3" d="M1314.27,2034.65a5.67,5.67,0,0,1-4.26-1.92c-35.45-40-100.92-31.32-101.58-31.23a5.7,5.7,0,1,1-1.61-11.29c2.91-.42,72.12-9.73,111.71,35a5.69,5.69,0,0,1-4.26,9.47Z"/><path class="cls-3" d="M1004.22,2258.27c-97.05,0-167.47-65.18-170.56-68.09a5.7,5.7,0,1,1,7.81-8.3c.77.71,77.1,71.22,176.26,64.54,64.5-4.28,210.94-94.85,249.29-245.61a5.7,5.7,0,0,1,11,2.81c-36.85,144.89-180.64,248.93-259.57,254.17C1013.68,2258.11,1008.91,2258.27,1004.22,2258.27Z"/><ellipse class="cls-3" cx="1822.15" cy="204.61" rx="35.59" ry="56.41" transform="translate(-6.74 335.97) rotate(-10.52)"/><ellipse class="cls-3" cx="2149.86" cy="162.13" rx="32.9" ry="52.94" transform="translate(18.52 487.06) rotate(-12.98)"/><ellipse class="cls-2" cx="1826.56" cy="195.63" rx="10.74" ry="21.49" transform="translate(2.73 415.3) rotate(-12.98)"/><ellipse class="cls-2" cx="2154.61" cy="151.46" rx="10.74" ry="21.49" transform="translate(21.04 487.86) rotate(-12.98)"/><path class="cls-3" d="M1545.39,335.3s-20.2,58.05,13.88,85.81,94.65,12.62,123.67-6.31S1786,321.41,1864.66,300c67.41-18.39,180.47-18.93,213.28,101,30.71,112.22-59.31,234.73-222.11,283.94-128.73,38.92-335.68-5.05-362.19-141.34S1545.39,335.3,1545.39,335.3Z"/><path class="cls-3" d="M2099.4,419.59c-16.83-65.73,8.44-151.88,92.81-151.88s147.66,14.77,166.65-8.44c14.66-17.92-6.33-42.18-6.33-42.18s40.08,7.38,56.95,69.61,19,167.7-64.33,220.43C2275.69,551.09,2133.15,551.43,2099.4,419.59Z"/><polygon class="cls-3" points="2035.35 812.38 1807.99 752.99 1836.67 1019.25 2041.73 853.16 2233.55 893.76 2227.46 683.68 2035.35 812.38"/><circle class="cls-3" cx="2147.47" cy="1857.04" r="32.05"/><path class="cls-3" d="M2204.48,2153.27a47,47,0,0,1-21.58-5.21,47.74,47.74,0,0,1-26.05-42.63,11.77,11.77,0,0,1,23.54,0,24.31,24.31,0,0,0,13.26,21.69c8.56,4.39,18.75,3.29,28.18-3,7.44-9.63,9.21-19.49,5.11-28.62a11.78,11.78,0,0,1,4.69-14.9,24.43,24.43,0,0,0,11.46-16.17c1.43-7.31-.59-15.11-5.84-22.64-9.61-6.79-20-8.19-28.85-3.83a24.22,24.22,0,0,0-13.58,21.85,11.77,11.77,0,0,1-23.54,0,47.64,47.64,0,0,1,26.68-43c17.3-8.54,37.8-5.86,54.89,7.19a11.67,11.67,0,0,1,2.27,2.28c9.93,13.22,13.87,28.36,11.09,42.62a47.8,47.8,0,0,1-14.73,26.07c3.43,15.17-.88,31.23-12.4,45.24h0a12.48,12.48,0,0,1-1.71,1.7C2226.91,2149.49,2215.53,2153.27,2204.48,2153.27Z"/><path class="cls-3" d="M2320.55,1947.57a11.77,11.77,0,0,1-11.74-11.08c-.54-9-4-11.45-5.13-12.25-6.44-4.47-18.9-2.11-22.77-.93a11.78,11.78,0,0,1-13.26-17.8c13.89-20.7,29.88-32.54,47.5-35.18a50.56,50.56,0,0,1,37.64,9.63A11.77,11.77,0,0,1,2338,1898.3a27,27,0,0,0-19.72-4.63,32.62,32.62,0,0,0-13.47,5.79,37.08,37.08,0,0,1,12.16,5.37c6.43,4.43,14.31,13.28,15.3,30.28a11.75,11.75,0,0,1-11.05,12.44C2321,1947.57,2320.78,1947.57,2320.55,1947.57Z"/><ellipse class="cls-3" cx="2058.91" cy="3074.52" rx="62.95" ry="121.05"/><ellipse class="cls-3" cx="2378.48" cy="3074.52" rx="62.95" ry="121.05"/><circle class="cls-2" cx="2073.7" cy="3036.32" r="34.43"/><circle class="cls-2" cx="2394.07" cy="3036.32" r="34.43"/><path class="cls-3" d="M2034.67,2889.41a17.86,17.86,0,0,1-2.82-.22,18.44,18.44,0,0,1-15.48-21c.43-2.81,4.73-27.86,24.73-41.94,8-5.67,21.65-11.66,41.29-7.73a18.47,18.47,0,0,1-7.15,36.24c-7.29-1.37-10.86.26-12.88,1.7-6.29,4.44-9.1,14.91-9.46,17.29A18.46,18.46,0,0,1,2034.67,2889.41Z"/><path class="cls-3" d="M2430.45,2896.88a18.48,18.48,0,0,1-18.26-15.92c-4.33-31.18-46.85-27-48.62-26.85a18.48,18.48,0,0,1-3.9-36.75c27.69-3,81.68,5.53,89.12,58.48a18.47,18.47,0,0,1-15.74,20.86A20.52,20.52,0,0,1,2430.45,2896.88Z"/><circle class="cls-3" cx="2183.04" cy="3189.38" r="28.35"/><path class="cls-3" d="M2087.4,3322c-17.49,49-40.57,156.57,88.86,168.17,114.7,10.29,150.57-106.69,161.82-182.16C2221.32,3365,2139.12,3349.65,2087.4,3322Z"/><path class="cls-3" d="M2198.72,3369.12a246.63,246.63,0,0,1-53.71-5.82c-90.09-20.06-131.64-85.36-133.37-88.1a18.49,18.49,0,0,1,31.37-19.6c.76,1.19,36.27,55.51,110.81,71.79,70.89,15.52,153.73-7,246.13-67a18.47,18.47,0,1,1,20.14,31C2340.43,3343.09,2266.26,3369.12,2198.72,3369.12Z"/><circle class="cls-2" cx="871.86" cy="3395.94" r="72.49"/><circle class="cls-2" cx="1165.18" cy="3477.17" r="58.66"/><circle class="cls-3" cx="1137.71" cy="3477.17" r="17.94"/><path class="cls-3" d="M909.13,3411.43a7.87,7.87,0,0,1-6.39-3.29c-1.26-1.68-13.58-16.77-40.09-5a7.85,7.85,0,1,1-6.38-14.34c9.27-4.13,18.11-5.15,25.07-5.73a59.92,59.92,0,0,0-21.38-3,7.76,7.76,0,0,1-8.32-7.32,7.84,7.84,0,0,1,7.28-8.35c17.3-1.13,51.69,5.21,57.93,37.76a7.87,7.87,0,0,1-7.72,9.33Z"/><polygon class="cls-3" points="959.86 3395.94 974.52 3385.79 900.07 3263.95 859.45 3288.77 959.86 3395.94"/><polygon class="cls-3" points="1103.13 3427.53 1215.94 3375.63 1227.23 3401.58 1107.64 3443.32 1103.13 3427.53"/><ellipse class="cls-2" cx="299.43" cy="1907.27" rx="57.52" ry="96.48"/><ellipse class="cls-2" cx="453.7" cy="1901.39" rx="57.52" ry="96.48"/><path class="cls-3" d="M333.46,1925.58a19,19,0,0,1-.54-38c-5.65-14.51-15-24.06-25.61-24.06-17.26,0-31.25,25.1-31.25,56.06s14,56.06,31.25,56.06c16.29,0,29.52-22.45,31-51A18.5,18.5,0,0,1,333.46,1925.58Z"/><circle class="cls-3" cx="325.16" cy="2061.93" r="46.73"/><path class="cls-3" d="M485.61,1914.46a19,19,0,0,1-.53-38c-5.7-11-13.79-18-22.84-18-17.26,0-31.25,25.1-31.25,56.06s14,56.07,31.25,56.07,31.25-25.1,31.25-56.07c0-.59-.09-1.15-.1-1.74A18.77,18.77,0,0,1,485.61,1914.46Z"/><ellipse class="cls-2" cx="319.73" cy="2033.95" rx="19.1" ry="9.72" transform="translate(-281.5 64.76) rotate(-8.04)"/><path class="cls-3" d="M637.49,1994.54c-40.59,14.56-89.16,32.9-108.51,73.84-10.43,24.89-.35,58.21,21.61,73.86,11.23,8.38,25.41,13,40,16.06,29.48,5.93,60.86,4,92.18,4.62-30.57,5.63-61.81,12.14-94.19,8-54.53-2.78-96.23-55.76-73.8-108.7,22.88-45.27,76.89-61.72,122.74-67.71Z"/><path class="cls-1" d="M354.56,2302.73c26.24,27.79,74.21,21.86,99.63-2.91,30.18-37.9,41.09-93,64.25-139-73.21,28.4-162.91,37.64-238.23,12.74C316.71,2208.22,318.72,2266.59,354.56,2302.73Z"/><path class="cls-3" d="M484,2009.88c-58-11.49-117.49-18-176.64-11.71-29.34,3.71-60.17,10.25-85,30.34a66.51,66.51,0,0,0-6.43,5.83,83.87,83.87,0,0,1,9.93,6.94C274.65,1988.14,425,2002.57,484,2009.88Z"/><path class="cls-3" d="M258.6,2158.26a92.56,92.56,0,0,1,18.12,14.12c1.16.4,2.33.77,3.49,1.16A90.77,90.77,0,0,0,258.6,2158.26Z"/><path class="cls-3" d="M532.54,2138.38c-66.13,32.34-207.76,52.16-282.59,6.63a83.45,83.45,0,0,1-7.61,12.36,235.79,235.79,0,0,0,34.38,15,92.56,92.56,0,0,0-18.12-14.12,90.77,90.77,0,0,1,21.61,15.28c75.32,24.9,165,15.66,238.23-12.74a216.85,216.85,0,0,1,11.38-20.1L539.4,2152c-6.8,3.12-13.81,6.05-21,8.83-23.16,46-34.07,101.12-64.25,139-25.42,24.77-73.39,30.7-99.63,2.91-35.84-36.14-37.85-94.51-74.35-129.19-1.16-.39-2.33-.76-3.49-1.16,37.06,37.12,34.32,97.36,71.47,136.69,29.27,32.35,83.48,28.37,114.79-.23,15.77-15,24-34.68,31.37-53,14.27-35.31,29-74,47.78-106.24C546.68,2143.6,539.32,2134.83,532.54,2138.38Z"/><path class="cls-3" d="M529.82,2140.7a216.85,216.85,0,0,0-11.38,20.1c7.15-2.78,14.16-5.71,21-8.83Z"/><path class="cls-3" d="M157.6,2195.66c22.66,2.8,46.62-4.83,65.49-19.17a91.87,91.87,0,0,0,19.25-19.12c-2.23-1.2-4.42-2.46-6.6-3.73C216.73,2180.66,183.06,2195.66,157.6,2195.66Z"/><path class="cls-3" d="M249.54,2095.1a80.08,80.08,0,0,1-6.3,45.53c2.17,1.53,4.41,3,6.71,4.38,17.82-35.79,6.27-79.17-24.12-103.73-1.27,1.38-2.46,2.84-3.59,4.32A77.77,77.77,0,0,1,249.54,2095.1Z"/><path class="cls-3" d="M215.9,2034.34a89.22,89.22,0,0,0-45.37-12.5,116.81,116.81,0,0,1,41.82,16.41C213.47,2036.91,214.66,2035.61,215.9,2034.34Z"/><path class="cls-3" d="M212.35,2038.25a94.68,94.68,0,0,1,9.89,7.35c1.13-1.48,2.32-2.94,3.59-4.32a83.87,83.87,0,0,0-9.93-6.94C214.66,2035.61,213.47,2036.91,212.35,2038.25Z"/><path class="cls-3" d="M243.24,2140.63a83.16,83.16,0,0,1-7.5,13c2.18,1.27,4.37,2.53,6.6,3.73A83.45,83.45,0,0,0,250,2145C247.65,2143.61,245.41,2142.16,243.24,2140.63Z"/><path class="cls-3" d="M235.74,2153.64c-.81-.47-1.64-.91-2.45-1.39q-2.14-1.27-4.17-2.69c-13.57,21.74-37.71,39.37-71.52,46.1h0C183.06,2195.66,216.73,2180.66,235.74,2153.64Z"/><path class="cls-3" d="M209.48,2042q1.36-1.89,2.87-3.71a116.81,116.81,0,0,0-41.82-16.41h0C186.17,2026.76,199.09,2033.7,209.48,2042Z"/><path class="cls-3" d="M249.54,2095.1a77.77,77.77,0,0,0-27.3-49.5,57.23,57.23,0,0,0-3.39,4.92c23.26,24.23,28.44,56.54,17.43,84.83,2.23,1.84,4.56,3.6,7,5.28A80.08,80.08,0,0,0,249.54,2095.1Z"/><path class="cls-3" d="M229.12,2149.56q2,1.41,4.17,2.69c.81.48,1.64.92,2.45,1.39a83.16,83.16,0,0,0,7.5-13c-2.4-1.68-4.73-3.44-7-5.28A86,86,0,0,1,229.12,2149.56Z"/><path class="cls-3" d="M218.85,2050.52a57.23,57.23,0,0,1,3.39-4.92,94.68,94.68,0,0,0-9.89-7.35q-1.5,1.82-2.87,3.71A93.13,93.13,0,0,1,218.85,2050.52Z"/><path class="cls-3" d="M225.47,1825.05c-5-55,41.89-109.74,94-66.31a181.55,181.55,0,0,1,14,15c-6.51-2.43-12.39-5.32-18.2-8.1-52.16-24.71-71.47,17.89-89.79,59.44Z"/><path class="cls-3" d="M408.82,1765.71c30.7-57.19,93.19-34.41,111.25,19.88a183.4,183.4,0,0,1,5.43,19.32c-4.63-5-8.53-10.22-12.44-15.36-29.75-40.43-59.89-57.68-104.24-23.84Z"/><path class="cls-3" d="M1795.69,3276.76c-13.43,5.25-29,18.15-37.59,25.8a75,75,0,0,1-5.45,12.84c-15.94,29.38-47.87,42.89-71.32,30.18-16.78-9.11-24.61-29.19-21.89-50.65-17,17.71-40.93,24.15-59.51,14.07-23.45-12.71-29.54-46.85-13.6-76.23a75.34,75.34,0,0,1,7.72-11.49c-.22-6.15.08-22.6,6.85-49.11,8.77-34.35,51.88-101.58,25.57-123.87s-83.67-1.09-101.58,35.08-17.9,73.44-14.25,112.54,7.32,92.52-18.27,103.41c-24.15,10.27-41-56.39-72.9-79.6-21.39-15.57-78.26-16.34-92.26,18.21-17.73,43.79,73.17,70.74,95,116.2,26.49,55.17,38.19,112.15,87.69,141.77,53,31.71,102,35.65,156.37,3.77,65.15-38.2,74.63-89.48,105.3-119.18s85-40.44,90.67-68.27S1831.39,3262.82,1795.69,3276.76Z"/><ellipse class="cls-3" cx="1628.49" cy="3256" rx="52.77" ry="42.11" transform="translate(-2010.04 3135.1) rotate(-61.52)"/><ellipse class="cls-3" cx="1710.75" cy="3292.98" rx="52.77" ry="42.11" transform="translate(-1999.51 3226.75) rotate(-61.52)"/><ellipse class="cls-2" cx="1542.03" cy="3375.45" rx="53.15" ry="33.28" transform="translate(-1993.22 4503.94) rotate(-83.15)"/><ellipse class="cls-2" cx="1636.51" cy="3386.8" rx="53.15" ry="33.28" transform="translate(-1921.28 4607.74) rotate(-83.15)"/><ellipse class="cls-3" cx="1543.18" cy="3365.89" rx="29.29" ry="18.53" transform="translate(-1982.72 4496.66) rotate(-83.15)"/><ellipse class="cls-2" cx="1580.97" cy="3463.79" rx="20.82" ry="14.05" transform="translate(-2046.63 4620.41) rotate(-83.15)"/><ellipse class="cls-3" cx="1639.02" cy="3377.4" rx="29.29" ry="18.53" transform="translate(-1909.73 4601.96) rotate(-83.15)"/><path class="cls-3" d="M350.37,3523.75c-145.7,0-260.16-97.45-261.76-98.82a9.79,9.79,0,0,1-2.93-10.23c.25-.8,24.48-81.86,20.06-194.64l-.18-4.49a9.8,9.8,0,0,1,6.73-9.62c74.4-24.38,263.2-98.83,409.23-262.95a9.8,9.8,0,0,1,13.67-.92c14.83,13.72,28.46,29.89,42.88,47,31.57,37.46,67.33,79.94,124.41,109.71a9.79,9.79,0,0,1,5,6.39c.51,2.12,12.34,52.93-3.07,123-14.16,64.33-55.1,157.63-169.75,236.67C471.72,3508.22,408.55,3523.75,350.37,3523.75ZM106.17,3414c32.53,25.64,226.64,166.25,417.39,34.71,191.86-132.3,170.8-305.85,165.71-334.81-58.06-31.39-94.18-74.29-126.14-112.24-11.63-13.81-22.73-27-33.81-38.14-143.77,157.57-325,232-404,258.66C128.81,3320,111.89,3392.61,106.17,3414Z"/><path class="cls-2" d="M498.49,2995.55c13.66,10.45,22.38,26.32,22.38,44.09,0,31.48-27.33,57-61.05,57a64.26,64.26,0,0,1-28.83-6.76,76.49,76.49,0,1,0,92.62-120.15Q511.21,2983.05,498.49,2995.55Z"/><path class="cls-2" d="M242.05,3202a57.92,57.92,0,0,1-82.3,52.61,80,80,0,0,0,122.46-101.07c-15.86,8.55-31.24,16.32-45.94,23.35A57.74,57.74,0,0,1,242.05,3202Z"/><path class="cls-3" d="M536.88,2955a9.75,9.75,0,0,0-1.43-12.65c-105-97-197.85-39-265.65,3.36-6.31,4-12.49,7.81-18.52,11.46C105,3045.61,101,3097.2,105.58,3215.62a9.8,9.8,0,0,0,4.17,7.65,9.9,9.9,0,0,0,5.59,1.74,10,10,0,0,0,3-.49l.52-.17A99.62,99.62,0,1,0,299.35,3144a1001.51,1001.51,0,0,0,100.21-64.54A96,96,0,1,0,536.88,2955Zm-1.27-.77c-2.37-1.48-4.8-2.87-7.3-4.14C530.81,2951.33,533.24,2952.72,535.61,2954.2Zm-321.17,322a79.81,79.81,0,0,1-54.69-21.65,57.9,57.9,0,0,0,76.52-77.72c14.7-7,30.08-14.8,45.94-23.35a80,80,0,0,1-67.77,122.72Zm195-228.67c-2.87,2.24-5.74,4.42-8.61,6.61s-5.71,4.35-8.57,6.47a977.74,977.74,0,0,1-104.86,67.73q-9,5-17.82,9.75c-15.48,8.28-30.48,15.79-44.8,22.58-35.1,16.64-66.13,29-90.38,37.66-2.86,1-5.64,2-8.31,2.94l-1.48.52c-.63-17.32-1-33.08-.47-47.75,2.53-67.88,25.14-112.4,137.24-180.19,6.12-3.69,12.38-7.61,18.78-11.6,41.29-25.79,85.85-53.62,135-53.62,28.14,0,57.78,9.17,89.15,33,3.54,2.7,7.1,5.53,10.68,8.6-3.54,3.88-7.11,7.68-10.7,11.46q-11.86,12.51-24,24.27A869.78,869.78,0,0,1,409.44,3047.54Zm75.61,64.76A76.28,76.28,0,0,1,431,3089.88a64.33,64.33,0,0,0,28.84,6.76c33.72,0,61.05-25.52,61.05-57,0-17.77-8.72-33.64-22.38-44.09q12.7-12.51,25.12-25.82a76.5,76.5,0,0,1-38.56,142.57Z"/><path class="cls-3" d="M374.39,3434.43c-21.73,0-42.14-4.12-56.63-13.94-14-9.47-21.58-23.47-22-40.49-.31-13.41,2.64-23,9-29.28,9.77-9.59,24-9,40.47-8.37,19.49.78,41.56,1.64,63.44-12.6,13-8.47,24.94-18.52,36.45-28.24,21.22-17.92,39.64-33.42,57.46-31.11,8.34,1,15.55,5.76,21.44,14,8.65,12.12,10.13,28.68,4.25,47.9-11.41,37.34-47.74,75.83-84.51,89.55A206.33,206.33,0,0,1,374.39,3434.43Zm-40.71-72.85c-6.95,0-12.64.61-15.14,3.07-2.28,2.24-3.39,7.38-3.21,14.89.24,10.73,4.63,18.83,13.39,24.77,24.48,16.58,74.06,12,108.29-.78,34.7-12.94,64.19-49.28,72.64-77,4-13,3.46-23.94-1.46-30.83-3.5-4.88-6.22-5.75-8-6-9.64-1.17-26.2,13-42.42,26.64-11.41,9.65-24.37,20.56-38.4,29.71h0c-27.1,17.64-54.71,16.55-74.88,15.73C340.77,3361.73,337.06,3361.58,333.68,3361.58ZM414.07,3338h0Z"/><path class="cls-3" d="M413.64,3238.31a9.51,9.51,0,0,1-8.85-5.87c-.91-2.19-8.2-22.08,14.56-48.1,14.94-17,28.86-10.66,32.76-8.31,13.36,8.06,18.49,29.52,11.45,47.85a9.77,9.77,0,1,1-18.24-7c4.15-10.77.76-21.63-3.3-24.08-2.53-1.53-6.73,3-8,4.45-14.65,16.73-11.25,27.56-11.11,28a9.84,9.84,0,0,1-9.31,13.07Z"/><path class="cls-3" d="M599.67,1260.16c13.1-4.94,19.67-20.92,23.37-33.91-1.11,16-4.77,34.34-20.16,43.27l-3.21-9.36Z"/><path class="cls-3" d="M623.06,1275.72c15.58-10.54,27.27-27.5,30.16-46.5a67.78,67.78,0,0,1-6.27,29.19,79.43,79.43,0,0,1-18,25.24l-5.91-7.93Z"/><path class="cls-3" d="M638.24,1290.52c12.71-3.1,22.64-14.39,29.08-25.68-4.24,14.2-12.2,28.32-26.33,35.17l-2.75-9.49Z"/><path class="cls-3" d="M170.47,1330.19c-14.82-9.89-26.2-25.86-27.91-43.58a51.27,51.27,0,0,0,12.69,21.29,60.81,60.81,0,0,0,19.65,13.44l-4.43,8.85Z"/><path class="cls-3" d="M209.92,1287.29c-11.47-11.12-19.93-26-21.17-41.85,3.28,11,10,20.16,18.46,27.55a61,61,0,0,0,8.57,6.33l-5.86,8Z"/><path class="cls-3" d="M184.8,1299c-16.67-5.73-23.7-22.66-24.91-38.63a109,109,0,0,1,.24-14.92,107.53,107.53,0,0,0,2.2,14.54c2.91,12.45,11.17,27,24.34,29.3L184.8,1299Z"/><path class="cls-2" d="M243.67,1402.25c-13.59-12.26,50.51-28.77,50.51-51.83,0-37.47-49.53-71.67-20.57-71.67a42,42,0,0,1,18.77,4.55,88.27,88.27,0,0,0-131.17,107.58,251.94,251.94,0,0,0,76.14,11.61C239.48,1402.49,241.55,1402.3,243.67,1402.25Z"/><path class="cls-2" d="M581.5,1390.71c-12-12.26,56.64-20.23,56.64-43.29,0-37.47-55.77-80.21-30.13-80.21a33.78,33.78,0,0,1,16.62,4.55,71.82,71.82,0,0,0-44.34-15.6c-43.17,0-78.17,39.52-78.17,88.28a98,98,0,0,0,6.37,34.9A199.72,199.72,0,0,0,575.91,1391C577.8,1391,579.63,1390.76,581.5,1390.71Z"/><path class="cls-3" d="M647.52,1299.56a85.35,85.35,0,0,0-22.89-27.8,33.78,33.78,0,0,0-16.62-4.55c-24.23,0-44.1,27.13-46.22,61.73l39.93,16.27-36,17.52c3.47,11.28,8.92,21,15.79,28a199.27,199.27,0,0,0,61.59-11.3c7-11.9,11.35-27.38,11.35-44.36A91.64,91.64,0,0,0,647.52,1299.56Z"/><path class="cls-3" d="M319,1310.42A92.19,92.19,0,0,0,291.42,1282a46.3,46.3,0,0,0-20-4.65c-29.17,0-53.09,27.73-55.64,63.1l48.06,16.62L220.49,1375c4.18,11.53,10.74,21.44,19,28.6A278,278,0,0,0,313.64,1392c8.5-12.16,13.67-28,13.67-45.34A81.55,81.55,0,0,0,319,1310.42Z"/><ellipse class="cls-2" cx="624.63" cy="1310.37" rx="9.86" ry="13.19"/><ellipse class="cls-2" cx="294.18" cy="1330.76" rx="15.24" ry="19.66"/><path class="cls-3" d="M606.82,1467a1.78,1.78,0,0,0-3.13,1.47c1.16,5.44,3.62,11.14,5.91,16.24l0,.06c-14.25,12.41-110.85,93.57-198,93.57H410.5c-6.7-.06-13.26,0-19.65,0-33.34.1-138.51-16.54-189.38-102.49q-6.06-10.49-12.21-22.35c-13-25.09-48.69-27.7-64.07-4-.52.81-1,1.64-1.52,2.5-20.85,36.46,5.45,123.33,126.6,123.33,13.67,0,25.92-.44,37-1.22,6.65,2.61,69.39,14.24,103.64,14.12,6.38,0,12.88,0,19.54,0h1.25c89.77,0,185.13-79.13,203.42-95.07a11.92,11.92,0,0,0,2.21,1.63c12.65,7.33,18.5,1.69,13.66-.84C616.54,1486.37,614.58,1476.93,606.82,1467Z"/></g></g></svg>