<svg xmlns="http://www.w3.org/2000/svg" xmlns:xlink="http://www.w3.org/1999/xlink" viewBox="0 0 1560.62 1266.83"><defs><style>.cls-1{fill:none;}.cls-2{clip-path:url(#clip-path);}</style><clipPath id="clip-path" transform="translate(0 0)"><rect class="cls-1" width="1560.62" height="1266.83"/></clipPath></defs><g id="Layer_2" data-name="Layer 2"><g id="Layer_1-2" data-name="Layer 1"><g class="cls-2"><path d="M286.15,188.31H73.37v35.77H286.15ZM132.07,22.3H288.9c72.46,0,131.16,59.62,131.16,132.07V192.9c0,72.45-58.7,132.07-131.16,132.07H142.16v34.85H144a71.63,71.63,0,0,1,71.54,71.54v90.8A105.48,105.48,0,0,1,110.06,627.63h-3.67A104.91,104.91,0,0,1,.91,522.16V154.37C.91,81.92,59.61,22.3,132.07,22.3" transform="translate(0 0)"/><path d="M438.39,351.27c0-58.69,46.77-106.38,105.47-106.38A105.88,105.88,0,0,1,650.25,351.27V522.78a105.89,105.89,0,0,1-106.39,106.4c-58.7,0-105.47-47.7-105.47-106.4ZM433.8,110.06A109.8,109.8,0,0,1,543.86,0c62.37,0,111,49.53,111,110.06,0,62.37-48.61,111.89-111,111.89-61.45,0-110.06-49.52-110.06-111.89" transform="translate(0 0)"/><path d="M676.51,466.84V286.16A61.45,61.45,0,0,1,738,224.71h10.09V155.92A131.52,131.52,0,0,1,880.12,23.85h92.63c72.46,0,131.16,58.7,131.16,132.07V177c0,72.46-58.7,132.08-131.16,132.08H748.05v34.85h224.7c72.46,0,131.16,59.61,131.16,132.07V497.1c0,72.46-58.7,132.08-131.16,132.08H848.93c-55.94,0-100.88-45.86-100.88-100.89H738a61.45,61.45,0,0,1-61.45-61.45" transform="translate(0 0)"/><path d="M1132.31,531v-410c0-54.11,44-97.22,98.13-97.22s98.14,43.11,98.14,97.22V224.7h35.77V121.07c0-54.11,44-97.22,98.14-97.22s98.13,43.11,98.13,97.22v73.37c0,72.46-59.61,132.07-132.07,132.07h-81.62v34.85h81.62c72.46,0,132.07,59.62,132.07,132.07V531a98.14,98.14,0,1,1-196.27,0V438.41h-35.77V531a98.14,98.14,0,1,1-196.27,0" transform="translate(0 0)"/><path d="M0,1163.16V945.87C0,894.8,41.79,853,92.86,853h44.57V783.37A133.15,133.15,0,0,1,271.14,649.66H443.86c73.35,0,133.71,59.42,133.71,133.71v379.79a99.36,99.36,0,0,1-198.71,0V853H342.64V1200.3c0,30.64-24.14,54.78-53.86,54.78s-53.85-24.14-53.85-54.78V853H198.71v310.15a99.36,99.36,0,0,1-198.71,0" transform="translate(0 0)"/><path d="M1428.2,1266.83l-685.93-1.45c-73.37,0-132.07-60.53-132.07-133V790.29A131.52,131.52,0,0,1,742.27,658.22l734.54,1.45a83.17,83.17,0,0,1,83.46,83.46c0,45.86-37.6,83.46-83.46,83.46l-795.07-1.45v35.77l757.47,1.45c28.43,0,49.52,22,49.52,49.53a49.32,49.32,0,0,1-49.52,49.52L681.74,960v35.77l746.46,1.44c72.46,0,132.07,59.62,132.07,132.07v4.59c0,72.46-59.61,133-132.07,133" transform="translate(0 0)"/></g></g></g></svg>