<?xml version="1.0" encoding="utf-8"?>
<!-- Generator: Adobe Illustrator 26.0.2, SVG Export Plug-In . SVG Version: 6.00 Build 0)  -->
<svg version="1.1" id="Layer_1" xmlns="http://www.w3.org/2000/svg" xmlns:xlink="http://www.w3.org/1999/xlink" x="0px" y="0px"
	 viewBox="0 0 270 270" style="enable-background:new 0 0 270 270;" xml:space="preserve">
<style type="text/css">
	.st0{fill:#FFFFFF;}
	.st1{fill:#FF002C;}
</style>
<desc>https://dahyunhwang.com/</desc>
<path class="st0" d="M5,0h260c2.8,0,5,2.2,5,5v260c0,2.8-2.2,5-5,5H5c-2.8,0-5-2.2-5-5V5C0,2.2,2.2,0,5,0z"/>
<g id="elements">
	<path d="M15,10L15,10c2.8,0,5,2.2,5,5l0,0c0,2.8-2.2,5-5,5l0,0c-2.8,0-5-2.2-5-5l0,0C10,12.2,12.2,10,15,10z M25,10L25,10
		c2.8,0,5,2.2,5,5l0,0c0,2.8-2.2,5-5,5l0,0c-2.8,0-5-2.2-5-5l0,0C20,12.2,22.2,10,25,10z M35,10L35,10c2.8,0,5,2.2,5,5l0,0
		c0,2.8-2.2,5-5,5l0,0c-2.8,0-5-2.2-5-5l0,0C30,12.2,32.2,10,35,10z M45,10L45,10c2.8,0,5,2.2,5,5l0,0c0,2.8-2.2,5-5,5l0,0
		c-2.8,0-5-2.2-5-5l0,0C40,12.2,42.2,10,45,10z M55,10L55,10c2.8,0,5,2.2,5,5l0,0c0,2.8-2.2,5-5,5l0,0c-2.8,0-5-2.2-5-5l0,0
		C50,12.2,52.2,10,55,10z M65,10L65,10c2.8,0,5,2.2,5,5l0,0c0,2.8-2.2,5-5,5l0,0c-2.8,0-5-2.2-5-5l0,0C60,12.2,62.2,10,65,10z
		 M75,10L75,10c2.8,0,5,2.2,5,5l0,0c0,2.8-2.2,5-5,5l0,0c-2.8,0-5-2.2-5-5l0,0C70,12.2,72.2,10,75,10z M105,10L105,10
		c2.8,0,5,2.2,5,5l0,0c0,2.8-2.2,5-5,5l0,0c-2.8,0-5-2.2-5-5l0,0C100,12.2,102.2,10,105,10z M145,10L145,10c2.8,0,5,2.2,5,5l0,0
		c0,2.8-2.2,5-5,5l0,0c-2.8,0-5-2.2-5-5l0,0C140,12.2,142.2,10,145,10z M175,10L175,10c2.8,0,5,2.2,5,5l0,0c0,2.8-2.2,5-5,5l0,0
		c-2.8,0-5-2.2-5-5l0,0C170,12.2,172.2,10,175,10z M195,10L195,10c2.8,0,5,2.2,5,5l0,0c0,2.8-2.2,5-5,5l0,0c-2.8,0-5-2.2-5-5l0,0
		C190,12.2,192.2,10,195,10z M205,10L205,10c2.8,0,5,2.2,5,5l0,0c0,2.8-2.2,5-5,5l0,0c-2.8,0-5-2.2-5-5l0,0
		C200,12.2,202.2,10,205,10z M215,10L215,10c2.8,0,5,2.2,5,5l0,0c0,2.8-2.2,5-5,5l0,0c-2.8,0-5-2.2-5-5l0,0
		C210,12.2,212.2,10,215,10z M225,10L225,10c2.8,0,5,2.2,5,5l0,0c0,2.8-2.2,5-5,5l0,0c-2.8,0-5-2.2-5-5l0,0
		C220,12.2,222.2,10,225,10z M235,10L235,10c2.8,0,5,2.2,5,5l0,0c0,2.8-2.2,5-5,5l0,0c-2.8,0-5-2.2-5-5l0,0
		C230,12.2,232.2,10,235,10z M245,10L245,10c2.8,0,5,2.2,5,5l0,0c0,2.8-2.2,5-5,5l0,0c-2.8,0-5-2.2-5-5l0,0
		C240,12.2,242.2,10,245,10z M255,10L255,10c2.8,0,5,2.2,5,5l0,0c0,2.8-2.2,5-5,5l0,0c-2.8,0-5-2.2-5-5l0,0
		C250,12.2,252.2,10,255,10z M15,20L15,20c2.8,0,5,2.2,5,5l0,0c0,2.8-2.2,5-5,5l0,0c-2.8,0-5-2.2-5-5l0,0C10,22.2,12.2,20,15,20z
		 M75,20L75,20c2.8,0,5,2.2,5,5l0,0c0,2.8-2.2,5-5,5l0,0c-2.8,0-5-2.2-5-5l0,0C70,22.2,72.2,20,75,20z M95,20L95,20c2.8,0,5,2.2,5,5
		l0,0c0,2.8-2.2,5-5,5l0,0c-2.8,0-5-2.2-5-5l0,0C90,22.2,92.2,20,95,20z M105,20L105,20c2.8,0,5,2.2,5,5l0,0c0,2.8-2.2,5-5,5l0,0
		c-2.8,0-5-2.2-5-5l0,0C100,22.2,102.2,20,105,20z M125,20L125,20c2.8,0,5,2.2,5,5l0,0c0,2.8-2.2,5-5,5l0,0c-2.8,0-5-2.2-5-5l0,0
		C120,22.2,122.2,20,125,20z M135,20L135,20c2.8,0,5,2.2,5,5l0,0c0,2.8-2.2,5-5,5l0,0c-2.8,0-5-2.2-5-5l0,0
		C130,22.2,132.2,20,135,20z M145,20L145,20c2.8,0,5,2.2,5,5l0,0c0,2.8-2.2,5-5,5l0,0c-2.8,0-5-2.2-5-5l0,0
		C140,22.2,142.2,20,145,20z M155,20L155,20c2.8,0,5,2.2,5,5l0,0c0,2.8-2.2,5-5,5l0,0c-2.8,0-5-2.2-5-5l0,0
		C150,22.2,152.2,20,155,20z M165,20L165,20c2.8,0,5,2.2,5,5l0,0c0,2.8-2.2,5-5,5l0,0c-2.8,0-5-2.2-5-5l0,0
		C160,22.2,162.2,20,165,20z M175,20L175,20c2.8,0,5,2.2,5,5l0,0c0,2.8-2.2,5-5,5l0,0c-2.8,0-5-2.2-5-5l0,0
		C170,22.2,172.2,20,175,20z M195,20L195,20c2.8,0,5,2.2,5,5l0,0c0,2.8-2.2,5-5,5l0,0c-2.8,0-5-2.2-5-5l0,0
		C190,22.2,192.2,20,195,20z M255,20L255,20c2.8,0,5,2.2,5,5l0,0c0,2.8-2.2,5-5,5l0,0c-2.8,0-5-2.2-5-5l0,0
		C250,22.2,252.2,20,255,20z M15,30L15,30c2.8,0,5,2.2,5,5l0,0c0,2.8-2.2,5-5,5l0,0c-2.8,0-5-2.2-5-5l0,0C10,32.2,12.2,30,15,30z
		 M35,30L35,30c2.8,0,5,2.2,5,5l0,0c0,2.8-2.2,5-5,5l0,0c-2.8,0-5-2.2-5-5l0,0C30,32.2,32.2,30,35,30z M45,30L45,30c2.8,0,5,2.2,5,5
		l0,0c0,2.8-2.2,5-5,5l0,0c-2.8,0-5-2.2-5-5l0,0C40,32.2,42.2,30,45,30z M55,30L55,30c2.8,0,5,2.2,5,5l0,0c0,2.8-2.2,5-5,5l0,0
		c-2.8,0-5-2.2-5-5l0,0C50,32.2,52.2,30,55,30z M75,30L75,30c2.8,0,5,2.2,5,5l0,0c0,2.8-2.2,5-5,5l0,0c-2.8,0-5-2.2-5-5l0,0
		C70,32.2,72.2,30,75,30z M105,30L105,30c2.8,0,5,2.2,5,5l0,0c0,2.8-2.2,5-5,5l0,0c-2.8,0-5-2.2-5-5l0,0C100,32.2,102.2,30,105,30z
		 M115,30L115,30c2.8,0,5,2.2,5,5l0,0c0,2.8-2.2,5-5,5l0,0c-2.8,0-5-2.2-5-5l0,0C110,32.2,112.2,30,115,30z M125,30L125,30
		c2.8,0,5,2.2,5,5l0,0c0,2.8-2.2,5-5,5l0,0c-2.8,0-5-2.2-5-5l0,0C120,32.2,122.2,30,125,30z M165,30L165,30c2.8,0,5,2.2,5,5l0,0
		c0,2.8-2.2,5-5,5l0,0c-2.8,0-5-2.2-5-5l0,0C160,32.2,162.2,30,165,30z M195,30L195,30c2.8,0,5,2.2,5,5l0,0c0,2.8-2.2,5-5,5l0,0
		c-2.8,0-5-2.2-5-5l0,0C190,32.2,192.2,30,195,30z M215,30L215,30c2.8,0,5,2.2,5,5l0,0c0,2.8-2.2,5-5,5l0,0c-2.8,0-5-2.2-5-5l0,0
		C210,32.2,212.2,30,215,30z M225,30L225,30c2.8,0,5,2.2,5,5l0,0c0,2.8-2.2,5-5,5l0,0c-2.8,0-5-2.2-5-5l0,0
		C220,32.2,222.2,30,225,30z M235,30L235,30c2.8,0,5,2.2,5,5l0,0c0,2.8-2.2,5-5,5l0,0c-2.8,0-5-2.2-5-5l0,0
		C230,32.2,232.2,30,235,30z M255,30L255,30c2.8,0,5,2.2,5,5l0,0c0,2.8-2.2,5-5,5l0,0c-2.8,0-5-2.2-5-5l0,0
		C250,32.2,252.2,30,255,30z M15,40L15,40c2.8,0,5,2.2,5,5l0,0c0,2.8-2.2,5-5,5l0,0c-2.8,0-5-2.2-5-5l0,0C10,42.2,12.2,40,15,40z
		 M35,40L35,40c2.8,0,5,2.2,5,5l0,0c0,2.8-2.2,5-5,5l0,0c-2.8,0-5-2.2-5-5l0,0C30,42.2,32.2,40,35,40z M45,40L45,40c2.8,0,5,2.2,5,5
		l0,0c0,2.8-2.2,5-5,5l0,0c-2.8,0-5-2.2-5-5l0,0C40,42.2,42.2,40,45,40z M55,40L55,40c2.8,0,5,2.2,5,5l0,0c0,2.8-2.2,5-5,5l0,0
		c-2.8,0-5-2.2-5-5l0,0C50,42.2,52.2,40,55,40z M75,40L75,40c2.8,0,5,2.2,5,5l0,0c0,2.8-2.2,5-5,5l0,0c-2.8,0-5-2.2-5-5l0,0
		C70,42.2,72.2,40,75,40z M95,40L95,40c2.8,0,5,2.2,5,5l0,0c0,2.8-2.2,5-5,5l0,0c-2.8,0-5-2.2-5-5l0,0C90,42.2,92.2,40,95,40z
		 M105,40L105,40c2.8,0,5,2.2,5,5l0,0c0,2.8-2.2,5-5,5l0,0c-2.8,0-5-2.2-5-5l0,0C100,42.2,102.2,40,105,40z M125,40L125,40
		c2.8,0,5,2.2,5,5l0,0c0,2.8-2.2,5-5,5l0,0c-2.8,0-5-2.2-5-5l0,0C120,42.2,122.2,40,125,40z M145,40L145,40c2.8,0,5,2.2,5,5l0,0
		c0,2.8-2.2,5-5,5l0,0c-2.8,0-5-2.2-5-5l0,0C140,42.2,142.2,40,145,40z M155,40L155,40c2.8,0,5,2.2,5,5l0,0c0,2.8-2.2,5-5,5l0,0
		c-2.8,0-5-2.2-5-5l0,0C150,42.2,152.2,40,155,40z M165,40L165,40c2.8,0,5,2.2,5,5l0,0c0,2.8-2.2,5-5,5l0,0c-2.8,0-5-2.2-5-5l0,0
		C160,42.2,162.2,40,165,40z M195,40L195,40c2.8,0,5,2.2,5,5l0,0c0,2.8-2.2,5-5,5l0,0c-2.8,0-5-2.2-5-5l0,0
		C190,42.2,192.2,40,195,40z M215,40L215,40c2.8,0,5,2.2,5,5l0,0c0,2.8-2.2,5-5,5l0,0c-2.8,0-5-2.2-5-5l0,0
		C210,42.2,212.2,40,215,40z M225,40L225,40c2.8,0,5,2.2,5,5l0,0c0,2.8-2.2,5-5,5l0,0c-2.8,0-5-2.2-5-5l0,0
		C220,42.2,222.2,40,225,40z M235,40L235,40c2.8,0,5,2.2,5,5l0,0c0,2.8-2.2,5-5,5l0,0c-2.8,0-5-2.2-5-5l0,0
		C230,42.2,232.2,40,235,40z M255,40L255,40c2.8,0,5,2.2,5,5l0,0c0,2.8-2.2,5-5,5l0,0c-2.8,0-5-2.2-5-5l0,0
		C250,42.2,252.2,40,255,40z M15,50L15,50c2.8,0,5,2.2,5,5l0,0c0,2.8-2.2,5-5,5l0,0c-2.8,0-5-2.2-5-5l0,0C10,52.2,12.2,50,15,50z
		 M35,50L35,50c2.8,0,5,2.2,5,5l0,0c0,2.8-2.2,5-5,5l0,0c-2.8,0-5-2.2-5-5l0,0C30,52.2,32.2,50,35,50z M45,50L45,50c2.8,0,5,2.2,5,5
		l0,0c0,2.8-2.2,5-5,5l0,0c-2.8,0-5-2.2-5-5l0,0C40,52.2,42.2,50,45,50z M55,50L55,50c2.8,0,5,2.2,5,5l0,0c0,2.8-2.2,5-5,5l0,0
		c-2.8,0-5-2.2-5-5l0,0C50,52.2,52.2,50,55,50z M75,50L75,50c2.8,0,5,2.2,5,5l0,0c0,2.8-2.2,5-5,5l0,0c-2.8,0-5-2.2-5-5l0,0
		C70,52.2,72.2,50,75,50z M115,50L115,50c2.8,0,5,2.2,5,5l0,0c0,2.8-2.2,5-5,5l0,0c-2.8,0-5-2.2-5-5l0,0C110,52.2,112.2,50,115,50z
		 M135,50L135,50c2.8,0,5,2.2,5,5l0,0c0,2.8-2.2,5-5,5l0,0c-2.8,0-5-2.2-5-5l0,0C130,52.2,132.2,50,135,50z M175,50L175,50
		c2.8,0,5,2.2,5,5l0,0c0,2.8-2.2,5-5,5l0,0c-2.8,0-5-2.2-5-5l0,0C170,52.2,172.2,50,175,50z M195,50L195,50c2.8,0,5,2.2,5,5l0,0
		c0,2.8-2.2,5-5,5l0,0c-2.8,0-5-2.2-5-5l0,0C190,52.2,192.2,50,195,50z M215,50L215,50c2.8,0,5,2.2,5,5l0,0c0,2.8-2.2,5-5,5l0,0
		c-2.8,0-5-2.2-5-5l0,0C210,52.2,212.2,50,215,50z M225,50L225,50c2.8,0,5,2.2,5,5l0,0c0,2.8-2.2,5-5,5l0,0c-2.8,0-5-2.2-5-5l0,0
		C220,52.2,222.2,50,225,50z M235,50L235,50c2.8,0,5,2.2,5,5l0,0c0,2.8-2.2,5-5,5l0,0c-2.8,0-5-2.2-5-5l0,0
		C230,52.2,232.2,50,235,50z M255,50L255,50c2.8,0,5,2.2,5,5l0,0c0,2.8-2.2,5-5,5l0,0c-2.8,0-5-2.2-5-5l0,0
		C250,52.2,252.2,50,255,50z M15,60L15,60c2.8,0,5,2.2,5,5l0,0c0,2.8-2.2,5-5,5l0,0c-2.8,0-5-2.2-5-5l0,0C10,62.2,12.2,60,15,60z
		 M75,60L75,60c2.8,0,5,2.2,5,5l0,0c0,2.8-2.2,5-5,5l0,0c-2.8,0-5-2.2-5-5l0,0C70,62.2,72.2,60,75,60z M95,60L95,60c2.8,0,5,2.2,5,5
		l0,0c0,2.8-2.2,5-5,5l0,0c-2.8,0-5-2.2-5-5l0,0C90,62.2,92.2,60,95,60z M115,60L115,60c2.8,0,5,2.2,5,5l0,0c0,2.8-2.2,5-5,5l0,0
		c-2.8,0-5-2.2-5-5l0,0C110,62.2,112.2,60,115,60z M145,60L145,60c2.8,0,5,2.2,5,5l0,0c0,2.8-2.2,5-5,5l0,0c-2.8,0-5-2.2-5-5l0,0
		C140,62.2,142.2,60,145,60z M155,60L155,60c2.8,0,5,2.2,5,5l0,0c0,2.8-2.2,5-5,5l0,0c-2.8,0-5-2.2-5-5l0,0
		C150,62.2,152.2,60,155,60z M165,60L165,60c2.8,0,5,2.2,5,5l0,0c0,2.8-2.2,5-5,5l0,0c-2.8,0-5-2.2-5-5l0,0
		C160,62.2,162.2,60,165,60z M175,60L175,60c2.8,0,5,2.2,5,5l0,0c0,2.8-2.2,5-5,5l0,0c-2.8,0-5-2.2-5-5l0,0
		C170,62.2,172.2,60,175,60z M195,60L195,60c2.8,0,5,2.2,5,5l0,0c0,2.8-2.2,5-5,5l0,0c-2.8,0-5-2.2-5-5l0,0
		C190,62.2,192.2,60,195,60z M255,60L255,60c2.8,0,5,2.2,5,5l0,0c0,2.8-2.2,5-5,5l0,0c-2.8,0-5-2.2-5-5l0,0
		C250,62.2,252.2,60,255,60z M15,70L15,70c2.8,0,5,2.2,5,5l0,0c0,2.8-2.2,5-5,5l0,0c-2.8,0-5-2.2-5-5l0,0C10,72.2,12.2,70,15,70z
		 M25,70L25,70c2.8,0,5,2.2,5,5l0,0c0,2.8-2.2,5-5,5l0,0c-2.8,0-5-2.2-5-5l0,0C20,72.2,22.2,70,25,70z M35,70L35,70c2.8,0,5,2.2,5,5
		l0,0c0,2.8-2.2,5-5,5l0,0c-2.8,0-5-2.2-5-5l0,0C30,72.2,32.2,70,35,70z M45,70L45,70c2.8,0,5,2.2,5,5l0,0c0,2.8-2.2,5-5,5l0,0
		c-2.8,0-5-2.2-5-5l0,0C40,72.2,42.2,70,45,70z M55,70L55,70c2.8,0,5,2.2,5,5l0,0c0,2.8-2.2,5-5,5l0,0c-2.8,0-5-2.2-5-5l0,0
		C50,72.2,52.2,70,55,70z M65,70L65,70c2.8,0,5,2.2,5,5l0,0c0,2.8-2.2,5-5,5l0,0c-2.8,0-5-2.2-5-5l0,0C60,72.2,62.2,70,65,70z
		 M75,70L75,70c2.8,0,5,2.2,5,5l0,0c0,2.8-2.2,5-5,5l0,0c-2.8,0-5-2.2-5-5l0,0C70,72.2,72.2,70,75,70z M95,70L95,70c2.8,0,5,2.2,5,5
		l0,0c0,2.8-2.2,5-5,5l0,0c-2.8,0-5-2.2-5-5l0,0C90,72.2,92.2,70,95,70z M115,70L115,70c2.8,0,5,2.2,5,5l0,0c0,2.8-2.2,5-5,5l0,0
		c-2.8,0-5-2.2-5-5l0,0C110,72.2,112.2,70,115,70z M135,70L135,70c2.8,0,5,2.2,5,5l0,0c0,2.8-2.2,5-5,5l0,0c-2.8,0-5-2.2-5-5l0,0
		C130,72.2,132.2,70,135,70z M155,70L155,70c2.8,0,5,2.2,5,5l0,0c0,2.8-2.2,5-5,5l0,0c-2.8,0-5-2.2-5-5l0,0
		C150,72.2,152.2,70,155,70z M175,70L175,70c2.8,0,5,2.2,5,5l0,0c0,2.8-2.2,5-5,5l0,0c-2.8,0-5-2.2-5-5l0,0
		C170,72.2,172.2,70,175,70z M195,70L195,70c2.8,0,5,2.2,5,5l0,0c0,2.8-2.2,5-5,5l0,0c-2.8,0-5-2.2-5-5l0,0
		C190,72.2,192.2,70,195,70z M205,70L205,70c2.8,0,5,2.2,5,5l0,0c0,2.8-2.2,5-5,5l0,0c-2.8,0-5-2.2-5-5l0,0
		C200,72.2,202.2,70,205,70z M215,70L215,70c2.8,0,5,2.2,5,5l0,0c0,2.8-2.2,5-5,5l0,0c-2.8,0-5-2.2-5-5l0,0
		C210,72.2,212.2,70,215,70z M225,70L225,70c2.8,0,5,2.2,5,5l0,0c0,2.8-2.2,5-5,5l0,0c-2.8,0-5-2.2-5-5l0,0
		C220,72.2,222.2,70,225,70z M235,70L235,70c2.8,0,5,2.2,5,5l0,0c0,2.8-2.2,5-5,5l0,0c-2.8,0-5-2.2-5-5l0,0
		C230,72.2,232.2,70,235,70z M245,70L245,70c2.8,0,5,2.2,5,5l0,0c0,2.8-2.2,5-5,5l0,0c-2.8,0-5-2.2-5-5l0,0
		C240,72.2,242.2,70,245,70z M255,70L255,70c2.8,0,5,2.2,5,5l0,0c0,2.8-2.2,5-5,5l0,0c-2.8,0-5-2.2-5-5l0,0
		C250,72.2,252.2,70,255,70z M135,80L135,80c2.8,0,5,2.2,5,5l0,0c0,2.8-2.2,5-5,5l0,0c-2.8,0-5-2.2-5-5l0,0
		C130,82.2,132.2,80,135,80z M155,80L155,80c2.8,0,5,2.2,5,5l0,0c0,2.8-2.2,5-5,5l0,0c-2.8,0-5-2.2-5-5l0,0
		C150,82.2,152.2,80,155,80z M175,80L175,80c2.8,0,5,2.2,5,5l0,0c0,2.8-2.2,5-5,5l0,0c-2.8,0-5-2.2-5-5l0,0
		C170,82.2,172.2,80,175,80z M15,90L15,90c2.8,0,5,2.2,5,5l0,0c0,2.8-2.2,5-5,5l0,0c-2.8,0-5-2.2-5-5l0,0C10,92.2,12.2,90,15,90z
		 M25,90L25,90c2.8,0,5,2.2,5,5l0,0c0,2.8-2.2,5-5,5l0,0c-2.8,0-5-2.2-5-5l0,0C20,92.2,22.2,90,25,90z M35,90L35,90c2.8,0,5,2.2,5,5
		l0,0c0,2.8-2.2,5-5,5l0,0c-2.8,0-5-2.2-5-5l0,0C30,92.2,32.2,90,35,90z M45,90L45,90c2.8,0,5,2.2,5,5l0,0c0,2.8-2.2,5-5,5l0,0
		c-2.8,0-5-2.2-5-5l0,0C40,92.2,42.2,90,45,90z M55,90L55,90c2.8,0,5,2.2,5,5l0,0c0,2.8-2.2,5-5,5l0,0c-2.8,0-5-2.2-5-5l0,0
		C50,92.2,52.2,90,55,90z M75,90L75,90c2.8,0,5,2.2,5,5l0,0c0,2.8-2.2,5-5,5l0,0c-2.8,0-5-2.2-5-5l0,0C70,92.2,72.2,90,75,90z
		 M85,90L85,90c2.8,0,5,2.2,5,5l0,0c0,2.8-2.2,5-5,5l0,0c-2.8,0-5-2.2-5-5l0,0C80,92.2,82.2,90,85,90z M95,90L95,90c2.8,0,5,2.2,5,5
		l0,0c0,2.8-2.2,5-5,5l0,0c-2.8,0-5-2.2-5-5l0,0C90,92.2,92.2,90,95,90z M105,90L105,90c2.8,0,5,2.2,5,5l0,0c0,2.8-2.2,5-5,5l0,0
		c-2.8,0-5-2.2-5-5l0,0C100,92.2,102.2,90,105,90z M115,90L115,90c2.8,0,5,2.2,5,5l0,0c0,2.8-2.2,5-5,5l0,0c-2.8,0-5-2.2-5-5l0,0
		C110,92.2,112.2,90,115,90z M135,90L135,90c2.8,0,5,2.2,5,5l0,0c0,2.8-2.2,5-5,5l0,0c-2.8,0-5-2.2-5-5l0,0
		C130,92.2,132.2,90,135,90z M145,90L145,90c2.8,0,5,2.2,5,5l0,0c0,2.8-2.2,5-5,5l0,0c-2.8,0-5-2.2-5-5l0,0
		C140,92.2,142.2,90,145,90z M165,90L165,90c2.8,0,5,2.2,5,5l0,0c0,2.8-2.2,5-5,5l0,0c-2.8,0-5-2.2-5-5l0,0
		C160,92.2,162.2,90,165,90z M175,90L175,90c2.8,0,5,2.2,5,5l0,0c0,2.8-2.2,5-5,5l0,0c-2.8,0-5-2.2-5-5l0,0
		C170,92.2,172.2,90,175,90z M185,90L185,90c2.8,0,5,2.2,5,5l0,0c0,2.8-2.2,5-5,5l0,0c-2.8,0-5-2.2-5-5l0,0
		C180,92.2,182.2,90,185,90z M205,90L205,90c2.8,0,5,2.2,5,5l0,0c0,2.8-2.2,5-5,5l0,0c-2.8,0-5-2.2-5-5l0,0
		C200,92.2,202.2,90,205,90z M225,90L225,90c2.8,0,5,2.2,5,5l0,0c0,2.8-2.2,5-5,5l0,0c-2.8,0-5-2.2-5-5l0,0
		C220,92.2,222.2,90,225,90z M245,90L245,90c2.8,0,5,2.2,5,5l0,0c0,2.8-2.2,5-5,5l0,0c-2.8,0-5-2.2-5-5l0,0
		C240,92.2,242.2,90,245,90z M45,100L45,100c2.8,0,5,2.2,5,5l0,0c0,2.8-2.2,5-5,5l0,0c-2.8,0-5-2.2-5-5l0,0
		C40,102.2,42.2,100,45,100z M85,100L85,100c2.8,0,5,2.2,5,5l0,0c0,2.8-2.2,5-5,5l0,0c-2.8,0-5-2.2-5-5l0,0
		C80,102.2,82.2,100,85,100z M105,100L105,100c2.8,0,5,2.2,5,5l0,0c0,2.8-2.2,5-5,5l0,0c-2.8,0-5-2.2-5-5l0,0
		C100,102.2,102.2,100,105,100z M145,100L145,100c2.8,0,5,2.2,5,5l0,0c0,2.8-2.2,5-5,5l0,0c-2.8,0-5-2.2-5-5l0,0
		C140,102.2,142.2,100,145,100z M175,100L175,100c2.8,0,5,2.2,5,5l0,0c0,2.8-2.2,5-5,5l0,0c-2.8,0-5-2.2-5-5l0,0
		C170,102.2,172.2,100,175,100z M205,100L205,100c2.8,0,5,2.2,5,5l0,0c0,2.8-2.2,5-5,5l0,0c-2.8,0-5-2.2-5-5l0,0
		C200,102.2,202.2,100,205,100z M245,100L245,100c2.8,0,5,2.2,5,5l0,0c0,2.8-2.2,5-5,5l0,0c-2.8,0-5-2.2-5-5l0,0
		C240,102.2,242.2,100,245,100z M15,110L15,110c2.8,0,5,2.2,5,5l0,0c0,2.8-2.2,5-5,5l0,0c-2.8,0-5-2.2-5-5l0,0
		C10,112.2,12.2,110,15,110z M45,110L45,110c2.8,0,5,2.2,5,5l0,0c0,2.8-2.2,5-5,5l0,0c-2.8,0-5-2.2-5-5l0,0
		C40,112.2,42.2,110,45,110z M55,110L55,110c2.8,0,5,2.2,5,5l0,0c0,2.8-2.2,5-5,5l0,0c-2.8,0-5-2.2-5-5l0,0
		C50,112.2,52.2,110,55,110z M75,110L75,110c2.8,0,5,2.2,5,5l0,0c0,2.8-2.2,5-5,5l0,0c-2.8,0-5-2.2-5-5l0,0
		C70,112.2,72.2,110,75,110z M95,110L95,110c2.8,0,5,2.2,5,5l0,0c0,2.8-2.2,5-5,5l0,0c-2.8,0-5-2.2-5-5l0,0
		C90,112.2,92.2,110,95,110z M105,110L105,110c2.8,0,5,2.2,5,5l0,0c0,2.8-2.2,5-5,5l0,0c-2.8,0-5-2.2-5-5l0,0
		C100,112.2,102.2,110,105,110z M125,110L125,110c2.8,0,5,2.2,5,5l0,0c0,2.8-2.2,5-5,5l0,0c-2.8,0-5-2.2-5-5l0,0
		C120,112.2,122.2,110,125,110z M135,110L135,110c2.8,0,5,2.2,5,5l0,0c0,2.8-2.2,5-5,5l0,0c-2.8,0-5-2.2-5-5l0,0
		C130,112.2,132.2,110,135,110z M145,110L145,110c2.8,0,5,2.2,5,5l0,0c0,2.8-2.2,5-5,5l0,0c-2.8,0-5-2.2-5-5l0,0
		C140,112.2,142.2,110,145,110z M155,110L155,110c2.8,0,5,2.2,5,5l0,0c0,2.8-2.2,5-5,5l0,0c-2.8,0-5-2.2-5-5l0,0
		C150,112.2,152.2,110,155,110z M165,110L165,110c2.8,0,5,2.2,5,5l0,0c0,2.8-2.2,5-5,5l0,0c-2.8,0-5-2.2-5-5l0,0
		C160,112.2,162.2,110,165,110z M195,110L195,110c2.8,0,5,2.2,5,5l0,0c0,2.8-2.2,5-5,5l0,0c-2.8,0-5-2.2-5-5l0,0
		C190,112.2,192.2,110,195,110z M225,110L225,110c2.8,0,5,2.2,5,5l0,0c0,2.8-2.2,5-5,5l0,0c-2.8,0-5-2.2-5-5l0,0
		C220,112.2,222.2,110,225,110z M245,110L245,110c2.8,0,5,2.2,5,5l0,0c0,2.8-2.2,5-5,5l0,0c-2.8,0-5-2.2-5-5l0,0
		C240,112.2,242.2,110,245,110z M255,110L255,110c2.8,0,5,2.2,5,5l0,0c0,2.8-2.2,5-5,5l0,0c-2.8,0-5-2.2-5-5l0,0
		C250,112.2,252.2,110,255,110z M25,120L25,120c2.8,0,5,2.2,5,5l0,0c0,2.8-2.2,5-5,5l0,0c-2.8,0-5-2.2-5-5l0,0
		C20,122.2,22.2,120,25,120z M35,120L35,120c2.8,0,5,2.2,5,5l0,0c0,2.8-2.2,5-5,5l0,0c-2.8,0-5-2.2-5-5l0,0
		C30,122.2,32.2,120,35,120z M55,120L55,120c2.8,0,5,2.2,5,5l0,0c0,2.8-2.2,5-5,5l0,0c-2.8,0-5-2.2-5-5l0,0
		C50,122.2,52.2,120,55,120z M65,120L65,120c2.8,0,5,2.2,5,5l0,0c0,2.8-2.2,5-5,5l0,0c-2.8,0-5-2.2-5-5l0,0
		C60,122.2,62.2,120,65,120z M85,120L85,120c2.8,0,5,2.2,5,5l0,0c0,2.8-2.2,5-5,5l0,0c-2.8,0-5-2.2-5-5l0,0
		C80,122.2,82.2,120,85,120z M105,120L105,120c2.8,0,5,2.2,5,5l0,0c0,2.8-2.2,5-5,5l0,0c-2.8,0-5-2.2-5-5l0,0
		C100,122.2,102.2,120,105,120z M115,120L115,120c2.8,0,5,2.2,5,5l0,0c0,2.8-2.2,5-5,5l0,0c-2.8,0-5-2.2-5-5l0,0
		C110,122.2,112.2,120,115,120z M125,120L125,120c2.8,0,5,2.2,5,5l0,0c0,2.8-2.2,5-5,5l0,0c-2.8,0-5-2.2-5-5l0,0
		C120,122.2,122.2,120,125,120z M165,120L165,120c2.8,0,5,2.2,5,5l0,0c0,2.8-2.2,5-5,5l0,0c-2.8,0-5-2.2-5-5l0,0
		C160,122.2,162.2,120,165,120z M185,120L185,120c2.8,0,5,2.2,5,5l0,0c0,2.8-2.2,5-5,5l0,0c-2.8,0-5-2.2-5-5l0,0
		C180,122.2,182.2,120,185,120z M195,120L195,120c2.8,0,5,2.2,5,5l0,0c0,2.8-2.2,5-5,5l0,0c-2.8,0-5-2.2-5-5l0,0
		C190,122.2,192.2,120,195,120z M205,120L205,120c2.8,0,5,2.2,5,5l0,0c0,2.8-2.2,5-5,5l0,0c-2.8,0-5-2.2-5-5l0,0
		C200,122.2,202.2,120,205,120z M255,120L255,120c2.8,0,5,2.2,5,5l0,0c0,2.8-2.2,5-5,5l0,0c-2.8,0-5-2.2-5-5l0,0
		C250,122.2,252.2,120,255,120z M35,130L35,130c2.8,0,5,2.2,5,5l0,0c0,2.8-2.2,5-5,5l0,0c-2.8,0-5-2.2-5-5l0,0
		C30,132.2,32.2,130,35,130z M45,130L45,130c2.8,0,5,2.2,5,5l0,0c0,2.8-2.2,5-5,5l0,0c-2.8,0-5-2.2-5-5l0,0
		C40,132.2,42.2,130,45,130z M55,130L55,130c2.8,0,5,2.2,5,5l0,0c0,2.8-2.2,5-5,5l0,0c-2.8,0-5-2.2-5-5l0,0
		C50,132.2,52.2,130,55,130z M65,130L65,130c2.8,0,5,2.2,5,5l0,0c0,2.8-2.2,5-5,5l0,0c-2.8,0-5-2.2-5-5l0,0
		C60,132.2,62.2,130,65,130z M75,130L75,130c2.8,0,5,2.2,5,5l0,0c0,2.8-2.2,5-5,5l0,0c-2.8,0-5-2.2-5-5l0,0
		C70,132.2,72.2,130,75,130z M85,130L85,130c2.8,0,5,2.2,5,5l0,0c0,2.8-2.2,5-5,5l0,0c-2.8,0-5-2.2-5-5l0,0
		C80,132.2,82.2,130,85,130z M95,130L95,130c2.8,0,5,2.2,5,5l0,0c0,2.8-2.2,5-5,5l0,0c-2.8,0-5-2.2-5-5l0,0
		C90,132.2,92.2,130,95,130z M105,130L105,130c2.8,0,5,2.2,5,5l0,0c0,2.8-2.2,5-5,5l0,0c-2.8,0-5-2.2-5-5l0,0
		C100,132.2,102.2,130,105,130z M125,130L125,130c2.8,0,5,2.2,5,5l0,0c0,2.8-2.2,5-5,5l0,0c-2.8,0-5-2.2-5-5l0,0
		C120,132.2,122.2,130,125,130z M145,130L145,130c2.8,0,5,2.2,5,5l0,0c0,2.8-2.2,5-5,5l0,0c-2.8,0-5-2.2-5-5l0,0
		C140,132.2,142.2,130,145,130z M155,130L155,130c2.8,0,5,2.2,5,5l0,0c0,2.8-2.2,5-5,5l0,0c-2.8,0-5-2.2-5-5l0,0
		C150,132.2,152.2,130,155,130z M185,130L185,130c2.8,0,5,2.2,5,5l0,0c0,2.8-2.2,5-5,5l0,0c-2.8,0-5-2.2-5-5l0,0
		C180,132.2,182.2,130,185,130z M195,130L195,130c2.8,0,5,2.2,5,5l0,0c0,2.8-2.2,5-5,5l0,0c-2.8,0-5-2.2-5-5l0,0
		C190,132.2,192.2,130,195,130z M215,130L215,130c2.8,0,5,2.2,5,5l0,0c0,2.8-2.2,5-5,5l0,0c-2.8,0-5-2.2-5-5l0,0
		C210,132.2,212.2,130,215,130z M235,130L235,130c2.8,0,5,2.2,5,5l0,0c0,2.8-2.2,5-5,5l0,0c-2.8,0-5-2.2-5-5l0,0
		C230,132.2,232.2,130,235,130z M245,130L245,130c2.8,0,5,2.2,5,5l0,0c0,2.8-2.2,5-5,5l0,0c-2.8,0-5-2.2-5-5l0,0
		C240,132.2,242.2,130,245,130z M255,130L255,130c2.8,0,5,2.2,5,5l0,0c0,2.8-2.2,5-5,5l0,0c-2.8,0-5-2.2-5-5l0,0
		C250,132.2,252.2,130,255,130z M15,140L15,140c2.8,0,5,2.2,5,5l0,0c0,2.8-2.2,5-5,5l0,0c-2.8,0-5-2.2-5-5l0,0
		C10,142.2,12.2,140,15,140z M25,140L25,140c2.8,0,5,2.2,5,5l0,0c0,2.8-2.2,5-5,5l0,0c-2.8,0-5-2.2-5-5l0,0
		C20,142.2,22.2,140,25,140z M55,140L55,140c2.8,0,5,2.2,5,5l0,0c0,2.8-2.2,5-5,5l0,0c-2.8,0-5-2.2-5-5l0,0
		C50,142.2,52.2,140,55,140z M65,140L65,140c2.8,0,5,2.2,5,5l0,0c0,2.8-2.2,5-5,5l0,0c-2.8,0-5-2.2-5-5l0,0
		C60,142.2,62.2,140,65,140z M95,140L95,140c2.8,0,5,2.2,5,5l0,0c0,2.8-2.2,5-5,5l0,0c-2.8,0-5-2.2-5-5l0,0
		C90,142.2,92.2,140,95,140z M105,140L105,140c2.8,0,5,2.2,5,5l0,0c0,2.8-2.2,5-5,5l0,0c-2.8,0-5-2.2-5-5l0,0
		C100,142.2,102.2,140,105,140z M115,140L115,140c2.8,0,5,2.2,5,5l0,0c0,2.8-2.2,5-5,5l0,0c-2.8,0-5-2.2-5-5l0,0
		C110,142.2,112.2,140,115,140z M135,140L135,140c2.8,0,5,2.2,5,5l0,0c0,2.8-2.2,5-5,5l0,0c-2.8,0-5-2.2-5-5l0,0
		C130,142.2,132.2,140,135,140z M175,140L175,140c2.8,0,5,2.2,5,5l0,0c0,2.8-2.2,5-5,5l0,0c-2.8,0-5-2.2-5-5l0,0
		C170,142.2,172.2,140,175,140z M205,140L205,140c2.8,0,5,2.2,5,5l0,0c0,2.8-2.2,5-5,5l0,0c-2.8,0-5-2.2-5-5l0,0
		C200,142.2,202.2,140,205,140z M225,140L225,140c2.8,0,5,2.2,5,5l0,0c0,2.8-2.2,5-5,5l0,0c-2.8,0-5-2.2-5-5l0,0
		C220,142.2,222.2,140,225,140z M245,140L245,140c2.8,0,5,2.2,5,5l0,0c0,2.8-2.2,5-5,5l0,0c-2.8,0-5-2.2-5-5l0,0
		C240,142.2,242.2,140,245,140z M15,150L15,150c2.8,0,5,2.2,5,5l0,0c0,2.8-2.2,5-5,5l0,0c-2.8,0-5-2.2-5-5l0,0
		C10,152.2,12.2,150,15,150z M55,150L55,150c2.8,0,5,2.2,5,5l0,0c0,2.8-2.2,5-5,5l0,0c-2.8,0-5-2.2-5-5l0,0
		C50,152.2,52.2,150,55,150z M75,150L75,150c2.8,0,5,2.2,5,5l0,0c0,2.8-2.2,5-5,5l0,0c-2.8,0-5-2.2-5-5l0,0
		C70,152.2,72.2,150,75,150z M95,150L95,150c2.8,0,5,2.2,5,5l0,0c0,2.8-2.2,5-5,5l0,0c-2.8,0-5-2.2-5-5l0,0
		C90,152.2,92.2,150,95,150z M145,150L145,150c2.8,0,5,2.2,5,5l0,0c0,2.8-2.2,5-5,5l0,0c-2.8,0-5-2.2-5-5l0,0
		C140,152.2,142.2,150,145,150z M165,150L165,150c2.8,0,5,2.2,5,5l0,0c0,2.8-2.2,5-5,5l0,0c-2.8,0-5-2.2-5-5l0,0
		C160,152.2,162.2,150,165,150z M205,150L205,150c2.8,0,5,2.2,5,5l0,0c0,2.8-2.2,5-5,5l0,0c-2.8,0-5-2.2-5-5l0,0
		C200,152.2,202.2,150,205,150z M215,150L215,150c2.8,0,5,2.2,5,5l0,0c0,2.8-2.2,5-5,5l0,0c-2.8,0-5-2.2-5-5l0,0
		C210,152.2,212.2,150,215,150z M225,150L225,150c2.8,0,5,2.2,5,5l0,0c0,2.8-2.2,5-5,5l0,0c-2.8,0-5-2.2-5-5l0,0
		C220,152.2,222.2,150,225,150z M245,150L245,150c2.8,0,5,2.2,5,5l0,0c0,2.8-2.2,5-5,5l0,0c-2.8,0-5-2.2-5-5l0,0
		C240,152.2,242.2,150,245,150z M255,150L255,150c2.8,0,5,2.2,5,5l0,0c0,2.8-2.2,5-5,5l0,0c-2.8,0-5-2.2-5-5l0,0
		C250,152.2,252.2,150,255,150z M15,160L15,160c2.8,0,5,2.2,5,5l0,0c0,2.8-2.2,5-5,5l0,0c-2.8,0-5-2.2-5-5l0,0
		C10,162.2,12.2,160,15,160z M45,160L45,160c2.8,0,5,2.2,5,5l0,0c0,2.8-2.2,5-5,5l0,0c-2.8,0-5-2.2-5-5l0,0
		C40,162.2,42.2,160,45,160z M105,160L105,160c2.8,0,5,2.2,5,5l0,0c0,2.8-2.2,5-5,5l0,0c-2.8,0-5-2.2-5-5l0,0
		C100,162.2,102.2,160,105,160z M115,160L115,160c2.8,0,5,2.2,5,5l0,0c0,2.8-2.2,5-5,5l0,0c-2.8,0-5-2.2-5-5l0,0
		C110,162.2,112.2,160,115,160z M135,160L135,160c2.8,0,5,2.2,5,5l0,0c0,2.8-2.2,5-5,5l0,0c-2.8,0-5-2.2-5-5l0,0
		C130,162.2,132.2,160,135,160z M155,160L155,160c2.8,0,5,2.2,5,5l0,0c0,2.8-2.2,5-5,5l0,0c-2.8,0-5-2.2-5-5l0,0
		C150,162.2,152.2,160,155,160z M175,160L175,160c2.8,0,5,2.2,5,5l0,0c0,2.8-2.2,5-5,5l0,0c-2.8,0-5-2.2-5-5l0,0
		C170,162.2,172.2,160,175,160z M195,160L195,160c2.8,0,5,2.2,5,5l0,0c0,2.8-2.2,5-5,5l0,0c-2.8,0-5-2.2-5-5l0,0
		C190,162.2,192.2,160,195,160z M205,160L205,160c2.8,0,5,2.2,5,5l0,0c0,2.8-2.2,5-5,5l0,0c-2.8,0-5-2.2-5-5l0,0
		C200,162.2,202.2,160,205,160z M215,160L215,160c2.8,0,5,2.2,5,5l0,0c0,2.8-2.2,5-5,5l0,0c-2.8,0-5-2.2-5-5l0,0
		C210,162.2,212.2,160,215,160z M255,160L255,160c2.8,0,5,2.2,5,5l0,0c0,2.8-2.2,5-5,5l0,0c-2.8,0-5-2.2-5-5l0,0
		C250,162.2,252.2,160,255,160z M15,170L15,170c2.8,0,5,2.2,5,5l0,0c0,2.8-2.2,5-5,5l0,0c-2.8,0-5-2.2-5-5l0,0
		C10,172.2,12.2,170,15,170z M55,170L55,170c2.8,0,5,2.2,5,5l0,0c0,2.8-2.2,5-5,5l0,0c-2.8,0-5-2.2-5-5l0,0
		C50,172.2,52.2,170,55,170z M75,170L75,170c2.8,0,5,2.2,5,5l0,0c0,2.8-2.2,5-5,5l0,0c-2.8,0-5-2.2-5-5l0,0
		C70,172.2,72.2,170,75,170z M95,170L95,170c2.8,0,5,2.2,5,5l0,0c0,2.8-2.2,5-5,5l0,0c-2.8,0-5-2.2-5-5l0,0
		C90,172.2,92.2,170,95,170z M115,170L115,170c2.8,0,5,2.2,5,5l0,0c0,2.8-2.2,5-5,5l0,0c-2.8,0-5-2.2-5-5l0,0
		C110,172.2,112.2,170,115,170z M135,170L135,170c2.8,0,5,2.2,5,5l0,0c0,2.8-2.2,5-5,5l0,0c-2.8,0-5-2.2-5-5l0,0
		C130,172.2,132.2,170,135,170z M145,170L145,170c2.8,0,5,2.2,5,5l0,0c0,2.8-2.2,5-5,5l0,0c-2.8,0-5-2.2-5-5l0,0
		C140,172.2,142.2,170,145,170z M155,170L155,170c2.8,0,5,2.2,5,5l0,0c0,2.8-2.2,5-5,5l0,0c-2.8,0-5-2.2-5-5l0,0
		C150,172.2,152.2,170,155,170z M175,170L175,170c2.8,0,5,2.2,5,5l0,0c0,2.8-2.2,5-5,5l0,0c-2.8,0-5-2.2-5-5l0,0
		C170,172.2,172.2,170,175,170z M185,170L185,170c2.8,0,5,2.2,5,5l0,0c0,2.8-2.2,5-5,5l0,0c-2.8,0-5-2.2-5-5l0,0
		C180,172.2,182.2,170,185,170z M195,170L195,170c2.8,0,5,2.2,5,5l0,0c0,2.8-2.2,5-5,5l0,0c-2.8,0-5-2.2-5-5l0,0
		C190,172.2,192.2,170,195,170z M205,170L205,170c2.8,0,5,2.2,5,5l0,0c0,2.8-2.2,5-5,5l0,0c-2.8,0-5-2.2-5-5l0,0
		C200,172.2,202.2,170,205,170z M215,170L215,170c2.8,0,5,2.2,5,5l0,0c0,2.8-2.2,5-5,5l0,0c-2.8,0-5-2.2-5-5l0,0
		C210,172.2,212.2,170,215,170z M235,170L235,170c2.8,0,5,2.2,5,5l0,0c0,2.8-2.2,5-5,5l0,0c-2.8,0-5-2.2-5-5l0,0
		C230,172.2,232.2,170,235,170z M95,180L95,180c2.8,0,5,2.2,5,5l0,0c0,2.8-2.2,5-5,5l0,0c-2.8,0-5-2.2-5-5l0,0
		C90,182.2,92.2,180,95,180z M115,180L115,180c2.8,0,5,2.2,5,5l0,0c0,2.8-2.2,5-5,5l0,0c-2.8,0-5-2.2-5-5l0,0
		C110,182.2,112.2,180,115,180z M145,180L145,180c2.8,0,5,2.2,5,5l0,0c0,2.8-2.2,5-5,5l0,0c-2.8,0-5-2.2-5-5l0,0
		C140,182.2,142.2,180,145,180z M165,180L165,180c2.8,0,5,2.2,5,5l0,0c0,2.8-2.2,5-5,5l0,0c-2.8,0-5-2.2-5-5l0,0
		C160,182.2,162.2,180,165,180z M175,180L175,180c2.8,0,5,2.2,5,5l0,0c0,2.8-2.2,5-5,5l0,0c-2.8,0-5-2.2-5-5l0,0
		C170,182.2,172.2,180,175,180z M215,180L215,180c2.8,0,5,2.2,5,5l0,0c0,2.8-2.2,5-5,5l0,0c-2.8,0-5-2.2-5-5l0,0
		C210,182.2,212.2,180,215,180z M225,180L225,180c2.8,0,5,2.2,5,5l0,0c0,2.8-2.2,5-5,5l0,0c-2.8,0-5-2.2-5-5l0,0
		C220,182.2,222.2,180,225,180z M15,190L15,190c2.8,0,5,2.2,5,5l0,0c0,2.8-2.2,5-5,5l0,0c-2.8,0-5-2.2-5-5l0,0
		C10,192.2,12.2,190,15,190z M25,190L25,190c2.8,0,5,2.2,5,5l0,0c0,2.8-2.2,5-5,5l0,0c-2.8,0-5-2.2-5-5l0,0
		C20,192.2,22.2,190,25,190z M35,190L35,190c2.8,0,5,2.2,5,5l0,0c0,2.8-2.2,5-5,5l0,0c-2.8,0-5-2.2-5-5l0,0
		C30,192.2,32.2,190,35,190z M45,190L45,190c2.8,0,5,2.2,5,5l0,0c0,2.8-2.2,5-5,5l0,0c-2.8,0-5-2.2-5-5l0,0
		C40,192.2,42.2,190,45,190z M55,190L55,190c2.8,0,5,2.2,5,5l0,0c0,2.8-2.2,5-5,5l0,0c-2.8,0-5-2.2-5-5l0,0
		C50,192.2,52.2,190,55,190z M65,190L65,190c2.8,0,5,2.2,5,5l0,0c0,2.8-2.2,5-5,5l0,0c-2.8,0-5-2.2-5-5l0,0
		C60,192.2,62.2,190,65,190z M75,190L75,190c2.8,0,5,2.2,5,5l0,0c0,2.8-2.2,5-5,5l0,0c-2.8,0-5-2.2-5-5l0,0
		C70,192.2,72.2,190,75,190z M95,190L95,190c2.8,0,5,2.2,5,5l0,0c0,2.8-2.2,5-5,5l0,0c-2.8,0-5-2.2-5-5l0,0
		C90,192.2,92.2,190,95,190z M115,190L115,190c2.8,0,5,2.2,5,5l0,0c0,2.8-2.2,5-5,5l0,0c-2.8,0-5-2.2-5-5l0,0
		C110,192.2,112.2,190,115,190z M125,190L125,190c2.8,0,5,2.2,5,5l0,0c0,2.8-2.2,5-5,5l0,0c-2.8,0-5-2.2-5-5l0,0
		C120,192.2,122.2,190,125,190z M135,190L135,190c2.8,0,5,2.2,5,5l0,0c0,2.8-2.2,5-5,5l0,0c-2.8,0-5-2.2-5-5l0,0
		C130,192.2,132.2,190,135,190z M145,190L145,190c2.8,0,5,2.2,5,5l0,0c0,2.8-2.2,5-5,5l0,0c-2.8,0-5-2.2-5-5l0,0
		C140,192.2,142.2,190,145,190z M155,190L155,190c2.8,0,5,2.2,5,5l0,0c0,2.8-2.2,5-5,5l0,0c-2.8,0-5-2.2-5-5l0,0
		C150,192.2,152.2,190,155,190z M175,190L175,190c2.8,0,5,2.2,5,5l0,0c0,2.8-2.2,5-5,5l0,0c-2.8,0-5-2.2-5-5l0,0
		C170,192.2,172.2,190,175,190z M195,190L195,190c2.8,0,5,2.2,5,5l0,0c0,2.8-2.2,5-5,5l0,0c-2.8,0-5-2.2-5-5l0,0
		C190,192.2,192.2,190,195,190z M215,190L215,190c2.8,0,5,2.2,5,5l0,0c0,2.8-2.2,5-5,5l0,0c-2.8,0-5-2.2-5-5l0,0
		C210,192.2,212.2,190,215,190z M235,190L235,190c2.8,0,5,2.2,5,5l0,0c0,2.8-2.2,5-5,5l0,0c-2.8,0-5-2.2-5-5l0,0
		C230,192.2,232.2,190,235,190z M245,190L245,190c2.8,0,5,2.2,5,5l0,0c0,2.8-2.2,5-5,5l0,0c-2.8,0-5-2.2-5-5l0,0
		C240,192.2,242.2,190,245,190z M255,190L255,190c2.8,0,5,2.2,5,5l0,0c0,2.8-2.2,5-5,5l0,0c-2.8,0-5-2.2-5-5l0,0
		C250,192.2,252.2,190,255,190z M15,200L15,200c2.8,0,5,2.2,5,5l0,0c0,2.8-2.2,5-5,5l0,0c-2.8,0-5-2.2-5-5l0,0
		C10,202.2,12.2,200,15,200z M75,200L75,200c2.8,0,5,2.2,5,5l0,0c0,2.8-2.2,5-5,5l0,0c-2.8,0-5-2.2-5-5l0,0
		C70,202.2,72.2,200,75,200z M105,200L105,200c2.8,0,5,2.2,5,5l0,0c0,2.8-2.2,5-5,5l0,0c-2.8,0-5-2.2-5-5l0,0
		C100,202.2,102.2,200,105,200z M115,200L115,200c2.8,0,5,2.2,5,5l0,0c0,2.8-2.2,5-5,5l0,0c-2.8,0-5-2.2-5-5l0,0
		C110,202.2,112.2,200,115,200z M125,200L125,200c2.8,0,5,2.2,5,5l0,0c0,2.8-2.2,5-5,5l0,0c-2.8,0-5-2.2-5-5l0,0
		C120,202.2,122.2,200,125,200z M155,200L155,200c2.8,0,5,2.2,5,5l0,0c0,2.8-2.2,5-5,5l0,0c-2.8,0-5-2.2-5-5l0,0
		C150,202.2,152.2,200,155,200z M175,200L175,200c2.8,0,5,2.2,5,5l0,0c0,2.8-2.2,5-5,5l0,0c-2.8,0-5-2.2-5-5l0,0
		C170,202.2,172.2,200,175,200z M215,200L215,200c2.8,0,5,2.2,5,5l0,0c0,2.8-2.2,5-5,5l0,0c-2.8,0-5-2.2-5-5l0,0
		C210,202.2,212.2,200,215,200z M225,200L225,200c2.8,0,5,2.2,5,5l0,0c0,2.8-2.2,5-5,5l0,0c-2.8,0-5-2.2-5-5l0,0
		C220,202.2,222.2,200,225,200z M255,200L255,200c2.8,0,5,2.2,5,5l0,0c0,2.8-2.2,5-5,5l0,0c-2.8,0-5-2.2-5-5l0,0
		C250,202.2,252.2,200,255,200z M15,210L15,210c2.8,0,5,2.2,5,5l0,0c0,2.8-2.2,5-5,5l0,0c-2.8,0-5-2.2-5-5l0,0
		C10,212.2,12.2,210,15,210z M35,210L35,210c2.8,0,5,2.2,5,5l0,0c0,2.8-2.2,5-5,5l0,0c-2.8,0-5-2.2-5-5l0,0
		C30,212.2,32.2,210,35,210z M45,210L45,210c2.8,0,5,2.2,5,5l0,0c0,2.8-2.2,5-5,5l0,0c-2.8,0-5-2.2-5-5l0,0
		C40,212.2,42.2,210,45,210z M55,210L55,210c2.8,0,5,2.2,5,5l0,0c0,2.8-2.2,5-5,5l0,0c-2.8,0-5-2.2-5-5l0,0
		C50,212.2,52.2,210,55,210z M75,210L75,210c2.8,0,5,2.2,5,5l0,0c0,2.8-2.2,5-5,5l0,0c-2.8,0-5-2.2-5-5l0,0
		C70,212.2,72.2,210,75,210z M95,210L95,210c2.8,0,5,2.2,5,5l0,0c0,2.8-2.2,5-5,5l0,0c-2.8,0-5-2.2-5-5l0,0
		C90,212.2,92.2,210,95,210z M105,210L105,210c2.8,0,5,2.2,5,5l0,0c0,2.8-2.2,5-5,5l0,0c-2.8,0-5-2.2-5-5l0,0
		C100,212.2,102.2,210,105,210z M115,210L115,210c2.8,0,5,2.2,5,5l0,0c0,2.8-2.2,5-5,5l0,0c-2.8,0-5-2.2-5-5l0,0
		C110,212.2,112.2,210,115,210z M125,210L125,210c2.8,0,5,2.2,5,5l0,0c0,2.8-2.2,5-5,5l0,0c-2.8,0-5-2.2-5-5l0,0
		C120,212.2,122.2,210,125,210z M135,210L135,210c2.8,0,5,2.2,5,5l0,0c0,2.8-2.2,5-5,5l0,0c-2.8,0-5-2.2-5-5l0,0
		C130,212.2,132.2,210,135,210z M145,210L145,210c2.8,0,5,2.2,5,5l0,0c0,2.8-2.2,5-5,5l0,0c-2.8,0-5-2.2-5-5l0,0
		C140,212.2,142.2,210,145,210z M155,210L155,210c2.8,0,5,2.2,5,5l0,0c0,2.8-2.2,5-5,5l0,0c-2.8,0-5-2.2-5-5l0,0
		C150,212.2,152.2,210,155,210z M165,210L165,210c2.8,0,5,2.2,5,5l0,0c0,2.8-2.2,5-5,5l0,0c-2.8,0-5-2.2-5-5l0,0
		C160,212.2,162.2,210,165,210z M175,210L175,210c2.8,0,5,2.2,5,5l0,0c0,2.8-2.2,5-5,5l0,0c-2.8,0-5-2.2-5-5l0,0
		C170,212.2,172.2,210,175,210z M185,210L185,210c2.8,0,5,2.2,5,5l0,0c0,2.8-2.2,5-5,5l0,0c-2.8,0-5-2.2-5-5l0,0
		C180,212.2,182.2,210,185,210z M195,210L195,210c2.8,0,5,2.2,5,5l0,0c0,2.8-2.2,5-5,5l0,0c-2.8,0-5-2.2-5-5l0,0
		C190,212.2,192.2,210,195,210z M205,210L205,210c2.8,0,5,2.2,5,5l0,0c0,2.8-2.2,5-5,5l0,0c-2.8,0-5-2.2-5-5l0,0
		C200,212.2,202.2,210,205,210z M215,210L215,210c2.8,0,5,2.2,5,5l0,0c0,2.8-2.2,5-5,5l0,0c-2.8,0-5-2.2-5-5l0,0
		C210,212.2,212.2,210,215,210z M235,210L235,210c2.8,0,5,2.2,5,5l0,0c0,2.8-2.2,5-5,5l0,0c-2.8,0-5-2.2-5-5l0,0
		C230,212.2,232.2,210,235,210z M15,220L15,220c2.8,0,5,2.2,5,5l0,0c0,2.8-2.2,5-5,5l0,0c-2.8,0-5-2.2-5-5l0,0
		C10,222.2,12.2,220,15,220z M35,220L35,220c2.8,0,5,2.2,5,5l0,0c0,2.8-2.2,5-5,5l0,0c-2.8,0-5-2.2-5-5l0,0
		C30,222.2,32.2,220,35,220z M45,220L45,220c2.8,0,5,2.2,5,5l0,0c0,2.8-2.2,5-5,5l0,0c-2.8,0-5-2.2-5-5l0,0
		C40,222.2,42.2,220,45,220z M55,220L55,220c2.8,0,5,2.2,5,5l0,0c0,2.8-2.2,5-5,5l0,0c-2.8,0-5-2.2-5-5l0,0
		C50,222.2,52.2,220,55,220z M75,220L75,220c2.8,0,5,2.2,5,5l0,0c0,2.8-2.2,5-5,5l0,0c-2.8,0-5-2.2-5-5l0,0
		C70,222.2,72.2,220,75,220z M95,220L95,220c2.8,0,5,2.2,5,5l0,0c0,2.8-2.2,5-5,5l0,0c-2.8,0-5-2.2-5-5l0,0
		C90,222.2,92.2,220,95,220z M115,220L115,220c2.8,0,5,2.2,5,5l0,0c0,2.8-2.2,5-5,5l0,0c-2.8,0-5-2.2-5-5l0,0
		C110,222.2,112.2,220,115,220z M135,220L135,220c2.8,0,5,2.2,5,5l0,0c0,2.8-2.2,5-5,5l0,0c-2.8,0-5-2.2-5-5l0,0
		C130,222.2,132.2,220,135,220z M145,220L145,220c2.8,0,5,2.2,5,5l0,0c0,2.8-2.2,5-5,5l0,0c-2.8,0-5-2.2-5-5l0,0
		C140,222.2,142.2,220,145,220z M185,220L185,220c2.8,0,5,2.2,5,5l0,0c0,2.8-2.2,5-5,5l0,0c-2.8,0-5-2.2-5-5l0,0
		C180,222.2,182.2,220,185,220z M195,220L195,220c2.8,0,5,2.2,5,5l0,0c0,2.8-2.2,5-5,5l0,0c-2.8,0-5-2.2-5-5l0,0
		C190,222.2,192.2,220,195,220z M215,220L215,220c2.8,0,5,2.2,5,5l0,0c0,2.8-2.2,5-5,5l0,0c-2.8,0-5-2.2-5-5l0,0
		C210,222.2,212.2,220,215,220z M225,220L225,220c2.8,0,5,2.2,5,5l0,0c0,2.8-2.2,5-5,5l0,0c-2.8,0-5-2.2-5-5l0,0
		C220,222.2,222.2,220,225,220z M235,220L235,220c2.8,0,5,2.2,5,5l0,0c0,2.8-2.2,5-5,5l0,0c-2.8,0-5-2.2-5-5l0,0
		C230,222.2,232.2,220,235,220z M245,220L245,220c2.8,0,5,2.2,5,5l0,0c0,2.8-2.2,5-5,5l0,0c-2.8,0-5-2.2-5-5l0,0
		C240,222.2,242.2,220,245,220z M255,220L255,220c2.8,0,5,2.2,5,5l0,0c0,2.8-2.2,5-5,5l0,0c-2.8,0-5-2.2-5-5l0,0
		C250,222.2,252.2,220,255,220z M15,230L15,230c2.8,0,5,2.2,5,5l0,0c0,2.8-2.2,5-5,5l0,0c-2.8,0-5-2.2-5-5l0,0
		C10,232.2,12.2,230,15,230z M35,230L35,230c2.8,0,5,2.2,5,5l0,0c0,2.8-2.2,5-5,5l0,0c-2.8,0-5-2.2-5-5l0,0
		C30,232.2,32.2,230,35,230z M45,230L45,230c2.8,0,5,2.2,5,5l0,0c0,2.8-2.2,5-5,5l0,0c-2.8,0-5-2.2-5-5l0,0
		C40,232.2,42.2,230,45,230z M55,230L55,230c2.8,0,5,2.2,5,5l0,0c0,2.8-2.2,5-5,5l0,0c-2.8,0-5-2.2-5-5l0,0
		C50,232.2,52.2,230,55,230z M75,230L75,230c2.8,0,5,2.2,5,5l0,0c0,2.8-2.2,5-5,5l0,0c-2.8,0-5-2.2-5-5l0,0
		C70,232.2,72.2,230,75,230z M95,230L95,230c2.8,0,5,2.2,5,5l0,0c0,2.8-2.2,5-5,5l0,0c-2.8,0-5-2.2-5-5l0,0
		C90,232.2,92.2,230,95,230z M105,230L105,230c2.8,0,5,2.2,5,5l0,0c0,2.8-2.2,5-5,5l0,0c-2.8,0-5-2.2-5-5l0,0
		C100,232.2,102.2,230,105,230z M115,230L115,230c2.8,0,5,2.2,5,5l0,0c0,2.8-2.2,5-5,5l0,0c-2.8,0-5-2.2-5-5l0,0
		C110,232.2,112.2,230,115,230z M155,230L155,230c2.8,0,5,2.2,5,5l0,0c0,2.8-2.2,5-5,5l0,0c-2.8,0-5-2.2-5-5l0,0
		C150,232.2,152.2,230,155,230z M185,230L185,230c2.8,0,5,2.2,5,5l0,0c0,2.8-2.2,5-5,5l0,0c-2.8,0-5-2.2-5-5l0,0
		C180,232.2,182.2,230,185,230z M225,230L225,230c2.8,0,5,2.2,5,5l0,0c0,2.8-2.2,5-5,5l0,0c-2.8,0-5-2.2-5-5l0,0
		C220,232.2,222.2,230,225,230z M235,230L235,230c2.8,0,5,2.2,5,5l0,0c0,2.8-2.2,5-5,5l0,0c-2.8,0-5-2.2-5-5l0,0
		C230,232.2,232.2,230,235,230z M255,230L255,230c2.8,0,5,2.2,5,5l0,0c0,2.8-2.2,5-5,5l0,0c-2.8,0-5-2.2-5-5l0,0
		C250,232.2,252.2,230,255,230z M15,240L15,240c2.8,0,5,2.2,5,5l0,0c0,2.8-2.2,5-5,5l0,0c-2.8,0-5-2.2-5-5l0,0
		C10,242.2,12.2,240,15,240z M75,240L75,240c2.8,0,5,2.2,5,5l0,0c0,2.8-2.2,5-5,5l0,0c-2.8,0-5-2.2-5-5l0,0
		C70,242.2,72.2,240,75,240z M95,240L95,240c2.8,0,5,2.2,5,5l0,0c0,2.8-2.2,5-5,5l0,0c-2.8,0-5-2.2-5-5l0,0
		C90,242.2,92.2,240,95,240z M105,240L105,240c2.8,0,5,2.2,5,5l0,0c0,2.8-2.2,5-5,5l0,0c-2.8,0-5-2.2-5-5l0,0
		C100,242.2,102.2,240,105,240z M125,240L125,240c2.8,0,5,2.2,5,5l0,0c0,2.8-2.2,5-5,5l0,0c-2.8,0-5-2.2-5-5l0,0
		C120,242.2,122.2,240,125,240z M155,240L155,240c2.8,0,5,2.2,5,5l0,0c0,2.8-2.2,5-5,5l0,0c-2.8,0-5-2.2-5-5l0,0
		C150,242.2,152.2,240,155,240z M175,240L175,240c2.8,0,5,2.2,5,5l0,0c0,2.8-2.2,5-5,5l0,0c-2.8,0-5-2.2-5-5l0,0
		C170,242.2,172.2,240,175,240z M205,240L205,240c2.8,0,5,2.2,5,5l0,0c0,2.8-2.2,5-5,5l0,0c-2.8,0-5-2.2-5-5l0,0
		C200,242.2,202.2,240,205,240z M215,240L215,240c2.8,0,5,2.2,5,5l0,0c0,2.8-2.2,5-5,5l0,0c-2.8,0-5-2.2-5-5l0,0
		C210,242.2,212.2,240,215,240z M225,240L225,240c2.8,0,5,2.2,5,5l0,0c0,2.8-2.2,5-5,5l0,0c-2.8,0-5-2.2-5-5l0,0
		C220,242.2,222.2,240,225,240z M255,240L255,240c2.8,0,5,2.2,5,5l0,0c0,2.8-2.2,5-5,5l0,0c-2.8,0-5-2.2-5-5l0,0
		C250,242.2,252.2,240,255,240z M15,250L15,250c2.8,0,5,2.2,5,5l0,0c0,2.8-2.2,5-5,5l0,0c-2.8,0-5-2.2-5-5l0,0
		C10,252.2,12.2,250,15,250z M25,250L25,250c2.8,0,5,2.2,5,5l0,0c0,2.8-2.2,5-5,5l0,0c-2.8,0-5-2.2-5-5l0,0
		C20,252.2,22.2,250,25,250z M35,250L35,250c2.8,0,5,2.2,5,5l0,0c0,2.8-2.2,5-5,5l0,0c-2.8,0-5-2.2-5-5l0,0
		C30,252.2,32.2,250,35,250z M45,250L45,250c2.8,0,5,2.2,5,5l0,0c0,2.8-2.2,5-5,5l0,0c-2.8,0-5-2.2-5-5l0,0
		C40,252.2,42.2,250,45,250z M55,250L55,250c2.8,0,5,2.2,5,5l0,0c0,2.8-2.2,5-5,5l0,0c-2.8,0-5-2.2-5-5l0,0
		C50,252.2,52.2,250,55,250z M65,250L65,250c2.8,0,5,2.2,5,5l0,0c0,2.8-2.2,5-5,5l0,0c-2.8,0-5-2.2-5-5l0,0
		C60,252.2,62.2,250,65,250z M75,250L75,250c2.8,0,5,2.2,5,5l0,0c0,2.8-2.2,5-5,5l0,0c-2.8,0-5-2.2-5-5l0,0
		C70,252.2,72.2,250,75,250z M95,250L95,250c2.8,0,5,2.2,5,5l0,0c0,2.8-2.2,5-5,5l0,0c-2.8,0-5-2.2-5-5l0,0
		C90,252.2,92.2,250,95,250z M125,250L125,250c2.8,0,5,2.2,5,5l0,0c0,2.8-2.2,5-5,5l0,0c-2.8,0-5-2.2-5-5l0,0
		C120,252.2,122.2,250,125,250z M135,250L135,250c2.8,0,5,2.2,5,5l0,0c0,2.8-2.2,5-5,5l0,0c-2.8,0-5-2.2-5-5l0,0
		C130,252.2,132.2,250,135,250z M145,250L145,250c2.8,0,5,2.2,5,5l0,0c0,2.8-2.2,5-5,5l0,0c-2.8,0-5-2.2-5-5l0,0
		C140,252.2,142.2,250,145,250z M185,250L185,250c2.8,0,5,2.2,5,5l0,0c0,2.8-2.2,5-5,5l0,0c-2.8,0-5-2.2-5-5l0,0
		C180,252.2,182.2,250,185,250z M195,250L195,250c2.8,0,5,2.2,5,5l0,0c0,2.8-2.2,5-5,5l0,0c-2.8,0-5-2.2-5-5l0,0
		C190,252.2,192.2,250,195,250z M205,250L205,250c2.8,0,5,2.2,5,5l0,0c0,2.8-2.2,5-5,5l0,0c-2.8,0-5-2.2-5-5l0,0
		C200,252.2,202.2,250,205,250z M215,250L215,250c2.8,0,5,2.2,5,5l0,0c0,2.8-2.2,5-5,5l0,0c-2.8,0-5-2.2-5-5l0,0
		C210,252.2,212.2,250,215,250z M225,250L225,250c2.8,0,5,2.2,5,5l0,0c0,2.8-2.2,5-5,5l0,0c-2.8,0-5-2.2-5-5l0,0
		C220,252.2,222.2,250,225,250z M235,250L235,250c2.8,0,5,2.2,5,5l0,0c0,2.8-2.2,5-5,5l0,0c-2.8,0-5-2.2-5-5l0,0
		C230,252.2,232.2,250,235,250z M245,250L245,250c2.8,0,5,2.2,5,5l0,0c0,2.8-2.2,5-5,5l0,0c-2.8,0-5-2.2-5-5l0,0
		C240,252.2,242.2,250,245,250z M255,250L255,250c2.8,0,5,2.2,5,5l0,0c0,2.8-2.2,5-5,5l0,0c-2.8,0-5-2.2-5-5l0,0
		C250,252.2,252.2,250,255,250z"/>
</g>
<text transform="matrix(1 0 0 1 50.8076 294.798)" style="font-family:'ArialMT'; font-size:12px;">dahyunhwang.com</text>
<text transform="matrix(1 0 0 1 346.1617 294.798)" style="font-family:'ArialMT'; font-size:12px;">pickme.today</text>
<rect x="276.2" y="0" class="st0" width="270" height="270"/>
<g id="elements_00000181805134549207891350000005666757067515692953_">
	<path class="st1" d="M291.2,10L291.2,10c2.8,0,5,2.2,5,5l0,0c0,2.8-2.2,5-5,5l0,0c-2.8,0-5-2.2-5-5l0,0
		C286.2,12.2,288.4,10,291.2,10z M301.2,10L301.2,10c2.8,0,5,2.2,5,5l0,0c0,2.8-2.2,5-5,5l0,0c-2.8,0-5-2.2-5-5l0,0
		C296.2,12.2,298.4,10,301.2,10z M311.2,10L311.2,10c2.8,0,5,2.2,5,5l0,0c0,2.8-2.2,5-5,5l0,0c-2.8,0-5-2.2-5-5l0,0
		C306.2,12.2,308.4,10,311.2,10z M321.2,10L321.2,10c2.8,0,5,2.2,5,5l0,0c0,2.8-2.2,5-5,5l0,0c-2.8,0-5-2.2-5-5l0,0
		C316.2,12.2,318.4,10,321.2,10z M331.2,10L331.2,10c2.8,0,5,2.2,5,5l0,0c0,2.8-2.2,5-5,5l0,0c-2.8,0-5-2.2-5-5l0,0
		C326.2,12.2,328.4,10,331.2,10z M341.2,10L341.2,10c2.8,0,5,2.2,5,5l0,0c0,2.8-2.2,5-5,5l0,0c-2.8,0-5-2.2-5-5l0,0
		C336.2,12.2,338.4,10,341.2,10z M351.2,10L351.2,10c2.8,0,5,2.2,5,5l0,0c0,2.8-2.2,5-5,5l0,0c-2.8,0-5-2.2-5-5l0,0
		C346.2,12.2,348.4,10,351.2,10z M381.2,10L381.2,10c2.8,0,5,2.2,5,5l0,0c0,2.8-2.2,5-5,5l0,0c-2.8,0-5-2.2-5-5l0,0
		C376.2,12.2,378.4,10,381.2,10z M451.2,10L451.2,10c2.8,0,5,2.2,5,5l0,0c0,2.8-2.2,5-5,5l0,0c-2.8,0-5-2.2-5-5l0,0
		C446.2,12.2,448.4,10,451.2,10z M471.2,10L471.2,10c2.8,0,5,2.2,5,5l0,0c0,2.8-2.2,5-5,5l0,0c-2.8,0-5-2.2-5-5l0,0
		C466.2,12.2,468.4,10,471.2,10z M481.2,10L481.2,10c2.8,0,5,2.2,5,5l0,0c0,2.8-2.2,5-5,5l0,0c-2.8,0-5-2.2-5-5l0,0
		C476.2,12.2,478.4,10,481.2,10z M491.2,10L491.2,10c2.8,0,5,2.2,5,5l0,0c0,2.8-2.2,5-5,5l0,0c-2.8,0-5-2.2-5-5l0,0
		C486.2,12.2,488.4,10,491.2,10z M501.2,10L501.2,10c2.8,0,5,2.2,5,5l0,0c0,2.8-2.2,5-5,5l0,0c-2.8,0-5-2.2-5-5l0,0
		C496.2,12.2,498.4,10,501.2,10z M511.2,10L511.2,10c2.8,0,5,2.2,5,5l0,0c0,2.8-2.2,5-5,5l0,0c-2.8,0-5-2.2-5-5l0,0
		C506.2,12.2,508.4,10,511.2,10z M521.2,10L521.2,10c2.8,0,5,2.2,5,5l0,0c0,2.8-2.2,5-5,5l0,0c-2.8,0-5-2.2-5-5l0,0
		C516.2,12.2,518.4,10,521.2,10z M531.2,10L531.2,10c2.8,0,5,2.2,5,5l0,0c0,2.8-2.2,5-5,5l0,0c-2.8,0-5-2.2-5-5l0,0
		C526.2,12.2,528.4,10,531.2,10z M291.2,20L291.2,20c2.8,0,5,2.2,5,5l0,0c0,2.8-2.2,5-5,5l0,0c-2.8,0-5-2.2-5-5l0,0
		C286.2,22.2,288.4,20,291.2,20z M351.2,20L351.2,20c2.8,0,5,2.2,5,5l0,0c0,2.8-2.2,5-5,5l0,0c-2.8,0-5-2.2-5-5l0,0
		C346.2,22.2,348.4,20,351.2,20z M371.2,20L371.2,20c2.8,0,5,2.2,5,5l0,0c0,2.8-2.2,5-5,5l0,0c-2.8,0-5-2.2-5-5l0,0
		C366.2,22.2,368.4,20,371.2,20z M381.2,20L381.2,20c2.8,0,5,2.2,5,5l0,0c0,2.8-2.2,5-5,5l0,0c-2.8,0-5-2.2-5-5l0,0
		C376.2,22.2,378.4,20,381.2,20z M401.2,20L401.2,20c2.8,0,5,2.2,5,5l0,0c0,2.8-2.2,5-5,5l0,0c-2.8,0-5-2.2-5-5l0,0
		C396.2,22.2,398.4,20,401.2,20z M411.2,20L411.2,20c2.8,0,5,2.2,5,5l0,0c0,2.8-2.2,5-5,5l0,0c-2.8,0-5-2.2-5-5l0,0
		C406.2,22.2,408.4,20,411.2,20z M431.2,20L431.2,20c2.8,0,5,2.2,5,5l0,0c0,2.8-2.2,5-5,5l0,0c-2.8,0-5-2.2-5-5l0,0
		C426.2,22.2,428.4,20,431.2,20z M441.2,20L441.2,20c2.8,0,5,2.2,5,5l0,0c0,2.8-2.2,5-5,5l0,0c-2.8,0-5-2.2-5-5l0,0
		C436.2,22.2,438.4,20,441.2,20z M451.2,20L451.2,20c2.8,0,5,2.2,5,5l0,0c0,2.8-2.2,5-5,5l0,0c-2.8,0-5-2.2-5-5l0,0
		C446.2,22.2,448.4,20,451.2,20z M471.2,20L471.2,20c2.8,0,5,2.2,5,5l0,0c0,2.8-2.2,5-5,5l0,0c-2.8,0-5-2.2-5-5l0,0
		C466.2,22.2,468.4,20,471.2,20z M531.2,20L531.2,20c2.8,0,5,2.2,5,5l0,0c0,2.8-2.2,5-5,5l0,0c-2.8,0-5-2.2-5-5l0,0
		C526.2,22.2,528.4,20,531.2,20z M291.2,30L291.2,30c2.8,0,5,2.2,5,5l0,0c0,2.8-2.2,5-5,5l0,0c-2.8,0-5-2.2-5-5l0,0
		C286.2,32.2,288.4,30,291.2,30z M311.2,30L311.2,30c2.8,0,5,2.2,5,5l0,0c0,2.8-2.2,5-5,5l0,0c-2.8,0-5-2.2-5-5l0,0
		C306.2,32.2,308.4,30,311.2,30z M321.2,30L321.2,30c2.8,0,5,2.2,5,5l0,0c0,2.8-2.2,5-5,5l0,0c-2.8,0-5-2.2-5-5l0,0
		C316.2,32.2,318.4,30,321.2,30z M331.2,30L331.2,30c2.8,0,5,2.2,5,5l0,0c0,2.8-2.2,5-5,5l0,0c-2.8,0-5-2.2-5-5l0,0
		C326.2,32.2,328.4,30,331.2,30z M351.2,30L351.2,30c2.8,0,5,2.2,5,5l0,0c0,2.8-2.2,5-5,5l0,0c-2.8,0-5-2.2-5-5l0,0
		C346.2,32.2,348.4,30,351.2,30z M381.2,30L381.2,30c2.8,0,5,2.2,5,5l0,0c0,2.8-2.2,5-5,5l0,0c-2.8,0-5-2.2-5-5l0,0
		C376.2,32.2,378.4,30,381.2,30z M391.2,30L391.2,30c2.8,0,5,2.2,5,5l0,0c0,2.8-2.2,5-5,5l0,0c-2.8,0-5-2.2-5-5l0,0
		C386.2,32.2,388.4,30,391.2,30z M401.2,30L401.2,30c2.8,0,5,2.2,5,5l0,0c0,2.8-2.2,5-5,5l0,0c-2.8,0-5-2.2-5-5l0,0
		C396.2,32.2,398.4,30,401.2,30z M451.2,30L451.2,30c2.8,0,5,2.2,5,5l0,0c0,2.8-2.2,5-5,5l0,0c-2.8,0-5-2.2-5-5l0,0
		C446.2,32.2,448.4,30,451.2,30z M471.2,30L471.2,30c2.8,0,5,2.2,5,5l0,0c0,2.8-2.2,5-5,5l0,0c-2.8,0-5-2.2-5-5l0,0
		C466.2,32.2,468.4,30,471.2,30z M491.2,30L491.2,30c2.8,0,5,2.2,5,5l0,0c0,2.8-2.2,5-5,5l0,0c-2.8,0-5-2.2-5-5l0,0
		C486.2,32.2,488.4,30,491.2,30z M501.2,30L501.2,30c2.8,0,5,2.2,5,5l0,0c0,2.8-2.2,5-5,5l0,0c-2.8,0-5-2.2-5-5l0,0
		C496.2,32.2,498.4,30,501.2,30z M511.2,30L511.2,30c2.8,0,5,2.2,5,5l0,0c0,2.8-2.2,5-5,5l0,0c-2.8,0-5-2.2-5-5l0,0
		C506.2,32.2,508.4,30,511.2,30z M531.2,30L531.2,30c2.8,0,5,2.2,5,5l0,0c0,2.8-2.2,5-5,5l0,0c-2.8,0-5-2.2-5-5l0,0
		C526.2,32.2,528.4,30,531.2,30z M291.2,40L291.2,40c2.8,0,5,2.2,5,5l0,0c0,2.8-2.2,5-5,5l0,0c-2.8,0-5-2.2-5-5l0,0
		C286.2,42.2,288.4,40,291.2,40z M311.2,40L311.2,40c2.8,0,5,2.2,5,5l0,0c0,2.8-2.2,5-5,5l0,0c-2.8,0-5-2.2-5-5l0,0
		C306.2,42.2,308.4,40,311.2,40z M321.2,40L321.2,40c2.8,0,5,2.2,5,5l0,0c0,2.8-2.2,5-5,5l0,0c-2.8,0-5-2.2-5-5l0,0
		C316.2,42.2,318.4,40,321.2,40z M331.2,40L331.2,40c2.8,0,5,2.2,5,5l0,0c0,2.8-2.2,5-5,5l0,0c-2.8,0-5-2.2-5-5l0,0
		C326.2,42.2,328.4,40,331.2,40z M351.2,40L351.2,40c2.8,0,5,2.2,5,5l0,0c0,2.8-2.2,5-5,5l0,0c-2.8,0-5-2.2-5-5l0,0
		C346.2,42.2,348.4,40,351.2,40z M371.2,40L371.2,40c2.8,0,5,2.2,5,5l0,0c0,2.8-2.2,5-5,5l0,0c-2.8,0-5-2.2-5-5l0,0
		C366.2,42.2,368.4,40,371.2,40z M381.2,40L381.2,40c2.8,0,5,2.2,5,5l0,0c0,2.8-2.2,5-5,5l0,0c-2.8,0-5-2.2-5-5l0,0
		C376.2,42.2,378.4,40,381.2,40z M401.2,40L401.2,40c2.8,0,5,2.2,5,5l0,0c0,2.8-2.2,5-5,5l0,0c-2.8,0-5-2.2-5-5l0,0
		C396.2,42.2,398.4,40,401.2,40z M421.2,40L421.2,40c2.8,0,5,2.2,5,5l0,0c0,2.8-2.2,5-5,5l0,0c-2.8,0-5-2.2-5-5l0,0
		C416.2,42.2,418.4,40,421.2,40z M431.2,40L431.2,40c2.8,0,5,2.2,5,5l0,0c0,2.8-2.2,5-5,5l0,0c-2.8,0-5-2.2-5-5l0,0
		C426.2,42.2,428.4,40,431.2,40z M471.2,40L471.2,40c2.8,0,5,2.2,5,5l0,0c0,2.8-2.2,5-5,5l0,0c-2.8,0-5-2.2-5-5l0,0
		C466.2,42.2,468.4,40,471.2,40z M491.2,40L491.2,40c2.8,0,5,2.2,5,5l0,0c0,2.8-2.2,5-5,5l0,0c-2.8,0-5-2.2-5-5l0,0
		C486.2,42.2,488.4,40,491.2,40z M501.2,40L501.2,40c2.8,0,5,2.2,5,5l0,0c0,2.8-2.2,5-5,5l0,0c-2.8,0-5-2.2-5-5l0,0
		C496.2,42.2,498.4,40,501.2,40z M511.2,40L511.2,40c2.8,0,5,2.2,5,5l0,0c0,2.8-2.2,5-5,5l0,0c-2.8,0-5-2.2-5-5l0,0
		C506.2,42.2,508.4,40,511.2,40z M531.2,40L531.2,40c2.8,0,5,2.2,5,5l0,0c0,2.8-2.2,5-5,5l0,0c-2.8,0-5-2.2-5-5l0,0
		C526.2,42.2,528.4,40,531.2,40z M291.2,50L291.2,50c2.8,0,5,2.2,5,5l0,0c0,2.8-2.2,5-5,5l0,0c-2.8,0-5-2.2-5-5l0,0
		C286.2,52.2,288.4,50,291.2,50z M311.2,50L311.2,50c2.8,0,5,2.2,5,5l0,0c0,2.8-2.2,5-5,5l0,0c-2.8,0-5-2.2-5-5l0,0
		C306.2,52.2,308.4,50,311.2,50z M321.2,50L321.2,50c2.8,0,5,2.2,5,5l0,0c0,2.8-2.2,5-5,5l0,0c-2.8,0-5-2.2-5-5l0,0
		C316.2,52.2,318.4,50,321.2,50z M331.2,50L331.2,50c2.8,0,5,2.2,5,5l0,0c0,2.8-2.2,5-5,5l0,0c-2.8,0-5-2.2-5-5l0,0
		C326.2,52.2,328.4,50,331.2,50z M351.2,50L351.2,50c2.8,0,5,2.2,5,5l0,0c0,2.8-2.2,5-5,5l0,0c-2.8,0-5-2.2-5-5l0,0
		C346.2,52.2,348.4,50,351.2,50z M391.2,50L391.2,50c2.8,0,5,2.2,5,5l0,0c0,2.8-2.2,5-5,5l0,0c-2.8,0-5-2.2-5-5l0,0
		C386.2,52.2,388.4,50,391.2,50z M411.2,50L411.2,50c2.8,0,5,2.2,5,5l0,0c0,2.8-2.2,5-5,5l0,0c-2.8,0-5-2.2-5-5l0,0
		C406.2,52.2,408.4,50,411.2,50z M451.2,50L451.2,50c2.8,0,5,2.2,5,5l0,0c0,2.8-2.2,5-5,5l0,0c-2.8,0-5-2.2-5-5l0,0
		C446.2,52.2,448.4,50,451.2,50z M471.2,50L471.2,50c2.8,0,5,2.2,5,5l0,0c0,2.8-2.2,5-5,5l0,0c-2.8,0-5-2.2-5-5l0,0
		C466.2,52.2,468.4,50,471.2,50z M491.2,50L491.2,50c2.8,0,5,2.2,5,5l0,0c0,2.8-2.2,5-5,5l0,0c-2.8,0-5-2.2-5-5l0,0
		C486.2,52.2,488.4,50,491.2,50z M501.2,50L501.2,50c2.8,0,5,2.2,5,5l0,0c0,2.8-2.2,5-5,5l0,0c-2.8,0-5-2.2-5-5l0,0
		C496.2,52.2,498.4,50,501.2,50z M511.2,50L511.2,50c2.8,0,5,2.2,5,5l0,0c0,2.8-2.2,5-5,5l0,0c-2.8,0-5-2.2-5-5l0,0
		C506.2,52.2,508.4,50,511.2,50z M531.2,50L531.2,50c2.8,0,5,2.2,5,5l0,0c0,2.8-2.2,5-5,5l0,0c-2.8,0-5-2.2-5-5l0,0
		C526.2,52.2,528.4,50,531.2,50z M291.2,60L291.2,60c2.8,0,5,2.2,5,5l0,0c0,2.8-2.2,5-5,5l0,0c-2.8,0-5-2.2-5-5l0,0
		C286.2,62.2,288.4,60,291.2,60z M351.2,60L351.2,60c2.8,0,5,2.2,5,5l0,0c0,2.8-2.2,5-5,5l0,0c-2.8,0-5-2.2-5-5l0,0
		C346.2,62.2,348.4,60,351.2,60z M371.2,60L371.2,60c2.8,0,5,2.2,5,5l0,0c0,2.8-2.2,5-5,5l0,0c-2.8,0-5-2.2-5-5l0,0
		C366.2,62.2,368.4,60,371.2,60z M391.2,60L391.2,60c2.8,0,5,2.2,5,5l0,0c0,2.8-2.2,5-5,5l0,0c-2.8,0-5-2.2-5-5l0,0
		C386.2,62.2,388.4,60,391.2,60z M441.2,60L441.2,60c2.8,0,5,2.2,5,5l0,0c0,2.8-2.2,5-5,5l0,0c-2.8,0-5-2.2-5-5l0,0
		C436.2,62.2,438.4,60,441.2,60z M471.2,60L471.2,60c2.8,0,5,2.2,5,5l0,0c0,2.8-2.2,5-5,5l0,0c-2.8,0-5-2.2-5-5l0,0
		C466.2,62.2,468.4,60,471.2,60z M531.2,60L531.2,60c2.8,0,5,2.2,5,5l0,0c0,2.8-2.2,5-5,5l0,0c-2.8,0-5-2.2-5-5l0,0
		C526.2,62.2,528.4,60,531.2,60z M291.2,70L291.2,70c2.8,0,5,2.2,5,5l0,0c0,2.8-2.2,5-5,5l0,0c-2.8,0-5-2.2-5-5l0,0
		C286.2,72.2,288.4,70,291.2,70z M301.2,70L301.2,70c2.8,0,5,2.2,5,5l0,0c0,2.8-2.2,5-5,5l0,0c-2.8,0-5-2.2-5-5l0,0
		C296.2,72.2,298.4,70,301.2,70z M311.2,70L311.2,70c2.8,0,5,2.2,5,5l0,0c0,2.8-2.2,5-5,5l0,0c-2.8,0-5-2.2-5-5l0,0
		C306.2,72.2,308.4,70,311.2,70z M321.2,70L321.2,70c2.8,0,5,2.2,5,5l0,0c0,2.8-2.2,5-5,5l0,0c-2.8,0-5-2.2-5-5l0,0
		C316.2,72.2,318.4,70,321.2,70z M331.2,70L331.2,70c2.8,0,5,2.2,5,5l0,0c0,2.8-2.2,5-5,5l0,0c-2.8,0-5-2.2-5-5l0,0
		C326.2,72.2,328.4,70,331.2,70z M341.2,70L341.2,70c2.8,0,5,2.2,5,5l0,0c0,2.8-2.2,5-5,5l0,0c-2.8,0-5-2.2-5-5l0,0
		C336.2,72.2,338.4,70,341.2,70z M351.2,70L351.2,70c2.8,0,5,2.2,5,5l0,0c0,2.8-2.2,5-5,5l0,0c-2.8,0-5-2.2-5-5l0,0
		C346.2,72.2,348.4,70,351.2,70z M371.2,70L371.2,70c2.8,0,5,2.2,5,5l0,0c0,2.8-2.2,5-5,5l0,0c-2.8,0-5-2.2-5-5l0,0
		C366.2,72.2,368.4,70,371.2,70z M391.2,70L391.2,70c2.8,0,5,2.2,5,5l0,0c0,2.8-2.2,5-5,5l0,0c-2.8,0-5-2.2-5-5l0,0
		C386.2,72.2,388.4,70,391.2,70z M411.2,70L411.2,70c2.8,0,5,2.2,5,5l0,0c0,2.8-2.2,5-5,5l0,0c-2.8,0-5-2.2-5-5l0,0
		C406.2,72.2,408.4,70,411.2,70z M431.2,70L431.2,70c2.8,0,5,2.2,5,5l0,0c0,2.8-2.2,5-5,5l0,0c-2.8,0-5-2.2-5-5l0,0
		C426.2,72.2,428.4,70,431.2,70z M451.2,70L451.2,70c2.8,0,5,2.2,5,5l0,0c0,2.8-2.2,5-5,5l0,0c-2.8,0-5-2.2-5-5l0,0
		C446.2,72.2,448.4,70,451.2,70z M471.2,70L471.2,70c2.8,0,5,2.2,5,5l0,0c0,2.8-2.2,5-5,5l0,0c-2.8,0-5-2.2-5-5l0,0
		C466.2,72.2,468.4,70,471.2,70z M481.2,70L481.2,70c2.8,0,5,2.2,5,5l0,0c0,2.8-2.2,5-5,5l0,0c-2.8,0-5-2.2-5-5l0,0
		C476.2,72.2,478.4,70,481.2,70z M491.2,70L491.2,70c2.8,0,5,2.2,5,5l0,0c0,2.8-2.2,5-5,5l0,0c-2.8,0-5-2.2-5-5l0,0
		C486.2,72.2,488.4,70,491.2,70z M501.2,70L501.2,70c2.8,0,5,2.2,5,5l0,0c0,2.8-2.2,5-5,5l0,0c-2.8,0-5-2.2-5-5l0,0
		C496.2,72.2,498.4,70,501.2,70z M511.2,70L511.2,70c2.8,0,5,2.2,5,5l0,0c0,2.8-2.2,5-5,5l0,0c-2.8,0-5-2.2-5-5l0,0
		C506.2,72.2,508.4,70,511.2,70z M521.2,70L521.2,70c2.8,0,5,2.2,5,5l0,0c0,2.8-2.2,5-5,5l0,0c-2.8,0-5-2.2-5-5l0,0
		C516.2,72.2,518.4,70,521.2,70z M531.2,70L531.2,70c2.8,0,5,2.2,5,5l0,0c0,2.8-2.2,5-5,5l0,0c-2.8,0-5-2.2-5-5l0,0
		C526.2,72.2,528.4,70,531.2,70z M411.2,80L411.2,80c2.8,0,5,2.2,5,5l0,0c0,2.8-2.2,5-5,5l0,0c-2.8,0-5-2.2-5-5l0,0
		C406.2,82.2,408.4,80,411.2,80z M431.2,80L431.2,80c2.8,0,5,2.2,5,5l0,0c0,2.8-2.2,5-5,5l0,0c-2.8,0-5-2.2-5-5l0,0
		C426.2,82.2,428.4,80,431.2,80z M441.2,80L441.2,80c2.8,0,5,2.2,5,5l0,0c0,2.8-2.2,5-5,5l0,0c-2.8,0-5-2.2-5-5l0,0
		C436.2,82.2,438.4,80,441.2,80z M451.2,80L451.2,80c2.8,0,5,2.2,5,5l0,0c0,2.8-2.2,5-5,5l0,0c-2.8,0-5-2.2-5-5l0,0
		C446.2,82.2,448.4,80,451.2,80z M291.2,90L291.2,90c2.8,0,5,2.2,5,5l0,0c0,2.8-2.2,5-5,5l0,0c-2.8,0-5-2.2-5-5l0,0
		C286.2,92.2,288.4,90,291.2,90z M301.2,90L301.2,90c2.8,0,5,2.2,5,5l0,0c0,2.8-2.2,5-5,5l0,0c-2.8,0-5-2.2-5-5l0,0
		C296.2,92.2,298.4,90,301.2,90z M311.2,90L311.2,90c2.8,0,5,2.2,5,5l0,0c0,2.8-2.2,5-5,5l0,0c-2.8,0-5-2.2-5-5l0,0
		C306.2,92.2,308.4,90,311.2,90z M321.2,90L321.2,90c2.8,0,5,2.2,5,5l0,0c0,2.8-2.2,5-5,5l0,0c-2.8,0-5-2.2-5-5l0,0
		C316.2,92.2,318.4,90,321.2,90z M331.2,90L331.2,90c2.8,0,5,2.2,5,5l0,0c0,2.8-2.2,5-5,5l0,0c-2.8,0-5-2.2-5-5l0,0
		C326.2,92.2,328.4,90,331.2,90z M351.2,90L351.2,90c2.8,0,5,2.2,5,5l0,0c0,2.8-2.2,5-5,5l0,0c-2.8,0-5-2.2-5-5l0,0
		C346.2,92.2,348.4,90,351.2,90z M361.2,90L361.2,90c2.8,0,5,2.2,5,5l0,0c0,2.8-2.2,5-5,5l0,0c-2.8,0-5-2.2-5-5l0,0
		C356.2,92.2,358.4,90,361.2,90z M371.2,90L371.2,90c2.8,0,5,2.2,5,5l0,0c0,2.8-2.2,5-5,5l0,0c-2.8,0-5-2.2-5-5l0,0
		C366.2,92.2,368.4,90,371.2,90z M381.2,90L381.2,90c2.8,0,5,2.2,5,5l0,0c0,2.8-2.2,5-5,5l0,0c-2.8,0-5-2.2-5-5l0,0
		C376.2,92.2,378.4,90,381.2,90z M391.2,90L391.2,90c2.8,0,5,2.2,5,5l0,0c0,2.8-2.2,5-5,5l0,0c-2.8,0-5-2.2-5-5l0,0
		C386.2,92.2,388.4,90,391.2,90z M411.2,90L411.2,90c2.8,0,5,2.2,5,5l0,0c0,2.8-2.2,5-5,5l0,0c-2.8,0-5-2.2-5-5l0,0
		C406.2,92.2,408.4,90,411.2,90z M421.2,90L421.2,90c2.8,0,5,2.2,5,5l0,0c0,2.8-2.2,5-5,5l0,0c-2.8,0-5-2.2-5-5l0,0
		C416.2,92.2,418.4,90,421.2,90z M431.2,90L431.2,90c2.8,0,5,2.2,5,5l0,0c0,2.8-2.2,5-5,5l0,0c-2.8,0-5-2.2-5-5l0,0
		C426.2,92.2,428.4,90,431.2,90z M441.2,90L441.2,90c2.8,0,5,2.2,5,5l0,0c0,2.8-2.2,5-5,5l0,0c-2.8,0-5-2.2-5-5l0,0
		C436.2,92.2,438.4,90,441.2,90z M451.2,90L451.2,90c2.8,0,5,2.2,5,5l0,0c0,2.8-2.2,5-5,5l0,0c-2.8,0-5-2.2-5-5l0,0
		C446.2,92.2,448.4,90,451.2,90z M461.2,90L461.2,90c2.8,0,5,2.2,5,5l0,0c0,2.8-2.2,5-5,5l0,0c-2.8,0-5-2.2-5-5l0,0
		C456.2,92.2,458.4,90,461.2,90z M481.2,90L481.2,90c2.8,0,5,2.2,5,5l0,0c0,2.8-2.2,5-5,5l0,0c-2.8,0-5-2.2-5-5l0,0
		C476.2,92.2,478.4,90,481.2,90z M501.2,90L501.2,90c2.8,0,5,2.2,5,5l0,0c0,2.8-2.2,5-5,5l0,0c-2.8,0-5-2.2-5-5l0,0
		C496.2,92.2,498.4,90,501.2,90z M521.2,90L521.2,90c2.8,0,5,2.2,5,5l0,0c0,2.8-2.2,5-5,5l0,0c-2.8,0-5-2.2-5-5l0,0
		C516.2,92.2,518.4,90,521.2,90z M311.2,100L311.2,100c2.8,0,5,2.2,5,5l0,0c0,2.8-2.2,5-5,5l0,0c-2.8,0-5-2.2-5-5l0,0
		C306.2,102.2,308.4,100,311.2,100z M321.2,100L321.2,100c2.8,0,5,2.2,5,5l0,0c0,2.8-2.2,5-5,5l0,0c-2.8,0-5-2.2-5-5l0,0
		C316.2,102.2,318.4,100,321.2,100z M331.2,100L331.2,100c2.8,0,5,2.2,5,5l0,0c0,2.8-2.2,5-5,5l0,0c-2.8,0-5-2.2-5-5l0,0
		C326.2,102.2,328.4,100,331.2,100z M361.2,100L361.2,100c2.8,0,5,2.2,5,5l0,0c0,2.8-2.2,5-5,5l0,0c-2.8,0-5-2.2-5-5l0,0
		C356.2,102.2,358.4,100,361.2,100z M381.2,100L381.2,100c2.8,0,5,2.2,5,5l0,0c0,2.8-2.2,5-5,5l0,0c-2.8,0-5-2.2-5-5l0,0
		C376.2,102.2,378.4,100,381.2,100z M421.2,100L421.2,100c2.8,0,5,2.2,5,5l0,0c0,2.8-2.2,5-5,5l0,0c-2.8,0-5-2.2-5-5l0,0
		C416.2,102.2,418.4,100,421.2,100z M431.2,100L431.2,100c2.8,0,5,2.2,5,5l0,0c0,2.8-2.2,5-5,5l0,0c-2.8,0-5-2.2-5-5l0,0
		C426.2,102.2,428.4,100,431.2,100z M451.2,100L451.2,100c2.8,0,5,2.2,5,5l0,0c0,2.8-2.2,5-5,5l0,0c-2.8,0-5-2.2-5-5l0,0
		C446.2,102.2,448.4,100,451.2,100z M481.2,100L481.2,100c2.8,0,5,2.2,5,5l0,0c0,2.8-2.2,5-5,5l0,0c-2.8,0-5-2.2-5-5l0,0
		C476.2,102.2,478.4,100,481.2,100z M521.2,100L521.2,100c2.8,0,5,2.2,5,5l0,0c0,2.8-2.2,5-5,5l0,0c-2.8,0-5-2.2-5-5l0,0
		C516.2,102.2,518.4,100,521.2,100z M311.2,110L311.2,110c2.8,0,5,2.2,5,5l0,0c0,2.8-2.2,5-5,5l0,0c-2.8,0-5-2.2-5-5l0,0
		C306.2,112.2,308.4,110,311.2,110z M321.2,110L321.2,110c2.8,0,5,2.2,5,5l0,0c0,2.8-2.2,5-5,5l0,0c-2.8,0-5-2.2-5-5l0,0
		C316.2,112.2,318.4,110,321.2,110z M331.2,110L331.2,110c2.8,0,5,2.2,5,5l0,0c0,2.8-2.2,5-5,5l0,0c-2.8,0-5-2.2-5-5l0,0
		C326.2,112.2,328.4,110,331.2,110z M351.2,110L351.2,110c2.8,0,5,2.2,5,5l0,0c0,2.8-2.2,5-5,5l0,0c-2.8,0-5-2.2-5-5l0,0
		C346.2,112.2,348.4,110,351.2,110z M371.2,110L371.2,110c2.8,0,5,2.2,5,5l0,0c0,2.8-2.2,5-5,5l0,0c-2.8,0-5-2.2-5-5l0,0
		C366.2,112.2,368.4,110,371.2,110z M381.2,110L381.2,110c2.8,0,5,2.2,5,5l0,0c0,2.8-2.2,5-5,5l0,0c-2.8,0-5-2.2-5-5l0,0
		C376.2,112.2,378.4,110,381.2,110z M401.2,110L401.2,110c2.8,0,5,2.2,5,5l0,0c0,2.8-2.2,5-5,5l0,0c-2.8,0-5-2.2-5-5l0,0
		C396.2,112.2,398.4,110,401.2,110z M411.2,110L411.2,110c2.8,0,5,2.2,5,5l0,0c0,2.8-2.2,5-5,5l0,0c-2.8,0-5-2.2-5-5l0,0
		C406.2,112.2,408.4,110,411.2,110z M441.2,110L441.2,110c2.8,0,5,2.2,5,5l0,0c0,2.8-2.2,5-5,5l0,0c-2.8,0-5-2.2-5-5l0,0
		C436.2,112.2,438.4,110,441.2,110z M501.2,110L501.2,110c2.8,0,5,2.2,5,5l0,0c0,2.8-2.2,5-5,5l0,0c-2.8,0-5-2.2-5-5l0,0
		C496.2,112.2,498.4,110,501.2,110z M521.2,110L521.2,110c2.8,0,5,2.2,5,5l0,0c0,2.8-2.2,5-5,5l0,0c-2.8,0-5-2.2-5-5l0,0
		C516.2,112.2,518.4,110,521.2,110z M531.2,110L531.2,110c2.8,0,5,2.2,5,5l0,0c0,2.8-2.2,5-5,5l0,0c-2.8,0-5-2.2-5-5l0,0
		C526.2,112.2,528.4,110,531.2,110z M321.2,120L321.2,120c2.8,0,5,2.2,5,5l0,0c0,2.8-2.2,5-5,5l0,0c-2.8,0-5-2.2-5-5l0,0
		C316.2,122.2,318.4,120,321.2,120z M361.2,120L361.2,120c2.8,0,5,2.2,5,5l0,0c0,2.8-2.2,5-5,5l0,0c-2.8,0-5-2.2-5-5l0,0
		C356.2,122.2,358.4,120,361.2,120z M381.2,120L381.2,120c2.8,0,5,2.2,5,5l0,0c0,2.8-2.2,5-5,5l0,0c-2.8,0-5-2.2-5-5l0,0
		C376.2,122.2,378.4,120,381.2,120z M391.2,120L391.2,120c2.8,0,5,2.2,5,5l0,0c0,2.8-2.2,5-5,5l0,0c-2.8,0-5-2.2-5-5l0,0
		C386.2,122.2,388.4,120,391.2,120z M401.2,120L401.2,120c2.8,0,5,2.2,5,5l0,0c0,2.8-2.2,5-5,5l0,0c-2.8,0-5-2.2-5-5l0,0
		C396.2,122.2,398.4,120,401.2,120z M431.2,120L431.2,120c2.8,0,5,2.2,5,5l0,0c0,2.8-2.2,5-5,5l0,0c-2.8,0-5-2.2-5-5l0,0
		C426.2,122.2,428.4,120,431.2,120z M451.2,120L451.2,120c2.8,0,5,2.2,5,5l0,0c0,2.8-2.2,5-5,5l0,0c-2.8,0-5-2.2-5-5l0,0
		C446.2,122.2,448.4,120,451.2,120z M461.2,120L461.2,120c2.8,0,5,2.2,5,5l0,0c0,2.8-2.2,5-5,5l0,0c-2.8,0-5-2.2-5-5l0,0
		C456.2,122.2,458.4,120,461.2,120z M471.2,120L471.2,120c2.8,0,5,2.2,5,5l0,0c0,2.8-2.2,5-5,5l0,0c-2.8,0-5-2.2-5-5l0,0
		C466.2,122.2,468.4,120,471.2,120z M531.2,120L531.2,120c2.8,0,5,2.2,5,5l0,0c0,2.8-2.2,5-5,5l0,0c-2.8,0-5-2.2-5-5l0,0
		C526.2,122.2,528.4,120,531.2,120z M291.2,130L291.2,130c2.8,0,5,2.2,5,5l0,0c0,2.8-2.2,5-5,5l0,0c-2.8,0-5-2.2-5-5l0,0
		C286.2,132.2,288.4,130,291.2,130z M301.2,130L301.2,130c2.8,0,5,2.2,5,5l0,0c0,2.8-2.2,5-5,5l0,0c-2.8,0-5-2.2-5-5l0,0
		C296.2,132.2,298.4,130,301.2,130z M351.2,130L351.2,130c2.8,0,5,2.2,5,5l0,0c0,2.8-2.2,5-5,5l0,0c-2.8,0-5-2.2-5-5l0,0
		C346.2,132.2,348.4,130,351.2,130z M381.2,130L381.2,130c2.8,0,5,2.2,5,5l0,0c0,2.8-2.2,5-5,5l0,0c-2.8,0-5-2.2-5-5l0,0
		C376.2,132.2,378.4,130,381.2,130z M401.2,130L401.2,130c2.8,0,5,2.2,5,5l0,0c0,2.8-2.2,5-5,5l0,0c-2.8,0-5-2.2-5-5l0,0
		C396.2,132.2,398.4,130,401.2,130z M461.2,130L461.2,130c2.8,0,5,2.2,5,5l0,0c0,2.8-2.2,5-5,5l0,0c-2.8,0-5-2.2-5-5l0,0
		C456.2,132.2,458.4,130,461.2,130z M471.2,130L471.2,130c2.8,0,5,2.2,5,5l0,0c0,2.8-2.2,5-5,5l0,0c-2.8,0-5-2.2-5-5l0,0
		C466.2,132.2,468.4,130,471.2,130z M481.2,130L481.2,130c2.8,0,5,2.2,5,5l0,0c0,2.8-2.2,5-5,5l0,0c-2.8,0-5-2.2-5-5l0,0
		C476.2,132.2,478.4,130,481.2,130z M491.2,130L491.2,130c2.8,0,5,2.2,5,5l0,0c0,2.8-2.2,5-5,5l0,0c-2.8,0-5-2.2-5-5l0,0
		C486.2,132.2,488.4,130,491.2,130z M511.2,130L511.2,130c2.8,0,5,2.2,5,5l0,0c0,2.8-2.2,5-5,5l0,0c-2.8,0-5-2.2-5-5l0,0
		C506.2,132.2,508.4,130,511.2,130z M521.2,130L521.2,130c2.8,0,5,2.2,5,5l0,0c0,2.8-2.2,5-5,5l0,0c-2.8,0-5-2.2-5-5l0,0
		C516.2,132.2,518.4,130,521.2,130z M531.2,130L531.2,130c2.8,0,5,2.2,5,5l0,0c0,2.8-2.2,5-5,5l0,0c-2.8,0-5-2.2-5-5l0,0
		C526.2,132.2,528.4,130,531.2,130z M291.2,140L291.2,140c2.8,0,5,2.2,5,5l0,0c0,2.8-2.2,5-5,5l0,0c-2.8,0-5-2.2-5-5l0,0
		C286.2,142.2,288.4,140,291.2,140z M331.2,140L331.2,140c2.8,0,5,2.2,5,5l0,0c0,2.8-2.2,5-5,5l0,0c-2.8,0-5-2.2-5-5l0,0
		C326.2,142.2,328.4,140,331.2,140z M391.2,140L391.2,140c2.8,0,5,2.2,5,5l0,0c0,2.8-2.2,5-5,5l0,0c-2.8,0-5-2.2-5-5l0,0
		C386.2,142.2,388.4,140,391.2,140z M411.2,140L411.2,140c2.8,0,5,2.2,5,5l0,0c0,2.8-2.2,5-5,5l0,0c-2.8,0-5-2.2-5-5l0,0
		C406.2,142.2,408.4,140,411.2,140z M421.2,140L421.2,140c2.8,0,5,2.2,5,5l0,0c0,2.8-2.2,5-5,5l0,0c-2.8,0-5-2.2-5-5l0,0
		C416.2,142.2,418.4,140,421.2,140z M481.2,140L481.2,140c2.8,0,5,2.2,5,5l0,0c0,2.8-2.2,5-5,5l0,0c-2.8,0-5-2.2-5-5l0,0
		C476.2,142.2,478.4,140,481.2,140z M501.2,140L501.2,140c2.8,0,5,2.2,5,5l0,0c0,2.8-2.2,5-5,5l0,0c-2.8,0-5-2.2-5-5l0,0
		C496.2,142.2,498.4,140,501.2,140z M521.2,140L521.2,140c2.8,0,5,2.2,5,5l0,0c0,2.8-2.2,5-5,5l0,0c-2.8,0-5-2.2-5-5l0,0
		C516.2,142.2,518.4,140,521.2,140z M291.2,150L291.2,150c2.8,0,5,2.2,5,5l0,0c0,2.8-2.2,5-5,5l0,0c-2.8,0-5-2.2-5-5l0,0
		C286.2,152.2,288.4,150,291.2,150z M311.2,150L311.2,150c2.8,0,5,2.2,5,5l0,0c0,2.8-2.2,5-5,5l0,0c-2.8,0-5-2.2-5-5l0,0
		C306.2,152.2,308.4,150,311.2,150z M321.2,150L321.2,150c2.8,0,5,2.2,5,5l0,0c0,2.8-2.2,5-5,5l0,0c-2.8,0-5-2.2-5-5l0,0
		C316.2,152.2,318.4,150,321.2,150z M331.2,150L331.2,150c2.8,0,5,2.2,5,5l0,0c0,2.8-2.2,5-5,5l0,0c-2.8,0-5-2.2-5-5l0,0
		C326.2,152.2,328.4,150,331.2,150z M351.2,150L351.2,150c2.8,0,5,2.2,5,5l0,0c0,2.8-2.2,5-5,5l0,0c-2.8,0-5-2.2-5-5l0,0
		C346.2,152.2,348.4,150,351.2,150z M361.2,150L361.2,150c2.8,0,5,2.2,5,5l0,0c0,2.8-2.2,5-5,5l0,0c-2.8,0-5-2.2-5-5l0,0
		C356.2,152.2,358.4,150,361.2,150z M371.2,150L371.2,150c2.8,0,5,2.2,5,5l0,0c0,2.8-2.2,5-5,5l0,0c-2.8,0-5-2.2-5-5l0,0
		C366.2,152.2,368.4,150,371.2,150z M381.2,150L381.2,150c2.8,0,5,2.2,5,5l0,0c0,2.8-2.2,5-5,5l0,0c-2.8,0-5-2.2-5-5l0,0
		C376.2,152.2,378.4,150,381.2,150z M391.2,150L391.2,150c2.8,0,5,2.2,5,5l0,0c0,2.8-2.2,5-5,5l0,0c-2.8,0-5-2.2-5-5l0,0
		C386.2,152.2,388.4,150,391.2,150z M421.2,150L421.2,150c2.8,0,5,2.2,5,5l0,0c0,2.8-2.2,5-5,5l0,0c-2.8,0-5-2.2-5-5l0,0
		C416.2,152.2,418.4,150,421.2,150z M431.2,150L431.2,150c2.8,0,5,2.2,5,5l0,0c0,2.8-2.2,5-5,5l0,0c-2.8,0-5-2.2-5-5l0,0
		C426.2,152.2,428.4,150,431.2,150z M441.2,150L441.2,150c2.8,0,5,2.2,5,5l0,0c0,2.8-2.2,5-5,5l0,0c-2.8,0-5-2.2-5-5l0,0
		C436.2,152.2,438.4,150,441.2,150z M451.2,150L451.2,150c2.8,0,5,2.2,5,5l0,0c0,2.8-2.2,5-5,5l0,0c-2.8,0-5-2.2-5-5l0,0
		C446.2,152.2,448.4,150,451.2,150z M471.2,150L471.2,150c2.8,0,5,2.2,5,5l0,0c0,2.8-2.2,5-5,5l0,0c-2.8,0-5-2.2-5-5l0,0
		C466.2,152.2,468.4,150,471.2,150z M481.2,150L481.2,150c2.8,0,5,2.2,5,5l0,0c0,2.8-2.2,5-5,5l0,0c-2.8,0-5-2.2-5-5l0,0
		C476.2,152.2,478.4,150,481.2,150z M491.2,150L491.2,150c2.8,0,5,2.2,5,5l0,0c0,2.8-2.2,5-5,5l0,0c-2.8,0-5-2.2-5-5l0,0
		C486.2,152.2,488.4,150,491.2,150z M501.2,150L501.2,150c2.8,0,5,2.2,5,5l0,0c0,2.8-2.2,5-5,5l0,0c-2.8,0-5-2.2-5-5l0,0
		C496.2,152.2,498.4,150,501.2,150z M521.2,150L521.2,150c2.8,0,5,2.2,5,5l0,0c0,2.8-2.2,5-5,5l0,0c-2.8,0-5-2.2-5-5l0,0
		C516.2,152.2,518.4,150,521.2,150z M531.2,150L531.2,150c2.8,0,5,2.2,5,5l0,0c0,2.8-2.2,5-5,5l0,0c-2.8,0-5-2.2-5-5l0,0
		C526.2,152.2,528.4,150,531.2,150z M291.2,160L291.2,160c2.8,0,5,2.2,5,5l0,0c0,2.8-2.2,5-5,5l0,0c-2.8,0-5-2.2-5-5l0,0
		C286.2,162.2,288.4,160,291.2,160z M311.2,160L311.2,160c2.8,0,5,2.2,5,5l0,0c0,2.8-2.2,5-5,5l0,0c-2.8,0-5-2.2-5-5l0,0
		C306.2,162.2,308.4,160,311.2,160z M331.2,160L331.2,160c2.8,0,5,2.2,5,5l0,0c0,2.8-2.2,5-5,5l0,0c-2.8,0-5-2.2-5-5l0,0
		C326.2,162.2,328.4,160,331.2,160z M341.2,160L341.2,160c2.8,0,5,2.2,5,5l0,0c0,2.8-2.2,5-5,5l0,0c-2.8,0-5-2.2-5-5l0,0
		C336.2,162.2,338.4,160,341.2,160z M371.2,160L371.2,160c2.8,0,5,2.2,5,5l0,0c0,2.8-2.2,5-5,5l0,0c-2.8,0-5-2.2-5-5l0,0
		C366.2,162.2,368.4,160,371.2,160z M381.2,160L381.2,160c2.8,0,5,2.2,5,5l0,0c0,2.8-2.2,5-5,5l0,0c-2.8,0-5-2.2-5-5l0,0
		C376.2,162.2,378.4,160,381.2,160z M391.2,160L391.2,160c2.8,0,5,2.2,5,5l0,0c0,2.8-2.2,5-5,5l0,0c-2.8,0-5-2.2-5-5l0,0
		C386.2,162.2,388.4,160,391.2,160z M411.2,160L411.2,160c2.8,0,5,2.2,5,5l0,0c0,2.8-2.2,5-5,5l0,0c-2.8,0-5-2.2-5-5l0,0
		C406.2,162.2,408.4,160,411.2,160z M421.2,160L421.2,160c2.8,0,5,2.2,5,5l0,0c0,2.8-2.2,5-5,5l0,0c-2.8,0-5-2.2-5-5l0,0
		C416.2,162.2,418.4,160,421.2,160z M441.2,160L441.2,160c2.8,0,5,2.2,5,5l0,0c0,2.8-2.2,5-5,5l0,0c-2.8,0-5-2.2-5-5l0,0
		C436.2,162.2,438.4,160,441.2,160z M451.2,160L451.2,160c2.8,0,5,2.2,5,5l0,0c0,2.8-2.2,5-5,5l0,0c-2.8,0-5-2.2-5-5l0,0
		C446.2,162.2,448.4,160,451.2,160z M461.2,160L461.2,160c2.8,0,5,2.2,5,5l0,0c0,2.8-2.2,5-5,5l0,0c-2.8,0-5-2.2-5-5l0,0
		C456.2,162.2,458.4,160,461.2,160z M481.2,160L481.2,160c2.8,0,5,2.2,5,5l0,0c0,2.8-2.2,5-5,5l0,0c-2.8,0-5-2.2-5-5l0,0
		C476.2,162.2,478.4,160,481.2,160z M491.2,160L491.2,160c2.8,0,5,2.2,5,5l0,0c0,2.8-2.2,5-5,5l0,0c-2.8,0-5-2.2-5-5l0,0
		C486.2,162.2,488.4,160,491.2,160z M531.2,160L531.2,160c2.8,0,5,2.2,5,5l0,0c0,2.8-2.2,5-5,5l0,0c-2.8,0-5-2.2-5-5l0,0
		C526.2,162.2,528.4,160,531.2,160z M291.2,170L291.2,170c2.8,0,5,2.2,5,5l0,0c0,2.8-2.2,5-5,5l0,0c-2.8,0-5-2.2-5-5l0,0
		C286.2,172.2,288.4,170,291.2,170z M321.2,170L321.2,170c2.8,0,5,2.2,5,5l0,0c0,2.8-2.2,5-5,5l0,0c-2.8,0-5-2.2-5-5l0,0
		C316.2,172.2,318.4,170,321.2,170z M351.2,170L351.2,170c2.8,0,5,2.2,5,5l0,0c0,2.8-2.2,5-5,5l0,0c-2.8,0-5-2.2-5-5l0,0
		C346.2,172.2,348.4,170,351.2,170z M361.2,170L361.2,170c2.8,0,5,2.2,5,5l0,0c0,2.8-2.2,5-5,5l0,0c-2.8,0-5-2.2-5-5l0,0
		C356.2,172.2,358.4,170,361.2,170z M381.2,170L381.2,170c2.8,0,5,2.2,5,5l0,0c0,2.8-2.2,5-5,5l0,0c-2.8,0-5-2.2-5-5l0,0
		C376.2,172.2,378.4,170,381.2,170z M411.2,170L411.2,170c2.8,0,5,2.2,5,5l0,0c0,2.8-2.2,5-5,5l0,0c-2.8,0-5-2.2-5-5l0,0
		C406.2,172.2,408.4,170,411.2,170z M431.2,170L431.2,170c2.8,0,5,2.2,5,5l0,0c0,2.8-2.2,5-5,5l0,0c-2.8,0-5-2.2-5-5l0,0
		C426.2,172.2,428.4,170,431.2,170z M441.2,170L441.2,170c2.8,0,5,2.2,5,5l0,0c0,2.8-2.2,5-5,5l0,0c-2.8,0-5-2.2-5-5l0,0
		C436.2,172.2,438.4,170,441.2,170z M451.2,170L451.2,170c2.8,0,5,2.2,5,5l0,0c0,2.8-2.2,5-5,5l0,0c-2.8,0-5-2.2-5-5l0,0
		C446.2,172.2,448.4,170,451.2,170z M461.2,170L461.2,170c2.8,0,5,2.2,5,5l0,0c0,2.8-2.2,5-5,5l0,0c-2.8,0-5-2.2-5-5l0,0
		C456.2,172.2,458.4,170,461.2,170z M471.2,170L471.2,170c2.8,0,5,2.2,5,5l0,0c0,2.8-2.2,5-5,5l0,0c-2.8,0-5-2.2-5-5l0,0
		C466.2,172.2,468.4,170,471.2,170z M481.2,170L481.2,170c2.8,0,5,2.2,5,5l0,0c0,2.8-2.2,5-5,5l0,0c-2.8,0-5-2.2-5-5l0,0
		C476.2,172.2,478.4,170,481.2,170z M491.2,170L491.2,170c2.8,0,5,2.2,5,5l0,0c0,2.8-2.2,5-5,5l0,0c-2.8,0-5-2.2-5-5l0,0
		C486.2,172.2,488.4,170,491.2,170z M511.2,170L511.2,170c2.8,0,5,2.2,5,5l0,0c0,2.8-2.2,5-5,5l0,0c-2.8,0-5-2.2-5-5l0,0
		C506.2,172.2,508.4,170,511.2,170z M371.2,180L371.2,180c2.8,0,5,2.2,5,5l0,0c0,2.8-2.2,5-5,5l0,0c-2.8,0-5-2.2-5-5l0,0
		C366.2,182.2,368.4,180,371.2,180z M381.2,180L381.2,180c2.8,0,5,2.2,5,5l0,0c0,2.8-2.2,5-5,5l0,0c-2.8,0-5-2.2-5-5l0,0
		C376.2,182.2,378.4,180,381.2,180z M391.2,180L391.2,180c2.8,0,5,2.2,5,5l0,0c0,2.8-2.2,5-5,5l0,0c-2.8,0-5-2.2-5-5l0,0
		C386.2,182.2,388.4,180,391.2,180z M441.2,180L441.2,180c2.8,0,5,2.2,5,5l0,0c0,2.8-2.2,5-5,5l0,0c-2.8,0-5-2.2-5-5l0,0
		C436.2,182.2,438.4,180,441.2,180z M451.2,180L451.2,180c2.8,0,5,2.2,5,5l0,0c0,2.8-2.2,5-5,5l0,0c-2.8,0-5-2.2-5-5l0,0
		C446.2,182.2,448.4,180,451.2,180z M491.2,180L491.2,180c2.8,0,5,2.2,5,5l0,0c0,2.8-2.2,5-5,5l0,0c-2.8,0-5-2.2-5-5l0,0
		C486.2,182.2,488.4,180,491.2,180z M501.2,180L501.2,180c2.8,0,5,2.2,5,5l0,0c0,2.8-2.2,5-5,5l0,0c-2.8,0-5-2.2-5-5l0,0
		C496.2,182.2,498.4,180,501.2,180z M291.2,190L291.2,190c2.8,0,5,2.2,5,5l0,0c0,2.8-2.2,5-5,5l0,0c-2.8,0-5-2.2-5-5l0,0
		C286.2,192.2,288.4,190,291.2,190z M301.2,190L301.2,190c2.8,0,5,2.2,5,5l0,0c0,2.8-2.2,5-5,5l0,0c-2.8,0-5-2.2-5-5l0,0
		C296.2,192.2,298.4,190,301.2,190z M311.2,190L311.2,190c2.8,0,5,2.2,5,5l0,0c0,2.8-2.2,5-5,5l0,0c-2.8,0-5-2.2-5-5l0,0
		C306.2,192.2,308.4,190,311.2,190z M321.2,190L321.2,190c2.8,0,5,2.2,5,5l0,0c0,2.8-2.2,5-5,5l0,0c-2.8,0-5-2.2-5-5l0,0
		C316.2,192.2,318.4,190,321.2,190z M331.2,190L331.2,190c2.8,0,5,2.2,5,5l0,0c0,2.8-2.2,5-5,5l0,0c-2.8,0-5-2.2-5-5l0,0
		C326.2,192.2,328.4,190,331.2,190z M341.2,190L341.2,190c2.8,0,5,2.2,5,5l0,0c0,2.8-2.2,5-5,5l0,0c-2.8,0-5-2.2-5-5l0,0
		C336.2,192.2,338.4,190,341.2,190z M351.2,190L351.2,190c2.8,0,5,2.2,5,5l0,0c0,2.8-2.2,5-5,5l0,0c-2.8,0-5-2.2-5-5l0,0
		C346.2,192.2,348.4,190,351.2,190z M371.2,190L371.2,190c2.8,0,5,2.2,5,5l0,0c0,2.8-2.2,5-5,5l0,0c-2.8,0-5-2.2-5-5l0,0
		C366.2,192.2,368.4,190,371.2,190z M381.2,190L381.2,190c2.8,0,5,2.2,5,5l0,0c0,2.8-2.2,5-5,5l0,0c-2.8,0-5-2.2-5-5l0,0
		C376.2,192.2,378.4,190,381.2,190z M391.2,190L391.2,190c2.8,0,5,2.2,5,5l0,0c0,2.8-2.2,5-5,5l0,0c-2.8,0-5-2.2-5-5l0,0
		C386.2,192.2,388.4,190,391.2,190z M401.2,190L401.2,190c2.8,0,5,2.2,5,5l0,0c0,2.8-2.2,5-5,5l0,0c-2.8,0-5-2.2-5-5l0,0
		C396.2,192.2,398.4,190,401.2,190z M411.2,190L411.2,190c2.8,0,5,2.2,5,5l0,0c0,2.8-2.2,5-5,5l0,0c-2.8,0-5-2.2-5-5l0,0
		C406.2,192.2,408.4,190,411.2,190z M451.2,190L451.2,190c2.8,0,5,2.2,5,5l0,0c0,2.8-2.2,5-5,5l0,0c-2.8,0-5-2.2-5-5l0,0
		C446.2,192.2,448.4,190,451.2,190z M471.2,190L471.2,190c2.8,0,5,2.2,5,5l0,0c0,2.8-2.2,5-5,5l0,0c-2.8,0-5-2.2-5-5l0,0
		C466.2,192.2,468.4,190,471.2,190z M491.2,190L491.2,190c2.8,0,5,2.2,5,5l0,0c0,2.8-2.2,5-5,5l0,0c-2.8,0-5-2.2-5-5l0,0
		C486.2,192.2,488.4,190,491.2,190z M511.2,190L511.2,190c2.8,0,5,2.2,5,5l0,0c0,2.8-2.2,5-5,5l0,0c-2.8,0-5-2.2-5-5l0,0
		C506.2,192.2,508.4,190,511.2,190z M521.2,190L521.2,190c2.8,0,5,2.2,5,5l0,0c0,2.8-2.2,5-5,5l0,0c-2.8,0-5-2.2-5-5l0,0
		C516.2,192.2,518.4,190,521.2,190z M531.2,190L531.2,190c2.8,0,5,2.2,5,5l0,0c0,2.8-2.2,5-5,5l0,0c-2.8,0-5-2.2-5-5l0,0
		C526.2,192.2,528.4,190,531.2,190z M291.2,200L291.2,200c2.8,0,5,2.2,5,5l0,0c0,2.8-2.2,5-5,5l0,0c-2.8,0-5-2.2-5-5l0,0
		C286.2,202.2,288.4,200,291.2,200z M351.2,200L351.2,200c2.8,0,5,2.2,5,5l0,0c0,2.8-2.2,5-5,5l0,0c-2.8,0-5-2.2-5-5l0,0
		C346.2,202.2,348.4,200,351.2,200z M381.2,200L381.2,200c2.8,0,5,2.2,5,5l0,0c0,2.8-2.2,5-5,5l0,0c-2.8,0-5-2.2-5-5l0,0
		C376.2,202.2,378.4,200,381.2,200z M401.2,200L401.2,200c2.8,0,5,2.2,5,5l0,0c0,2.8-2.2,5-5,5l0,0c-2.8,0-5-2.2-5-5l0,0
		C396.2,202.2,398.4,200,401.2,200z M431.2,200L431.2,200c2.8,0,5,2.2,5,5l0,0c0,2.8-2.2,5-5,5l0,0c-2.8,0-5-2.2-5-5l0,0
		C426.2,202.2,428.4,200,431.2,200z M451.2,200L451.2,200c2.8,0,5,2.2,5,5l0,0c0,2.8-2.2,5-5,5l0,0c-2.8,0-5-2.2-5-5l0,0
		C446.2,202.2,448.4,200,451.2,200z M491.2,200L491.2,200c2.8,0,5,2.2,5,5l0,0c0,2.8-2.2,5-5,5l0,0c-2.8,0-5-2.2-5-5l0,0
		C486.2,202.2,488.4,200,491.2,200z M501.2,200L501.2,200c2.8,0,5,2.2,5,5l0,0c0,2.8-2.2,5-5,5l0,0c-2.8,0-5-2.2-5-5l0,0
		C496.2,202.2,498.4,200,501.2,200z M531.2,200L531.2,200c2.8,0,5,2.2,5,5l0,0c0,2.8-2.2,5-5,5l0,0c-2.8,0-5-2.2-5-5l0,0
		C526.2,202.2,528.4,200,531.2,200z M291.2,210L291.2,210c2.8,0,5,2.2,5,5l0,0c0,2.8-2.2,5-5,5l0,0c-2.8,0-5-2.2-5-5l0,0
		C286.2,212.2,288.4,210,291.2,210z M311.2,210L311.2,210c2.8,0,5,2.2,5,5l0,0c0,2.8-2.2,5-5,5l0,0c-2.8,0-5-2.2-5-5l0,0
		C306.2,212.2,308.4,210,311.2,210z M321.2,210L321.2,210c2.8,0,5,2.2,5,5l0,0c0,2.8-2.2,5-5,5l0,0c-2.8,0-5-2.2-5-5l0,0
		C316.2,212.2,318.4,210,321.2,210z M331.2,210L331.2,210c2.8,0,5,2.2,5,5l0,0c0,2.8-2.2,5-5,5l0,0c-2.8,0-5-2.2-5-5l0,0
		C326.2,212.2,328.4,210,331.2,210z M351.2,210L351.2,210c2.8,0,5,2.2,5,5l0,0c0,2.8-2.2,5-5,5l0,0c-2.8,0-5-2.2-5-5l0,0
		C346.2,212.2,348.4,210,351.2,210z M371.2,210L371.2,210c2.8,0,5,2.2,5,5l0,0c0,2.8-2.2,5-5,5l0,0c-2.8,0-5-2.2-5-5l0,0
		C366.2,212.2,368.4,210,371.2,210z M381.2,210L381.2,210c2.8,0,5,2.2,5,5l0,0c0,2.8-2.2,5-5,5l0,0c-2.8,0-5-2.2-5-5l0,0
		C376.2,212.2,378.4,210,381.2,210z M391.2,210L391.2,210c2.8,0,5,2.2,5,5l0,0c0,2.8-2.2,5-5,5l0,0c-2.8,0-5-2.2-5-5l0,0
		C386.2,212.2,388.4,210,391.2,210z M401.2,210L401.2,210c2.8,0,5,2.2,5,5l0,0c0,2.8-2.2,5-5,5l0,0c-2.8,0-5-2.2-5-5l0,0
		C396.2,212.2,398.4,210,401.2,210z M441.2,210L441.2,210c2.8,0,5,2.2,5,5l0,0c0,2.8-2.2,5-5,5l0,0c-2.8,0-5-2.2-5-5l0,0
		C436.2,212.2,438.4,210,441.2,210z M451.2,210L451.2,210c2.8,0,5,2.2,5,5l0,0c0,2.8-2.2,5-5,5l0,0c-2.8,0-5-2.2-5-5l0,0
		C446.2,212.2,448.4,210,451.2,210z M461.2,210L461.2,210c2.8,0,5,2.2,5,5l0,0c0,2.8-2.2,5-5,5l0,0c-2.8,0-5-2.2-5-5l0,0
		C456.2,212.2,458.4,210,461.2,210z M471.2,210L471.2,210c2.8,0,5,2.2,5,5l0,0c0,2.8-2.2,5-5,5l0,0c-2.8,0-5-2.2-5-5l0,0
		C466.2,212.2,468.4,210,471.2,210z M481.2,210L481.2,210c2.8,0,5,2.2,5,5l0,0c0,2.8-2.2,5-5,5l0,0c-2.8,0-5-2.2-5-5l0,0
		C476.2,212.2,478.4,210,481.2,210z M491.2,210L491.2,210c2.8,0,5,2.2,5,5l0,0c0,2.8-2.2,5-5,5l0,0c-2.8,0-5-2.2-5-5l0,0
		C486.2,212.2,488.4,210,491.2,210z M511.2,210L511.2,210c2.8,0,5,2.2,5,5l0,0c0,2.8-2.2,5-5,5l0,0c-2.8,0-5-2.2-5-5l0,0
		C506.2,212.2,508.4,210,511.2,210z M521.2,210L521.2,210c2.8,0,5,2.2,5,5l0,0c0,2.8-2.2,5-5,5l0,0c-2.8,0-5-2.2-5-5l0,0
		C516.2,212.2,518.4,210,521.2,210z M531.2,210L531.2,210c2.8,0,5,2.2,5,5l0,0c0,2.8-2.2,5-5,5l0,0c-2.8,0-5-2.2-5-5l0,0
		C526.2,212.2,528.4,210,531.2,210z M291.2,220L291.2,220c2.8,0,5,2.2,5,5l0,0c0,2.8-2.2,5-5,5l0,0c-2.8,0-5-2.2-5-5l0,0
		C286.2,222.2,288.4,220,291.2,220z M311.2,220L311.2,220c2.8,0,5,2.2,5,5l0,0c0,2.8-2.2,5-5,5l0,0c-2.8,0-5-2.2-5-5l0,0
		C306.2,222.2,308.4,220,311.2,220z M321.2,220L321.2,220c2.8,0,5,2.2,5,5l0,0c0,2.8-2.2,5-5,5l0,0c-2.8,0-5-2.2-5-5l0,0
		C316.2,222.2,318.4,220,321.2,220z M331.2,220L331.2,220c2.8,0,5,2.2,5,5l0,0c0,2.8-2.2,5-5,5l0,0c-2.8,0-5-2.2-5-5l0,0
		C326.2,222.2,328.4,220,331.2,220z M351.2,220L351.2,220c2.8,0,5,2.2,5,5l0,0c0,2.8-2.2,5-5,5l0,0c-2.8,0-5-2.2-5-5l0,0
		C346.2,222.2,348.4,220,351.2,220z M371.2,220L371.2,220c2.8,0,5,2.2,5,5l0,0c0,2.8-2.2,5-5,5l0,0c-2.8,0-5-2.2-5-5l0,0
		C366.2,222.2,368.4,220,371.2,220z M391.2,220L391.2,220c2.8,0,5,2.2,5,5l0,0c0,2.8-2.2,5-5,5l0,0c-2.8,0-5-2.2-5-5l0,0
		C386.2,222.2,388.4,220,391.2,220z M411.2,220L411.2,220c2.8,0,5,2.2,5,5l0,0c0,2.8-2.2,5-5,5l0,0c-2.8,0-5-2.2-5-5l0,0
		C406.2,222.2,408.4,220,411.2,220z M421.2,220L421.2,220c2.8,0,5,2.2,5,5l0,0c0,2.8-2.2,5-5,5l0,0c-2.8,0-5-2.2-5-5l0,0
		C416.2,222.2,418.4,220,421.2,220z M431.2,220L431.2,220c2.8,0,5,2.2,5,5l0,0c0,2.8-2.2,5-5,5l0,0c-2.8,0-5-2.2-5-5l0,0
		C426.2,222.2,428.4,220,431.2,220z M461.2,220L461.2,220c2.8,0,5,2.2,5,5l0,0c0,2.8-2.2,5-5,5l0,0c-2.8,0-5-2.2-5-5l0,0
		C456.2,222.2,458.4,220,461.2,220z M471.2,220L471.2,220c2.8,0,5,2.2,5,5l0,0c0,2.8-2.2,5-5,5l0,0c-2.8,0-5-2.2-5-5l0,0
		C466.2,222.2,468.4,220,471.2,220z M491.2,220L491.2,220c2.8,0,5,2.2,5,5l0,0c0,2.8-2.2,5-5,5l0,0c-2.8,0-5-2.2-5-5l0,0
		C486.2,222.2,488.4,220,491.2,220z M501.2,220L501.2,220c2.8,0,5,2.2,5,5l0,0c0,2.8-2.2,5-5,5l0,0c-2.8,0-5-2.2-5-5l0,0
		C496.2,222.2,498.4,220,501.2,220z M511.2,220L511.2,220c2.8,0,5,2.2,5,5l0,0c0,2.8-2.2,5-5,5l0,0c-2.8,0-5-2.2-5-5l0,0
		C506.2,222.2,508.4,220,511.2,220z M521.2,220L521.2,220c2.8,0,5,2.2,5,5l0,0c0,2.8-2.2,5-5,5l0,0c-2.8,0-5-2.2-5-5l0,0
		C516.2,222.2,518.4,220,521.2,220z M531.2,220L531.2,220c2.8,0,5,2.2,5,5l0,0c0,2.8-2.2,5-5,5l0,0c-2.8,0-5-2.2-5-5l0,0
		C526.2,222.2,528.4,220,531.2,220z M291.2,230L291.2,230c2.8,0,5,2.2,5,5l0,0c0,2.8-2.2,5-5,5l0,0c-2.8,0-5-2.2-5-5l0,0
		C286.2,232.2,288.4,230,291.2,230z M311.2,230L311.2,230c2.8,0,5,2.2,5,5l0,0c0,2.8-2.2,5-5,5l0,0c-2.8,0-5-2.2-5-5l0,0
		C306.2,232.2,308.4,230,311.2,230z M321.2,230L321.2,230c2.8,0,5,2.2,5,5l0,0c0,2.8-2.2,5-5,5l0,0c-2.8,0-5-2.2-5-5l0,0
		C316.2,232.2,318.4,230,321.2,230z M331.2,230L331.2,230c2.8,0,5,2.2,5,5l0,0c0,2.8-2.2,5-5,5l0,0c-2.8,0-5-2.2-5-5l0,0
		C326.2,232.2,328.4,230,331.2,230z M351.2,230L351.2,230c2.8,0,5,2.2,5,5l0,0c0,2.8-2.2,5-5,5l0,0c-2.8,0-5-2.2-5-5l0,0
		C346.2,232.2,348.4,230,351.2,230z M371.2,230L371.2,230c2.8,0,5,2.2,5,5l0,0c0,2.8-2.2,5-5,5l0,0c-2.8,0-5-2.2-5-5l0,0
		C366.2,232.2,368.4,230,371.2,230z M421.2,230L421.2,230c2.8,0,5,2.2,5,5l0,0c0,2.8-2.2,5-5,5l0,0c-2.8,0-5-2.2-5-5l0,0
		C416.2,232.2,418.4,230,421.2,230z M431.2,230L431.2,230c2.8,0,5,2.2,5,5l0,0c0,2.8-2.2,5-5,5l0,0c-2.8,0-5-2.2-5-5l0,0
		C426.2,232.2,428.4,230,431.2,230z M451.2,230L451.2,230c2.8,0,5,2.2,5,5l0,0c0,2.8-2.2,5-5,5l0,0c-2.8,0-5-2.2-5-5l0,0
		C446.2,232.2,448.4,230,451.2,230z M501.2,230L501.2,230c2.8,0,5,2.2,5,5l0,0c0,2.8-2.2,5-5,5l0,0c-2.8,0-5-2.2-5-5l0,0
		C496.2,232.2,498.4,230,501.2,230z M511.2,230L511.2,230c2.8,0,5,2.2,5,5l0,0c0,2.8-2.2,5-5,5l0,0c-2.8,0-5-2.2-5-5l0,0
		C506.2,232.2,508.4,230,511.2,230z M531.2,230L531.2,230c2.8,0,5,2.2,5,5l0,0c0,2.8-2.2,5-5,5l0,0c-2.8,0-5-2.2-5-5l0,0
		C526.2,232.2,528.4,230,531.2,230z M291.2,240L291.2,240c2.8,0,5,2.2,5,5l0,0c0,2.8-2.2,5-5,5l0,0c-2.8,0-5-2.2-5-5l0,0
		C286.2,242.2,288.4,240,291.2,240z M351.2,240L351.2,240c2.8,0,5,2.2,5,5l0,0c0,2.8-2.2,5-5,5l0,0c-2.8,0-5-2.2-5-5l0,0
		C346.2,242.2,348.4,240,351.2,240z M371.2,240L371.2,240c2.8,0,5,2.2,5,5l0,0c0,2.8-2.2,5-5,5l0,0c-2.8,0-5-2.2-5-5l0,0
		C366.2,242.2,368.4,240,371.2,240z M391.2,240L391.2,240c2.8,0,5,2.2,5,5l0,0c0,2.8-2.2,5-5,5l0,0c-2.8,0-5-2.2-5-5l0,0
		C386.2,242.2,388.4,240,391.2,240z M411.2,240L411.2,240c2.8,0,5,2.2,5,5l0,0c0,2.8-2.2,5-5,5l0,0c-2.8,0-5-2.2-5-5l0,0
		C406.2,242.2,408.4,240,411.2,240z M421.2,240L421.2,240c2.8,0,5,2.2,5,5l0,0c0,2.8-2.2,5-5,5l0,0c-2.8,0-5-2.2-5-5l0,0
		C416.2,242.2,418.4,240,421.2,240z M441.2,240L441.2,240c2.8,0,5,2.2,5,5l0,0c0,2.8-2.2,5-5,5l0,0c-2.8,0-5-2.2-5-5l0,0
		C436.2,242.2,438.4,240,441.2,240z M451.2,240L451.2,240c2.8,0,5,2.2,5,5l0,0c0,2.8-2.2,5-5,5l0,0c-2.8,0-5-2.2-5-5l0,0
		C446.2,242.2,448.4,240,451.2,240z M481.2,240L481.2,240c2.8,0,5,2.2,5,5l0,0c0,2.8-2.2,5-5,5l0,0c-2.8,0-5-2.2-5-5l0,0
		C476.2,242.2,478.4,240,481.2,240z M491.2,240L491.2,240c2.8,0,5,2.2,5,5l0,0c0,2.8-2.2,5-5,5l0,0c-2.8,0-5-2.2-5-5l0,0
		C486.2,242.2,488.4,240,491.2,240z M501.2,240L501.2,240c2.8,0,5,2.2,5,5l0,0c0,2.8-2.2,5-5,5l0,0c-2.8,0-5-2.2-5-5l0,0
		C496.2,242.2,498.4,240,501.2,240z M531.2,240L531.2,240c2.8,0,5,2.2,5,5l0,0c0,2.8-2.2,5-5,5l0,0c-2.8,0-5-2.2-5-5l0,0
		C526.2,242.2,528.4,240,531.2,240z M291.2,250L291.2,250c2.8,0,5,2.2,5,5l0,0c0,2.8-2.2,5-5,5l0,0c-2.8,0-5-2.2-5-5l0,0
		C286.2,252.2,288.4,250,291.2,250z M301.2,250L301.2,250c2.8,0,5,2.2,5,5l0,0c0,2.8-2.2,5-5,5l0,0c-2.8,0-5-2.2-5-5l0,0
		C296.2,252.2,298.4,250,301.2,250z M311.2,250L311.2,250c2.8,0,5,2.2,5,5l0,0c0,2.8-2.2,5-5,5l0,0c-2.8,0-5-2.2-5-5l0,0
		C306.2,252.2,308.4,250,311.2,250z M321.2,250L321.2,250c2.8,0,5,2.2,5,5l0,0c0,2.8-2.2,5-5,5l0,0c-2.8,0-5-2.2-5-5l0,0
		C316.2,252.2,318.4,250,321.2,250z M331.2,250L331.2,250c2.8,0,5,2.2,5,5l0,0c0,2.8-2.2,5-5,5l0,0c-2.8,0-5-2.2-5-5l0,0
		C326.2,252.2,328.4,250,331.2,250z M341.2,250L341.2,250c2.8,0,5,2.2,5,5l0,0c0,2.8-2.2,5-5,5l0,0c-2.8,0-5-2.2-5-5l0,0
		C336.2,252.2,338.4,250,341.2,250z M351.2,250L351.2,250c2.8,0,5,2.2,5,5l0,0c0,2.8-2.2,5-5,5l0,0c-2.8,0-5-2.2-5-5l0,0
		C346.2,252.2,348.4,250,351.2,250z M371.2,250L371.2,250c2.8,0,5,2.2,5,5l0,0c0,2.8-2.2,5-5,5l0,0c-2.8,0-5-2.2-5-5l0,0
		C366.2,252.2,368.4,250,371.2,250z M381.2,250L381.2,250c2.8,0,5,2.2,5,5l0,0c0,2.8-2.2,5-5,5l0,0c-2.8,0-5-2.2-5-5l0,0
		C376.2,252.2,378.4,250,381.2,250z M391.2,250L391.2,250c2.8,0,5,2.2,5,5l0,0c0,2.8-2.2,5-5,5l0,0c-2.8,0-5-2.2-5-5l0,0
		C386.2,252.2,388.4,250,391.2,250z M411.2,250L411.2,250c2.8,0,5,2.2,5,5l0,0c0,2.8-2.2,5-5,5l0,0c-2.8,0-5-2.2-5-5l0,0
		C406.2,252.2,408.4,250,411.2,250z M431.2,250L431.2,250c2.8,0,5,2.2,5,5l0,0c0,2.8-2.2,5-5,5l0,0c-2.8,0-5-2.2-5-5l0,0
		C426.2,252.2,428.4,250,431.2,250z M461.2,250L461.2,250c2.8,0,5,2.2,5,5l0,0c0,2.8-2.2,5-5,5l0,0c-2.8,0-5-2.2-5-5l0,0
		C456.2,252.2,458.4,250,461.2,250z M481.2,250L481.2,250c2.8,0,5,2.2,5,5l0,0c0,2.8-2.2,5-5,5l0,0c-2.8,0-5-2.2-5-5l0,0
		C476.2,252.2,478.4,250,481.2,250z M491.2,250L491.2,250c2.8,0,5,2.2,5,5l0,0c0,2.8-2.2,5-5,5l0,0c-2.8,0-5-2.2-5-5l0,0
		C486.2,252.2,488.4,250,491.2,250z M501.2,250L501.2,250c2.8,0,5,2.2,5,5l0,0c0,2.8-2.2,5-5,5l0,0c-2.8,0-5-2.2-5-5l0,0
		C496.2,252.2,498.4,250,501.2,250z M511.2,250L511.2,250c2.8,0,5,2.2,5,5l0,0c0,2.8-2.2,5-5,5l0,0c-2.8,0-5-2.2-5-5l0,0
		C506.2,252.2,508.4,250,511.2,250z M521.2,250L521.2,250c2.8,0,5,2.2,5,5l0,0c0,2.8-2.2,5-5,5l0,0c-2.8,0-5-2.2-5-5l0,0
		C516.2,252.2,518.4,250,521.2,250z M531.2,250L531.2,250c2.8,0,5,2.2,5,5l0,0c0,2.8-2.2,5-5,5l0,0c-2.8,0-5-2.2-5-5l0,0
		C526.2,252.2,528.4,250,531.2,250z"/>
</g>
</svg>
