<?xml version="1.0" standalone="no"?>
<!DOCTYPE svg PUBLIC "-//W3C//DTD SVG 20010904//EN"
 "http://www.w3.org/TR/2001/REC-SVG-20010904/DTD/svg10.dtd">
<svg version="1.0" xmlns="http://www.w3.org/2000/svg"
 width="1191.000000pt" height="1191.000000pt" viewBox="0 0 1191.000000 1191.000000"
 preserveAspectRatio="xMidYMid meet">
<metadata>
Created by potrace 1.14, written by Peter Selinger 2001-2017
</metadata>
<g transform="translate(0.000000,1191.000000) scale(0.100000,-0.100000)"
fill="#000000" stroke="none">
<path d="M4748 11905 c-2 -1 -55 -5 -118 -9 -118 -7 -154 -10 -250 -22 -30 -3
-66 -8 -80 -9 -95 -10 -244 -36 -456 -80 -174 -37 -504 -139 -709 -220 -837
-329 -1591 -902 -2131 -1620 -67 -88 -204 -283 -204 -290 0 -2 -17 -30 -39
-62 -68 -103 -194 -334 -280 -513 -46 -96 -84 -179 -86 -185 -1 -5 -7 -21 -12
-35 -85 -202 -163 -438 -223 -675 -26 -104 -51 -206 -54 -225 -12 -71 -16 -96
-22 -120 -3 -14 -8 -41 -10 -60 -2 -19 -6 -46 -9 -60 -2 -14 -7 -47 -10 -75
-3 -27 -8 -61 -10 -75 -8 -44 -22 -206 -31 -345 -8 -125 -8 -2381 0 -2527 3
-59 8 -132 11 -162 3 -31 7 -81 10 -113 3 -31 7 -68 9 -82 4 -24 9 -63 22
-161 3 -19 9 -55 14 -80 4 -25 14 -74 20 -110 7 -36 18 -90 26 -120 7 -30 15
-69 18 -85 16 -89 128 -451 194 -620 157 -409 382 -815 650 -1175 47 -63 89
-117 92 -120 3 -3 50 -59 105 -125 55 -66 174 -194 265 -286 400 -401 829
-707 1327 -950 196 -95 203 -98 268 -125 249 -102 625 -220 844 -265 164 -33
188 -38 236 -44 22 -3 47 -8 55 -10 8 -2 40 -7 70 -10 30 -3 66 -8 80 -10 14
-2 57 -7 95 -11 39 -3 81 -8 95 -10 104 -12 445 -16 1440 -17 999 0 1322 4
1445 18 17 2 57 6 90 10 122 12 153 17 295 41 193 32 186 31 345 69 534 127
1075 362 1549 673 121 79 414 295 427 314 3 4 19 18 36 31 90 67 343 311 494
477 90 100 262 310 323 395 52 73 245 367 259 394 8 14 23 42 34 61 191 335
337 674 448 1047 39 129 93 344 109 438 3 17 8 41 11 55 4 22 10 57 30 180 7
44 14 103 20 163 4 32 8 66 10 76 16 82 20 418 20 1526 0 1127 -3 1362 -20
1490 -2 17 -7 57 -10 90 -12 106 -33 238 -61 380 -9 44 -18 91 -20 105 -3 14
-21 86 -40 160 -19 74 -37 142 -39 150 -7 31 -94 288 -123 367 -89 238 -239
549 -382 788 -46 77 -87 142 -91 145 -3 3 -12 16 -19 29 -43 82 -287 402 -428
561 -91 103 -351 363 -442 441 -41 35 -83 72 -95 82 -11 10 -45 37 -75 60 -30
23 -57 45 -60 48 -14 18 -315 227 -427 297 -370 229 -776 412 -1193 536 -179
53 -477 121 -623 141 -27 4 -58 8 -69 10 -11 3 -46 7 -77 11 -31 3 -64 8 -73
9 -9 2 -57 7 -105 10 -48 4 -99 9 -113 12 -24 4 -2567 12 -2572 8z"/>
</g>
</svg>
